<svg xmlns="http://www.w3.org/2000/svg" width="73.364" height="73.295" viewBox="0 0 73.364 73.295"><defs><style>.a{fill:#151515;}</style></defs><g transform="translate(447.193 -371.24)"><path class="a" d="M-407.425,444.535a2.34,2.34,0,0,1-1.549-.593l-.261-.231a1.915,1.915,0,0,0-1.275-.462,1.916,1.916,0,0,0-1.275.462l-.261.231a2.339,2.339,0,0,1-1.549.593,2.319,2.319,0,0,1-1.829-.9l-.215-.274a1.965,1.965,0,0,0-1.544-.715,1.861,1.861,0,0,0-.966.26l-.3.181a2.355,2.355,0,0,1-1.219.344,2.322,2.322,0,0,1-2.05-1.246l-.163-.308a2.007,2.007,0,0,0-1.746-1.012,1.793,1.793,0,0,0-.642.116l-.325.124a2.363,2.363,0,0,1-.848.159,2.316,2.316,0,0,1-2.207-1.63l-.105-.332a2.018,2.018,0,0,0-1.869-1.338,1.711,1.711,0,0,0-.32.03l-.342.064a2.4,2.4,0,0,1-.445.042,2.3,2.3,0,0,1-2.3-2.035l-.045-.345a2.006,2.006,0,0,0-1.91-1.678l-.359,0a2.325,2.325,0,0,1-1.711-.72,2.316,2.316,0,0,1-.633-1.731l.018-.348a2,2,0,0,0-1.59-1.994l-.343-.06a2.315,2.315,0,0,1-1.551-1.008,2.313,2.313,0,0,1-.317-1.822l.08-.339a2,2,0,0,0-1.208-2.246l-.327-.12a2.314,2.314,0,0,1-1.346-1.269,2.314,2.314,0,0,1,.013-1.85l.139-.32a2,2,0,0,0-.789-2.426l-.3-.177a2.314,2.314,0,0,1-1.1-1.489,2.312,2.312,0,0,1,.343-1.817l.194-.289a2,2,0,0,0-.342-2.528l-.263-.227a2.315,2.315,0,0,1-.814-1.661,2.315,2.315,0,0,1,.662-1.727l.242-.25a2,2,0,0,0,.115-2.548l-.219-.271a2.315,2.315,0,0,1-.505-1.78,2.315,2.315,0,0,1,.96-1.581l.283-.2a2,2,0,0,0,.568-2.487l-.167-.306a2.315,2.315,0,0,1-.179-1.841,2.314,2.314,0,0,1,1.227-1.384l.314-.149a2,2,0,0,0,1-2.345l-.11-.331a2.315,2.315,0,0,1,.152-1.843,2.315,2.315,0,0,1,1.455-1.143l.337-.09a2,2,0,0,0,1.4-2.129l-.049-.345a2.313,2.313,0,0,1,.48-1.786,2.314,2.314,0,0,1,1.635-.865l.347-.029a2,2,0,0,0,1.763-1.844l.014-.348a2.32,2.32,0,0,1,2.32-2.242c.077,0,.156,0,.234.011l.346.033a1.99,1.99,0,0,0,2.064-1.5l.076-.34a2.31,2.31,0,0,1,2.261-1.83,2.389,2.389,0,0,1,.65.091l.335.095a1.775,1.775,0,0,0,.48.065,2,2,0,0,0,1.818-1.172l.135-.321a2.32,2.32,0,0,1,2.137-1.435,2.353,2.353,0,0,1,1.038.243l.313.153a1.835,1.835,0,0,0,.8.181,1.977,1.977,0,0,0,1.655-.859l.189-.292a2.323,2.323,0,0,1,1.947-1.067,2.33,2.33,0,0,1,1.39.461l.28.206a1.9,1.9,0,0,0,1.124.354,1.943,1.943,0,0,0,1.416-.583l.239-.253a2.316,2.316,0,0,1,1.7-.739,2.316,2.316,0,0,1,1.7.739l.239.253a1.944,1.944,0,0,0,1.416.583,1.9,1.9,0,0,0,1.124-.354l.28-.206a2.329,2.329,0,0,1,1.389-.461,2.322,2.322,0,0,1,1.948,1.067l.19.292a1.976,1.976,0,0,0,1.654.859,1.84,1.84,0,0,0,.8-.181l.312-.153a2.354,2.354,0,0,1,1.038-.243,2.32,2.32,0,0,1,2.137,1.435l.135.321a2,2,0,0,0,1.818,1.172,1.771,1.771,0,0,0,.48-.065l.335-.095a2.4,2.4,0,0,1,.651-.091,2.31,2.31,0,0,1,2.261,1.83l.075.34a1.992,1.992,0,0,0,2.064,1.5l.347-.033c.077-.008.156-.011.233-.011a2.32,2.32,0,0,1,2.32,2.242l.013.349a2,2,0,0,0,1.763,1.843l.347.029a2.314,2.314,0,0,1,1.635.865,2.315,2.315,0,0,1,.479,1.786l-.049.345a2,2,0,0,0,1.4,2.129l.337.09a2.315,2.315,0,0,1,1.454,1.143,2.313,2.313,0,0,1,.152,1.844l-.109.331a2,2,0,0,0,1,2.345l.315.149a2.312,2.312,0,0,1,1.226,1.384,2.315,2.315,0,0,1-.179,1.841l-.167.306a2,2,0,0,0,.568,2.487l.283.2a2.313,2.313,0,0,1,.96,1.581,2.314,2.314,0,0,1-.5,1.779l-.219.271a2,2,0,0,0,.114,2.548l.242.25a2.318,2.318,0,0,1,.662,1.727,2.315,2.315,0,0,1-.814,1.661l-.264.227a2,2,0,0,0-.342,2.527l.194.29a2.315,2.315,0,0,1,.343,1.818,2.315,2.315,0,0,1-1.1,1.488l-.3.177a2,2,0,0,0-.788,2.426l.139.32a2.312,2.312,0,0,1,.013,1.85,2.313,2.313,0,0,1-1.346,1.268l-.327.12a2,2,0,0,0-1.208,2.246l.08.339a2.315,2.315,0,0,1-.317,1.822,2.317,2.317,0,0,1-1.552,1.008l-.343.06a2,2,0,0,0-1.59,1.994l.018.348a2.315,2.315,0,0,1-.633,1.732,2.313,2.313,0,0,1-1.695.72l-.364,0a1.982,1.982,0,0,0-1.921,1.678l-.045.345a2.3,2.3,0,0,1-2.3,2.035,2.4,2.4,0,0,1-.445-.042l-.342-.064a1.719,1.719,0,0,0-.321-.03,2.018,2.018,0,0,0-1.869,1.338l-.105.331a2.316,2.316,0,0,1-2.208,1.63,2.364,2.364,0,0,1-.848-.158l-.326-.125a1.79,1.79,0,0,0-.641-.116,2.007,2.007,0,0,0-1.746,1.012l-.163.308a2.322,2.322,0,0,1-2.05,1.246,2.352,2.352,0,0,1-1.219-.344l-.3-.18a1.861,1.861,0,0,0-.966-.26,1.965,1.965,0,0,0-1.544.715l-.215.274A2.32,2.32,0,0,1-407.425,444.535Zm-3.085-2.075a2.7,2.7,0,0,1,1.8.66l.261.23a1.549,1.549,0,0,0,1.026.4,1.535,1.535,0,0,0,1.209-.6l.215-.273a2.759,2.759,0,0,1,2.164-1.017,2.654,2.654,0,0,1,1.375.374l.3.181a1.567,1.567,0,0,0,.809.23,1.535,1.535,0,0,0,1.353-.827l.163-.308a2.778,2.778,0,0,1,2.444-1.432,2.576,2.576,0,0,1,.924.168l.325.125a1.581,1.581,0,0,0,.566.106,1.53,1.53,0,0,0,1.456-1.08l.105-.332a2.8,2.8,0,0,1,2.621-1.888,2.529,2.529,0,0,1,.467.043l.342.064a1.633,1.633,0,0,0,.3.028,1.52,1.52,0,0,0,1.516-1.347l.044-.346a2.791,2.791,0,0,1,2.693-2.366l.364,0a1.538,1.538,0,0,0,1.134-.475,1.534,1.534,0,0,0,.417-1.147l-.018-.348a2.787,2.787,0,0,1,2.243-2.812l.343-.06a1.534,1.534,0,0,0,1.029-.665,1.533,1.533,0,0,0,.207-1.207l-.08-.339a2.786,2.786,0,0,1,1.7-3.167l.327-.12a1.533,1.533,0,0,0,.893-.838,1.533,1.533,0,0,0-.011-1.225l-.139-.319a2.787,2.787,0,0,1,1.112-3.421l.3-.177a1.533,1.533,0,0,0,.729-.984,1.533,1.533,0,0,0-.229-1.2l-.194-.289a2.786,2.786,0,0,1,.483-3.564l.264-.228a1.534,1.534,0,0,0,.541-1.1,1.536,1.536,0,0,0-.441-1.143l-.242-.25a2.786,2.786,0,0,1-.161-3.593l.219-.271a1.534,1.534,0,0,0,.337-1.178,1.533,1.533,0,0,0-.638-1.046l-.283-.2a2.787,2.787,0,0,1-.8-3.507l.167-.306a1.532,1.532,0,0,0,.121-1.219,1.533,1.533,0,0,0-.814-.915l-.315-.149a2.785,2.785,0,0,1-1.413-3.307l.109-.33a1.531,1.531,0,0,0-.1-1.221,1.532,1.532,0,0,0-.965-.755l-.336-.09a2.787,2.787,0,0,1-1.982-3l.049-.345a1.532,1.532,0,0,0-.315-1.184,1.532,1.532,0,0,0-1.084-.57l-.348-.029a2.787,2.787,0,0,1-2.485-2.6l-.013-.348a1.52,1.52,0,0,0-1.69-1.476l-.347.033c-.079.008-.16.012-.24.012a2.78,2.78,0,0,1-2.67-2.126l-.075-.34a1.525,1.525,0,0,0-1.49-1.212,1.6,1.6,0,0,0-.436.061l-.335.094a2.547,2.547,0,0,1-.695.1,2.811,2.811,0,0,1-2.546-1.655l-.135-.321a1.533,1.533,0,0,0-1.41-.951,1.566,1.566,0,0,0-.691.163l-.313.153a2.632,2.632,0,0,1-1.151.261,2.774,2.774,0,0,1-2.316-1.218l-.19-.292a1.534,1.534,0,0,0-1.286-.708,1.544,1.544,0,0,0-.922.308l-.28.206a2.7,2.7,0,0,1-1.592.508,2.735,2.735,0,0,1-1.99-.83l-.239-.253a1.532,1.532,0,0,0-1.122-.492,1.533,1.533,0,0,0-1.122.492l-.239.253a2.735,2.735,0,0,1-1.99.83h0a2.7,2.7,0,0,1-1.592-.508l-.28-.206a1.546,1.546,0,0,0-.922-.308,1.535,1.535,0,0,0-1.286.708l-.19.292a2.774,2.774,0,0,1-2.316,1.218,2.632,2.632,0,0,1-1.151-.261l-.313-.153a1.566,1.566,0,0,0-.691-.163,1.532,1.532,0,0,0-1.409.951l-.135.321a2.81,2.81,0,0,1-2.546,1.655,2.544,2.544,0,0,1-.695-.1l-.335-.094a1.6,1.6,0,0,0-.436-.061,1.525,1.525,0,0,0-1.491,1.212l-.075.34a2.779,2.779,0,0,1-2.67,2.126c-.08,0-.161,0-.24-.012l-.347-.033a1.519,1.519,0,0,0-1.69,1.476l-.014.348a2.786,2.786,0,0,1-2.485,2.6l-.347.029a1.532,1.532,0,0,0-1.084.57,1.532,1.532,0,0,0-.315,1.184l.049.345a2.787,2.787,0,0,1-1.981,3l-.337.09a1.532,1.532,0,0,0-.965.755,1.532,1.532,0,0,0-.1,1.221l.11.331a2.786,2.786,0,0,1-1.414,3.307l-.314.149a1.533,1.533,0,0,0-.814.915,1.534,1.534,0,0,0,.121,1.219l.167.305a2.787,2.787,0,0,1-.8,3.507l-.283.2a1.534,1.534,0,0,0-.638,1.046,1.531,1.531,0,0,0,.337,1.178l.219.271a2.787,2.787,0,0,1-.161,3.593l-.242.25a1.534,1.534,0,0,0-.441,1.143,1.532,1.532,0,0,0,.542,1.1l.263.227a2.787,2.787,0,0,1,.483,3.564l-.193.289a1.532,1.532,0,0,0-.23,1.2,1.535,1.535,0,0,0,.73.985l.3.177a2.787,2.787,0,0,1,1.111,3.421l-.139.319a1.532,1.532,0,0,0-.011,1.225,1.534,1.534,0,0,0,.893.838l.327.12a2.786,2.786,0,0,1,1.7,3.167l-.079.339a1.533,1.533,0,0,0,.207,1.207,1.533,1.533,0,0,0,1.029.665l.343.06a2.786,2.786,0,0,1,2.242,2.812l-.018.348a1.534,1.534,0,0,0,.417,1.148,1.532,1.532,0,0,0,1.123.474l.359,0a2.794,2.794,0,0,1,2.708,2.366l.045.345a1.52,1.52,0,0,0,1.516,1.347,1.637,1.637,0,0,0,.3-.028l.342-.064a2.523,2.523,0,0,1,.466-.043A2.8,2.8,0,0,1-427,439.065l.105.332a1.529,1.529,0,0,0,1.455,1.08,1.583,1.583,0,0,0,.566-.106l.325-.125a2.577,2.577,0,0,1,.924-.168,2.778,2.778,0,0,1,2.444,1.432l.163.308a1.535,1.535,0,0,0,1.353.827,1.567,1.567,0,0,0,.81-.23l.3-.181a2.652,2.652,0,0,1,1.375-.374,2.758,2.758,0,0,1,2.164,1.017l.216.273a1.533,1.533,0,0,0,1.209.6,1.55,1.55,0,0,0,1.026-.4l.26-.23A2.7,2.7,0,0,1-410.511,442.46Z" transform="translate(0)"/><g transform="translate(-446.367 378.904)"><path class="a" d="M-333.394,522.782a1.108,1.108,0,0,0,1.107-1.106v-3.432a1.108,1.108,0,0,0-1.107-1.106,1.108,1.108,0,0,0-1.106,1.106v3.432A1.108,1.108,0,0,0-333.394,522.782Zm-.317-4.538a.317.317,0,0,1,.317-.317.317.317,0,0,1,.317.317v3.432a.317.317,0,0,1-.317.317.317.317,0,0,1-.317-.317Z" transform="translate(369.25 -478.744)"/><path class="a" d="M-341.27,519.187a1.108,1.108,0,0,0,1.107-1.106V514.2a1.108,1.108,0,0,0-1.107-1.107,1.108,1.108,0,0,0-1.106,1.107v3.879A1.108,1.108,0,0,0-341.27,519.187Zm-.317-4.985a.318.318,0,0,1,.317-.317.318.318,0,0,1,.317.317v3.879a.317.317,0,0,1-.317.317.317.317,0,0,1-.317-.317Z" transform="translate(374.639 -475.977)"/><path class="a" d="M-380.819,517.138h-1.975a.394.394,0,0,0-.395.395v1.974a.374.374,0,0,0,.014.1.38.38,0,0,0-.014.1v1.974a.394.394,0,0,0,.395.395h1.975a.4.4,0,0,0,.395-.395V519.7a.41.41,0,0,0-.014-.1.4.4,0,0,0,.014-.1v-1.974A.4.4,0,0,0-380.819,517.138Zm-.395,4.146H-382.4V520.1h1.185Zm0-2.172H-382.4v-1.185h1.185Z" transform="translate(402.568 -478.744)"/><path class="a" d="M-325.518,519.187a1.108,1.108,0,0,0,1.107-1.106V514.2a1.108,1.108,0,0,0-1.107-1.107,1.108,1.108,0,0,0-1.106,1.107v3.879A1.108,1.108,0,0,0-325.518,519.187Zm-.317-4.985a.318.318,0,0,1,.317-.317.318.318,0,0,1,.318.317v3.879a.317.317,0,0,1-.318.317.317.317,0,0,1-.317-.317Z" transform="translate(363.86 -475.977)"/><path class="a" d="M-333.755,443.631h1.2a.4.4,0,0,0,.395-.395v-1.308a1,1,0,0,0-1-1h0a1,1,0,0,0-1,1v1.308A.4.4,0,0,0-333.755,443.631Zm.395-1.7a.206.206,0,0,1,.206-.206h0a.206.206,0,0,1,.206.206v.913h-.414Z" transform="translate(369.01 -426.596)"/><path class="a" d="M-285.186,517.138h-1.975a.394.394,0,0,0-.395.395v1.974a.374.374,0,0,0,.014.1.38.38,0,0,0-.014.1v1.974a.394.394,0,0,0,.395.395h1.975a.4.4,0,0,0,.395-.395V519.7a.408.408,0,0,0-.014-.1.4.4,0,0,0,.014-.1v-1.974A.4.4,0,0,0-285.186,517.138Zm-.395,4.146h-1.185V520.1h1.185Zm0-2.172h-1.185v-1.185h1.185Z" transform="translate(337.125 -478.744)"/><path class="a" d="M-429.2,442.8h-10.035l-.062.265a1.976,1.976,0,0,0-.05.524h10.717v.978h-10.412a1.918,1.918,0,0,0,1.053.789h.246v.06l.342.06a2.134,2.134,0,0,1,.447.132v-.253h.512v.546a2.467,2.467,0,0,1,.789,1.029v-1.575h.512v3.235a.393.393,0,0,0,.073.228.393.393,0,0,0-.073.227v.421a1.9,1.9,0,0,0,.789.637v-1.058a.391.391,0,0,0-.073-.227.391.391,0,0,0,.073-.228v-3.235h.512v4.577a.388.388,0,0,0,.055.2.387.387,0,0,0-.043.114,1.986,1.986,0,0,0,.272.019l.349,0c.05,0,.1,0,.148.007a.4.4,0,0,0-.046-.138.4.4,0,0,0,.055-.2v-4.577h.512v5.01a2.417,2.417,0,0,1,.789.429v-5.44h.512v4.577a.391.391,0,0,0,.055.2.388.388,0,0,0-.055.2v1.036a2.223,2.223,0,0,1,.345.919l.044.345a1.959,1.959,0,0,0,.383.939.37.37,0,0,0,.018-.109v-.8a.392.392,0,0,0-.16-.315.392.392,0,0,0,.16-.316v-1.7a.388.388,0,0,0-.055-.2.391.391,0,0,0,.055-.2v-4.577h.512v3.235a.391.391,0,0,0,.073.228.39.39,0,0,0-.073.227v1.7a.392.392,0,0,0,.16.316.394.394,0,0,0-.16.316v.8a.39.39,0,0,0,.1.263.392.392,0,0,0-.1.264v.355a.4.4,0,0,0,.395.395.4.4,0,0,0,.395-.395V452.7a.392.392,0,0,0-.1-.264.39.39,0,0,0,.1-.263v-.8a.393.393,0,0,0-.16-.316.391.391,0,0,0,.16-.316v-1.7a.393.393,0,0,0-.073-.227.393.393,0,0,0,.073-.228v-3.235h.512v1.892a.394.394,0,0,0,.165.32.393.393,0,0,0-.165.32v1.7a.392.392,0,0,0,.16.316.394.394,0,0,0-.16.316v.8a.39.39,0,0,0,.1.263.393.393,0,0,0-.1.264v.355a.4.4,0,0,0,.395.395.394.394,0,0,0,.395-.395v-.355a.392.392,0,0,0-.1-.264.39.39,0,0,0,.1-.263v-.8a.393.393,0,0,0-.16-.316.391.391,0,0,0,.16-.316v-1.7a.393.393,0,0,0-.165-.32.394.394,0,0,0,.165-.32v-1.892h.512v3.235a.391.391,0,0,0,.073.228.39.39,0,0,0-.073.227v1.7a.392.392,0,0,0,.16.316.394.394,0,0,0-.16.316v.8a.39.39,0,0,0,.1.263.393.393,0,0,0-.1.264v.355a.4.4,0,0,0,.395.395.4.4,0,0,0,.395-.395V452.7a.393.393,0,0,0-.1-.264.391.391,0,0,0,.1-.263v-.8a.394.394,0,0,0-.16-.316.392.392,0,0,0,.16-.316v-1.7a.392.392,0,0,0-.073-.227.393.393,0,0,0,.073-.228v-3.235h.512v4.577a.391.391,0,0,0,.055.2.388.388,0,0,0-.055.2v1.7a.393.393,0,0,0,.16.316.392.392,0,0,0-.16.315v.8a.393.393,0,0,0,.1.264.392.392,0,0,0-.1.264v.355a.4.4,0,0,0,.395.395.4.4,0,0,0,.395-.395v-.355a.393.393,0,0,0-.1-.264.393.393,0,0,0,.1-.264v-.8a.393.393,0,0,0-.16-.315.393.393,0,0,0,.16-.316v-1.7a.388.388,0,0,0-.055-.2.391.391,0,0,0,.055-.2v-4.577h.512v5.919a.392.392,0,0,0,.07.224.392.392,0,0,0-.07.224v1.7a.393.393,0,0,0,.16.315.394.394,0,0,0-.16.316v.8a.391.391,0,0,0,.1.264.391.391,0,0,0-.1.264v.355a.4.4,0,0,0,.395.395.4.4,0,0,0,.395-.395v-.355a.393.393,0,0,0-.1-.264.393.393,0,0,0,.1-.264v-.8a.393.393,0,0,0-.16-.316.392.392,0,0,0,.16-.315v-1.7a.394.394,0,0,0-.069-.224.394.394,0,0,0,.069-.224v-5.919h.512v4.577a.4.4,0,0,0,.055.2.392.392,0,0,0-.055.2v1.7a.394.394,0,0,0,.16.316.394.394,0,0,0-.16.315v.8a.391.391,0,0,0,.1.264.391.391,0,0,0-.1.264v.355a.4.4,0,0,0,.395.395.4.4,0,0,0,.395-.395v-.355a.392.392,0,0,0-.1-.264.393.393,0,0,0,.1-.264v-.8a.392.392,0,0,0-.16-.315.393.393,0,0,0,.16-.316v-1.7a.391.391,0,0,0-.055-.2.4.4,0,0,0,.055-.2v-4.577h.512v3.235a.39.39,0,0,0,.073.228.39.39,0,0,0-.073.227v1.7a.393.393,0,0,0,.16.316.394.394,0,0,0-.16.316v.8a.39.39,0,0,0,.1.263.393.393,0,0,0-.1.264v.355a.4.4,0,0,0,.395.395.4.4,0,0,0,.395-.395V452.7a.391.391,0,0,0-.1-.264.389.389,0,0,0,.1-.263v-.8a.394.394,0,0,0-.16-.316.392.392,0,0,0,.16-.316v-1.7a.391.391,0,0,0-.073-.227.391.391,0,0,0,.073-.228v-3.235h.512v1.892a.394.394,0,0,0,.165.32.392.392,0,0,0-.165.32v1.7a.392.392,0,0,0,.159.316.394.394,0,0,0-.159.316v.8a.39.39,0,0,0,.1.263.393.393,0,0,0-.1.264v.355a.394.394,0,0,0,.395.395.4.4,0,0,0,.395-.395v-.355a.392.392,0,0,0-.1-.264.39.39,0,0,0,.1-.263v-.8a.4.4,0,0,0-.16-.316.393.393,0,0,0,.16-.316v-1.7a.392.392,0,0,0-.166-.32.393.393,0,0,0,.166-.32v-1.892h.512v3.235a.393.393,0,0,0,.073.228.393.393,0,0,0-.073.227v1.7a.392.392,0,0,0,.16.316.394.394,0,0,0-.16.316v.8a.39.39,0,0,0,.1.263.392.392,0,0,0-.1.264v.355a.4.4,0,0,0,.395.395.4.4,0,0,0,.395-.395V452.7a.392.392,0,0,0-.1-.264.389.389,0,0,0,.1-.263v-.8a.4.4,0,0,0-.16-.316.393.393,0,0,0,.16-.316v-1.7a.39.39,0,0,0-.073-.227.391.391,0,0,0,.073-.228v-3.235h.512v4.577a.391.391,0,0,0,.055.2.388.388,0,0,0-.055.2v1.7a.393.393,0,0,0,.16.316.393.393,0,0,0-.16.315v.8a.393.393,0,0,0,.1.264.392.392,0,0,0-.1.264v.355a.4.4,0,0,0,.395.395.4.4,0,0,0,.395-.395v-.355a.392.392,0,0,0-.1-.264.393.393,0,0,0,.1-.264v-.8a.392.392,0,0,0-.16-.315.392.392,0,0,0,.16-.316v-1.7a.391.391,0,0,0-.055-.2.4.4,0,0,0,.055-.2v-4.577h.512v5.919a.392.392,0,0,0,.07.224.392.392,0,0,0-.07.224v1.7a.393.393,0,0,0,.16.315.393.393,0,0,0-.16.316v.8a.392.392,0,0,0,.1.264.392.392,0,0,0-.1.264v.355a.4.4,0,0,0,.395.395.4.4,0,0,0,.395-.395v-.355a.392.392,0,0,0-.1-.264.392.392,0,0,0,.1-.264v-.8a.392.392,0,0,0-.16-.316.392.392,0,0,0,.16-.315v-1.7a.392.392,0,0,0-.07-.224.392.392,0,0,0,.07-.224v-5.919h.512v4.577a.391.391,0,0,0,.055.2.388.388,0,0,0-.055.2v1.7a.393.393,0,0,0,.16.316.393.393,0,0,0-.16.315v.8a.392.392,0,0,0,.1.264.392.392,0,0,0-.1.264v.355a.4.4,0,0,0,.395.395.4.4,0,0,0,.395-.395v-.355a.392.392,0,0,0-.1-.264.393.393,0,0,0,.1-.264v-.8a.392.392,0,0,0-.16-.315.392.392,0,0,0,.16-.316v-1.7a.391.391,0,0,0-.055-.2.4.4,0,0,0,.055-.2v-4.577h.512v3.235a.393.393,0,0,0,.073.228.393.393,0,0,0-.073.227v1.7a.392.392,0,0,0,.16.316.394.394,0,0,0-.16.316v.8a.39.39,0,0,0,.1.263.393.393,0,0,0-.1.264v.355a.4.4,0,0,0,.395.395.4.4,0,0,0,.395-.395V452.7a.393.393,0,0,0-.1-.264.39.39,0,0,0,.1-.263v-.8a.394.394,0,0,0-.16-.316.392.392,0,0,0,.16-.316v-1.7a.392.392,0,0,0-.073-.227.393.393,0,0,0,.073-.228v-3.235h.512v1.892a.394.394,0,0,0,.165.32.392.392,0,0,0-.165.32v1.7a.392.392,0,0,0,.16.316.394.394,0,0,0-.16.316v.8a.39.39,0,0,0,.1.263.393.393,0,0,0-.1.264v.355a.4.4,0,0,0,.395.395.4.4,0,0,0,.395-.395v-.355a.393.393,0,0,0-.1-.264.391.391,0,0,0,.1-.263v-.8a.394.394,0,0,0-.16-.316.392.392,0,0,0,.16-.316v-1.7a.393.393,0,0,0-.165-.32.394.394,0,0,0,.165-.32v-1.892h.512v3.235a.391.391,0,0,0,.073.228.391.391,0,0,0-.073.227v1.7a.392.392,0,0,0,.16.316.394.394,0,0,0-.16.316v.8a.39.39,0,0,0,.1.263.392.392,0,0,0-.1.264v.355a.4.4,0,0,0,.395.395.4.4,0,0,0,.395-.395V452.7a.392.392,0,0,0-.1-.264.39.39,0,0,0,.1-.263v-.8a.393.393,0,0,0-.16-.316.391.391,0,0,0,.16-.316v-1.7a.392.392,0,0,0-.073-.227.393.393,0,0,0,.073-.228v-3.235h.512v4.577a.4.4,0,0,0,.055.2.391.391,0,0,0-.055.2v1.7a.393.393,0,0,0,.16.316.393.393,0,0,0-.16.315v.8a.392.392,0,0,0,.1.264.392.392,0,0,0-.1.264v.355a.4.4,0,0,0,.395.395.4.4,0,0,0,.395-.395v-.355a.392.392,0,0,0-.1-.264.392.392,0,0,0,.1-.264v-.8a.392.392,0,0,0-.16-.315.392.392,0,0,0,.16-.316v-1.7a.388.388,0,0,0-.055-.2.391.391,0,0,0,.055-.2v-4.577h.512v5.919a.392.392,0,0,0,.07.224.392.392,0,0,0-.07.224v1.7a.393.393,0,0,0,.16.315.393.393,0,0,0-.16.316v.8a.393.393,0,0,0,.1.264.392.392,0,0,0-.1.264v.355a.4.4,0,0,0,.395.395h0a.4.4,0,0,0,.395-.395v-.355a.392.392,0,0,0-.1-.264.392.392,0,0,0,.1-.264v-.8a.392.392,0,0,0-.16-.316.392.392,0,0,0,.16-.315v-1.7a.392.392,0,0,0-.07-.224.392.392,0,0,0,.07-.224v-5.919h.512v4.577a.391.391,0,0,0,.055.2.388.388,0,0,0-.055.2v1.7a.393.393,0,0,0,.16.316.392.392,0,0,0-.16.315v.8a.393.393,0,0,0,.1.264.392.392,0,0,0-.1.264v.355a.4.4,0,0,0,.395.395.4.4,0,0,0,.395-.395v-.355a.393.393,0,0,0-.1-.264.393.393,0,0,0,.1-.264v-.8a.393.393,0,0,0-.16-.315.393.393,0,0,0,.16-.316v-1.7a.388.388,0,0,0-.055-.2.391.391,0,0,0,.055-.2v-4.577h.512v3.235a.39.39,0,0,0,.073.228.39.39,0,0,0-.073.227v1.7a.392.392,0,0,0,.16.316.394.394,0,0,0-.16.316v.8a.39.39,0,0,0,.1.263.392.392,0,0,0-.1.264v.355a.4.4,0,0,0,.395.395.4.4,0,0,0,.395-.395V452.7a.392.392,0,0,0-.1-.264.39.39,0,0,0,.1-.263v-.8a.393.393,0,0,0-.16-.316.391.391,0,0,0,.16-.316v-1.7a.392.392,0,0,0-.073-.227.393.393,0,0,0,.073-.228v-3.235h.512v1.892a.393.393,0,0,0,.165.32.392.392,0,0,0-.165.32v1.7a.392.392,0,0,0,.16.316.393.393,0,0,0-.16.316v.8a.39.39,0,0,0,.1.263.393.393,0,0,0-.1.264v.355a.4.4,0,0,0,.395.395.394.394,0,0,0,.395-.395v-.355a.393.393,0,0,0-.1-.264.391.391,0,0,0,.1-.263v-.8a.394.394,0,0,0-.16-.316.392.392,0,0,0,.16-.316v-1.7a.393.393,0,0,0-.165-.32.394.394,0,0,0,.165-.32v-1.892h.512v3.235a.391.391,0,0,0,.073.228.391.391,0,0,0-.073.227v1.7a.393.393,0,0,0,.16.316.4.4,0,0,0-.16.316v.8a.389.389,0,0,0,.1.263.391.391,0,0,0-.1.264v.355a.4.4,0,0,0,.395.395.4.4,0,0,0,.395-.395V452.7a.392.392,0,0,0-.1-.264.39.39,0,0,0,.1-.263v-.8a.394.394,0,0,0-.16-.316.392.392,0,0,0,.16-.316v-1.7a.392.392,0,0,0-.073-.227.393.393,0,0,0,.073-.228v-3.235h.512v4.577a.4.4,0,0,0,.055.2.391.391,0,0,0-.055.2v1.7a.394.394,0,0,0,.16.316.394.394,0,0,0-.16.315v.8a.391.391,0,0,0,.1.264.391.391,0,0,0-.1.264v.355a.4.4,0,0,0,.395.395.4.4,0,0,0,.395-.395v-.355a.393.393,0,0,0-.1-.264.393.393,0,0,0,.1-.264v-.8a.392.392,0,0,0-.16-.315.393.393,0,0,0,.16-.316v-1.7a.391.391,0,0,0-.055-.2.394.394,0,0,0,.055-.2v-4.577h.512v5.919a.394.394,0,0,0,.069.224.394.394,0,0,0-.069.224v1.7a.393.393,0,0,0,.16.315.393.393,0,0,0-.16.316v.8a.393.393,0,0,0,.1.264.392.392,0,0,0-.1.264v.355a.4.4,0,0,0,.395.395.4.4,0,0,0,.395-.395v-.355a.391.391,0,0,0-.1-.264.391.391,0,0,0,.1-.264v-.8a.393.393,0,0,0-.16-.316.393.393,0,0,0,.16-.315v-1.7a.394.394,0,0,0-.07-.224.394.394,0,0,0,.07-.224v-5.919h.512v4.577a.391.391,0,0,0,.055.2.388.388,0,0,0-.055.2v1.7a.393.393,0,0,0,.159.316.393.393,0,0,0-.159.315v.8a.393.393,0,0,0,.1.264.393.393,0,0,0-.1.264v.355a.4.4,0,0,0,.395.395.4.4,0,0,0,.395-.395v-.355a.391.391,0,0,0-.1-.264.391.391,0,0,0,.1-.264v-.8a.394.394,0,0,0-.16-.315.394.394,0,0,0,.16-.316v-1.7a.392.392,0,0,0-.055-.2.4.4,0,0,0,.055-.2v-4.577h.512v3.235a.393.393,0,0,0,.073.228.392.392,0,0,0-.073.227v1.7a.392.392,0,0,0,.16.316.393.393,0,0,0-.16.316v.8a.39.39,0,0,0,.1.263.392.392,0,0,0-.1.264v.355a.4.4,0,0,0,.395.395.4.4,0,0,0,.395-.395V452.7a.392.392,0,0,0-.1-.264.389.389,0,0,0,.1-.263v-.8a.4.4,0,0,0-.16-.316.393.393,0,0,0,.16-.316v-1.7a.39.39,0,0,0-.073-.227.391.391,0,0,0,.073-.228v-3.235h.512v1.892a.394.394,0,0,0,.165.32.393.393,0,0,0-.165.32v1.7a.392.392,0,0,0,.16.316.394.394,0,0,0-.16.316v.8a.39.39,0,0,0,.1.263.392.392,0,0,0-.1.264v.355a.394.394,0,0,0,.395.395.4.4,0,0,0,.395-.395v-.355a.393.393,0,0,0-.1-.264.391.391,0,0,0,.1-.263v-.8a.393.393,0,0,0-.16-.316.391.391,0,0,0,.16-.316v-1.7a.393.393,0,0,0-.165-.32.394.394,0,0,0,.165-.32v-1.892h.512v3.235a.393.393,0,0,0,.073.228.392.392,0,0,0-.073.227v1.7a.392.392,0,0,0,.16.316.394.394,0,0,0-.16.316v.8a.39.39,0,0,0,.1.263.392.392,0,0,0-.1.264v.355a.4.4,0,0,0,.395.395.4.4,0,0,0,.395-.395V452.7a.392.392,0,0,0-.1-.264.39.39,0,0,0,.1-.263v-.8a.393.393,0,0,0-.16-.316.391.391,0,0,0,.16-.316v-1.7a.39.39,0,0,0-.073-.227.391.391,0,0,0,.073-.228v-3.235h.512v4.577a.391.391,0,0,0,.055.2.388.388,0,0,0-.055.2v1.7a.393.393,0,0,0,.16.316.393.393,0,0,0-.16.315v.8a.392.392,0,0,0,.1.264.392.392,0,0,0-.1.264v.355a.4.4,0,0,0,.395.395.4.4,0,0,0,.395-.395v-.355a.392.392,0,0,0-.1-.264.392.392,0,0,0,.1-.264v-.8a.392.392,0,0,0-.16-.315.392.392,0,0,0,.16-.316v-1.7a.391.391,0,0,0-.055-.2.4.4,0,0,0,.055-.2v-4.577h.512v5.919a.392.392,0,0,0,.07.224.392.392,0,0,0-.07.224v1.7a.392.392,0,0,0,.16.315.393.393,0,0,0-.16.316v.8a.392.392,0,0,0,.1.264.392.392,0,0,0-.1.264v.355a.4.4,0,0,0,.395.395.4.4,0,0,0,.395-.395v-.355a.393.393,0,0,0-.1-.264.393.393,0,0,0,.1-.264v-.8a.393.393,0,0,0-.16-.316.393.393,0,0,0,.16-.315v-1.7a.39.39,0,0,0-.07-.224.39.39,0,0,0,.07-.224v-5.919h.512v4.577a.388.388,0,0,0,.055.2.385.385,0,0,0-.055.2v1.7a.393.393,0,0,0,.16.316.392.392,0,0,0-.16.315v.8a.393.393,0,0,0,.1.264.392.392,0,0,0-.1.264v.355a.4.4,0,0,0,.395.395.4.4,0,0,0,.395-.395v-.355a.393.393,0,0,0-.1-.264.393.393,0,0,0,.1-.264v-.8a.393.393,0,0,0-.16-.315.393.393,0,0,0,.16-.316v-1.7a.388.388,0,0,0-.055-.2.391.391,0,0,0,.055-.2v-4.577h.512v3.235a.39.39,0,0,0,.073.228.39.39,0,0,0-.073.227v1.7a.392.392,0,0,0,.16.316.393.393,0,0,0-.16.316v.8a.39.39,0,0,0,.1.263.393.393,0,0,0-.1.264v.355a.4.4,0,0,0,.395.395.4.4,0,0,0,.395-.395V452.7a.393.393,0,0,0-.1-.264.391.391,0,0,0,.1-.263v-.8a.394.394,0,0,0-.16-.316.392.392,0,0,0,.16-.316v-1.7a.392.392,0,0,0-.073-.227.393.393,0,0,0,.073-.228v-3.235h.512v1.892a.394.394,0,0,0,.165.32.393.393,0,0,0-.165.32v1.7a.392.392,0,0,0,.16.316.394.394,0,0,0-.16.316v.8a.39.39,0,0,0,.1.263.392.392,0,0,0-.1.264v.355a.4.4,0,0,0,.395.395.394.394,0,0,0,.395-.395v-.355a.393.393,0,0,0-.1-.264.39.39,0,0,0,.1-.263v-.8a.393.393,0,0,0-.16-.316.391.391,0,0,0,.16-.316v-1.7a.393.393,0,0,0-.165-.32.4.4,0,0,0,.165-.32v-1.892h.512v3.235a.391.391,0,0,0,.073.228.391.391,0,0,0-.073.227v1.7a.392.392,0,0,0,.16.316.394.394,0,0,0-.16.316v.8a.39.39,0,0,0,.1.263.392.392,0,0,0-.1.264v.355a.4.4,0,0,0,.395.395.4.4,0,0,0,.395-.395V452.7a.392.392,0,0,0-.1-.264.39.39,0,0,0,.1-.263v-.8a.393.393,0,0,0-.16-.316.391.391,0,0,0,.16-.316v-1.7a.392.392,0,0,0-.073-.227.392.392,0,0,0,.073-.228v-3.235h.512v4.577a.4.4,0,0,0,.055.2.391.391,0,0,0-.055.2v1.7a.394.394,0,0,0,.16.316.394.394,0,0,0-.16.315v.8a.381.381,0,0,0,.018.109,1.952,1.952,0,0,0,.382-.939l.045-.345a2.221,2.221,0,0,1,.344-.92v-1.036a.391.391,0,0,0-.055-.2.394.394,0,0,0,.055-.2v-4.577h.512v5.44a2.414,2.414,0,0,1,.789-.429v-5.01h.512v4.577a.391.391,0,0,0,.055.2.39.39,0,0,0-.046.138c.049,0,.1-.007.148-.007l.348,0a1.987,1.987,0,0,0,.272-.019.412.412,0,0,0-.043-.114.4.4,0,0,0,.055-.2v-4.577h.512v3.235a.39.39,0,0,0,.073.228.39.39,0,0,0-.073.227V450.1a1.9,1.9,0,0,0,.789-.637v-.421a.39.39,0,0,0-.073-.227.391.391,0,0,0,.073-.228v-3.235h.512v1.575A2.465,2.465,0,0,1-381,445.9v-.546h.512v.253a2.131,2.131,0,0,1,.447-.132l.342-.06v-.06h.245a1.917,1.917,0,0,0,1.053-.789h-10.411v-.978h10.717a2.006,2.006,0,0,0-.05-.524l-.062-.265h-10.035l1.508-1.508h8.655a2.459,2.459,0,0,1,.55-.789h-13.136v-.316h13.549a2.115,2.115,0,0,1,.349-.167l.327-.121a1.954,1.954,0,0,0,.757-.5h-1.391v-6.351h3.628a1.9,1.9,0,0,0,.185-.789h-6.353a1.531,1.531,0,0,0,.535-.765h5.672a2.006,2.006,0,0,0-.187-.35l-.194-.29a2.4,2.4,0,0,1,.247-2.886v-.021l0,0,.006.006q.073-.078.155-.149l.264-.227a1.966,1.966,0,0,0,.249-.259v-.668a.4.4,0,0,0-.116-.279l-1.141-1.141a.4.4,0,0,0-.061-.05l-.028-.015a.374.374,0,0,0-.04-.021c-.013-.005-.026-.008-.038-.012a.342.342,0,0,0-.035-.01.388.388,0,0,0-.076-.008h-.41v-1.4a7.182,7.182,0,0,0-.923-3.522,1.854,1.854,0,0,0-1.845-1.706.394.394,0,0,0-.388.323.843.843,0,0,0-.2-.123v-.537a.394.394,0,0,0-.395-.395.4.4,0,0,0-.395.395v.537a.735.735,0,0,0-.464.665.714.714,0,0,0,.334.594h-.927a.715.715,0,0,0,.335-.594.735.735,0,0,0-.464-.665v-.537a.4.4,0,0,0-.395-.395.394.394,0,0,0-.395.395v.537a.735.735,0,0,0-.464.665.714.714,0,0,0,.334.594h-.927a.714.714,0,0,0,.335-.594.735.735,0,0,0-.464-.665v-.537a.4.4,0,0,0-.395-.395.394.394,0,0,0-.395.395v.537a.856.856,0,0,0-.2.123.394.394,0,0,0-.387-.323,1.855,1.855,0,0,0-1.846,1.706,7.182,7.182,0,0,0-.923,3.522v1.4h-.409a.4.4,0,0,0-.077.008.313.313,0,0,0-.034.01.4.4,0,0,0-.039.012.4.4,0,0,0-.039.021.222.222,0,0,0-.03.016.39.39,0,0,0-.06.05l-1.141,1.141a.4.4,0,0,0-.116.279v.856l-.628.628a.394.394,0,0,0-.116.279v2.291a.394.394,0,0,0-.368.392.394.394,0,0,0,.368.392v.168l-.714.715h0l-.517.517-.168-.2c-.007-.008-.015-.014-.022-.021s-.013-.015-.021-.021l-.008-.006a.375.375,0,0,0-.035-.025c-.01-.007-.02-.014-.03-.019a.275.275,0,0,0-.036-.015.3.3,0,0,0-.036-.014.359.359,0,0,0-.036-.008l-.038-.006h-.075l-.02,0,.423-.888,0-.01a.37.37,0,0,0,.019-.049s0-.006,0-.009,0-.018.006-.027a.366.366,0,0,0,.006-.045c0-.009,0-.018,0-.027a.442.442,0,0,0,0-.046c0-.008,0-.016,0-.024a.442.442,0,0,0-.013-.053l0-.015a.428.428,0,0,0-.03-.063l-.009-.014a.419.419,0,0,0-.031-.043l-.017-.018a.411.411,0,0,0-.034-.032l-.021-.017-.014-.01-1.476-.949v-.358a.4.4,0,0,0,.237-.361.4.4,0,0,0-.395-.395h-.776V427.17h.121a.4.4,0,0,0,.395-.395.4.4,0,0,0-.395-.395h-.121v-.655h.121a.4.4,0,0,0,.395-.395.4.4,0,0,0-.395-.395h-.121v-.79a.4.4,0,0,0-.116-.279l-.626-.625a.385.385,0,0,0-.176-.1l.949-.95h.192a.394.394,0,0,0,.395-.395.4.4,0,0,0-.395-.395h-.395V415.6l1.007-1.642a.394.394,0,0,0,.008-.4.394.394,0,0,0-.344-.2h-3.512v-4.1a.394.394,0,0,0,.237-.361.4.4,0,0,0-.395-.395h-.263v-.894h.263a.4.4,0,0,0,.395-.395.394.394,0,0,0-.395-.395h-.494l-.91-.91v-.921l.756-.917a.394.394,0,0,0,.09-.251v-.356a.394.394,0,0,0,.295-.38.4.4,0,0,0-.395-.395h-1.578v-1.315a.4.4,0,0,0-.073-.229l-.769-1.081V397.27a.394.394,0,0,0-.395-.395.394.394,0,0,0-.382.3h-1.153l-.447-.991a.4.4,0,0,0-.522-.2.4.4,0,0,0-.2.522l.492,1.088a.393.393,0,0,0,.114.253l.248.548h-1.578V398.3a.864.864,0,0,0,.616-.8.864.864,0,0,0-.616-.8v-.795a.4.4,0,0,0-.395-.395.4.4,0,0,0-.395.395v.795a.864.864,0,0,0-.616.8.864.864,0,0,0,.616.8v.093h-1.917V398.3a.864.864,0,0,0,.616-.8.864.864,0,0,0-.616-.8v-.795a.4.4,0,0,0-.395-.395.4.4,0,0,0-.395.395v.795a.865.865,0,0,0-.616.8.865.865,0,0,0,.616.8v.093h-1.023v-.892a.394.394,0,0,0-.387-.394.945.945,0,0,0-.508-.405v-.795a.4.4,0,0,0-.395-.395h0a.4.4,0,0,0-.395.395v.795a.947.947,0,0,0-.508.405.394.394,0,0,0-.387.394v.892h-1.023V398.3a.864.864,0,0,0,.616-.8.864.864,0,0,0-.616-.8v-.795a.4.4,0,0,0-.395-.395.4.4,0,0,0-.395.395v.795a.865.865,0,0,0-.616.8.865.865,0,0,0,.616.8v.093h-1.918V398.3a.864.864,0,0,0,.616-.8.864.864,0,0,0-.616-.8v-.795a.4.4,0,0,0-.395-.395.4.4,0,0,0-.395.395v.795a.864.864,0,0,0-.616.8.864.864,0,0,0,.616.8v.093h-1.578l.248-.548a.391.391,0,0,0,.114-.253l.492-1.088a.4.4,0,0,0-.2-.522.394.394,0,0,0-.522.2l-.448.991h-1.153a.394.394,0,0,0-.382-.3.394.394,0,0,0-.395.395v2.791l-.769,1.081a.393.393,0,0,0-.073.229v1.315h-1.579a.4.4,0,0,0-.395.395.394.394,0,0,0,.295.38v.356a.394.394,0,0,0,.09.251l.757.917v.921l-.91.91h-.494a.4.4,0,0,0-.395.395.4.4,0,0,0,.395.395h.263v.894h-.263a.4.4,0,0,0-.395.395.394.394,0,0,0,.237.361v4.1H-425.1a.4.4,0,0,0-.344.2.4.4,0,0,0,.008.4l1.007,1.642V421.4h-.395a.4.4,0,0,0-.395.395.4.4,0,0,0,.395.395h.192l.949.95a.388.388,0,0,0-.115.05.377.377,0,0,0-.062.051l-.626.625a.394.394,0,0,0-.115.279v.79h-.121a.4.4,0,0,0-.395.395.4.4,0,0,0,.395.395h.121v.655h-.121a.4.4,0,0,0-.395.395.4.4,0,0,0,.395.395h.121v1.941h-.776a.4.4,0,0,0-.395.395.4.4,0,0,0,.237.361v.358l-1.476.949-.014.01-.022.017a.4.4,0,0,0-.034.032l-.017.018a.417.417,0,0,0-.032.043l-.009.014a.4.4,0,0,0-.03.063l0,.015a.382.382,0,0,0-.013.053c0,.008,0,.016,0,.025a.354.354,0,0,0,0,.045c0,.009,0,.018,0,.028a.424.424,0,0,0,.007.044.251.251,0,0,0,.005.027s0,.006,0,.009a.376.376,0,0,0,.019.049s0,.006,0,.01l.423.888-.019,0h-.075a.351.351,0,0,0-.04.007.331.331,0,0,0-.034.007.292.292,0,0,0-.037.014.271.271,0,0,0-.034.015.339.339,0,0,0-.032.02.315.315,0,0,0-.034.024l-.009.006c-.008.006-.014.015-.021.021s-.015.013-.021.021l-.168.2-.517-.517h0l-.714-.714v-.168a.394.394,0,0,0,.368-.392.394.394,0,0,0-.368-.392v-2.291a.4.4,0,0,0-.116-.279l-.628-.628v-.856a.4.4,0,0,0-.116-.279l-1.141-1.141a.4.4,0,0,0-.061-.05l-.027-.015a.374.374,0,0,0-.04-.021c-.013-.005-.026-.008-.039-.012a.342.342,0,0,0-.035-.01.388.388,0,0,0-.076-.008h-.41v-1.4a7.182,7.182,0,0,0-.923-3.522,1.854,1.854,0,0,0-1.845-1.706.394.394,0,0,0-.388.323.847.847,0,0,0-.2-.123v-.537a.4.4,0,0,0-.395-.395.394.394,0,0,0-.395.395v.537a.735.735,0,0,0-.464.665.714.714,0,0,0,.334.594h-.927a.714.714,0,0,0,.335-.594.735.735,0,0,0-.464-.665v-.537a.4.4,0,0,0-.395-.395.394.394,0,0,0-.395.395v.537a.735.735,0,0,0-.464.665.714.714,0,0,0,.335.594h-.928a.714.714,0,0,0,.335-.594.735.735,0,0,0-.464-.665v-.537a.4.4,0,0,0-.395-.395.4.4,0,0,0-.395.395v.537a.862.862,0,0,0-.2.123.394.394,0,0,0-.387-.323,1.855,1.855,0,0,0-1.846,1.706,7.182,7.182,0,0,0-.923,3.522v1.4h-.409a.4.4,0,0,0-.077.008.315.315,0,0,0-.034.01.4.4,0,0,0-.039.012.4.4,0,0,0-.038.021.247.247,0,0,0-.03.016.39.39,0,0,0-.06.05l-1.141,1.141a.4.4,0,0,0-.116.279v.669a2,2,0,0,0,.249.259l.264.227q.082.072.155.149l.006-.006,0,0v.021a2.4,2.4,0,0,1,.247,2.886l-.194.289a1.983,1.983,0,0,0-.187.35h5.672a1.529,1.529,0,0,0,.535.765h-6.353a1.9,1.9,0,0,0,.185.789h3.628V439.4h-1.391a1.95,1.95,0,0,0,.756.5l.327.121a2.094,2.094,0,0,1,.349.167h13.55v.316h-13.137a2.461,2.461,0,0,1,.551.789h8.655Zm40.21-3.4h-.678v-.551h.095a.394.394,0,0,0,.395-.395.4.4,0,0,0-.395-.395h-.095v-.443h.678Zm1.967,0H-388.2v-1.784h1.177Zm0-2.7v.122H-389.2a.393.393,0,0,0,.021-.122.394.394,0,0,0-.395-.395h-.095v-.96h.095a.4.4,0,0,0,.395-.395.431.431,0,0,0-.005-.054h2.161Zm7.065,1.562a.5.5,0,0,1-.5.5.414.414,0,0,0-.08.008.419.419,0,0,0-.081-.008.5.5,0,0,1-.5-.5v-1.688a.5.5,0,0,1,.5-.5.4.4,0,0,0,.081-.008.4.4,0,0,0,.08.008.5.5,0,0,1,.5.5Zm1.075,1.133h-.958a1.291,1.291,0,0,0,.673-1.133v-1.688a1.292,1.292,0,0,0-1.291-1.291.4.4,0,0,0-.08.008.4.4,0,0,0-.081-.008,1.292,1.292,0,0,0-1.291,1.291v1.688a1.291,1.291,0,0,0,.673,1.133h-.958v-3.04a1.659,1.659,0,0,1,1.656-1.657,1.659,1.659,0,0,1,1.656,1.657Zm1.018-6.351V439.4h-.229v-3.04a2.45,2.45,0,0,0-2.443-2.447h-.006a2.449,2.449,0,0,0-2.442,2.447v3.04h-.229v-6.351h5.348Zm-2.674-5.526a.738.738,0,0,1,.736.737v2.788a.738.738,0,0,1-.736.737.737.737,0,0,1-.736-.737v-2.788A.737.737,0,0,1-380.539,427.52Zm-.736-.6v-1.016h1.471v1.016a1.522,1.522,0,0,0-.733-.19h-.006A1.52,1.52,0,0,0-381.274,426.921Zm2.839,3.782h-.579V427.52h.579Zm4.1,0h-.579v-2.157a.4.4,0,0,0-.395-.395.4.4,0,0,0-.395.395V430.7h-.579v-2.157a.4.4,0,0,0-.395-.395.4.4,0,0,0-.395.395V430.7h-.579V427.52h3.315Zm-.233-4.8.826.825h-5.275v-.825Zm-3.14-6.555a.634.634,0,0,0-.011-.1.389.389,0,0,0,.137.026,1.065,1.065,0,0,1,.987.67h-1.447A.714.714,0,0,0-377.7,419.351Zm-5.8-.075a.391.391,0,0,0,.136-.026.7.7,0,0,0-.011.1.714.714,0,0,0,.335.594h-1.447A1.065,1.065,0,0,1-383.5,419.276Zm-1.242,1.459h8.4a6.391,6.391,0,0,1,.726,2.585h-3.184a1.853,1.853,0,0,0,.123-.66,1.87,1.87,0,0,0-1.864-1.868h-.006a1.87,1.87,0,0,0-1.864,1.868,1.853,1.853,0,0,0,.122.66h-3.184A6.391,6.391,0,0,1-384.741,420.734Zm5.28,1.925a1.079,1.079,0,0,1-1.077,1.078,1.079,1.079,0,0,1-1.077-1.078,1.08,1.08,0,0,1,1.077-1.078A1.08,1.08,0,0,1-379.461,422.66Zm-6.018,1.449h3.765a1.857,1.857,0,0,0,1.172.419h.006a1.857,1.857,0,0,0,1.172-.419h3.765v1.008h-9.88Zm-1.035,1.8h4.45v.825h-5.275Zm4.45,1.614V430.7h-.579V427.52Zm-2.341.631a.4.4,0,0,0-.395.395V430.7h-.579v-2.157a.4.4,0,0,0-.395-.395.4.4,0,0,0-.395.395V430.7h-.579V427.52h3.315V430.7h-.579v-2.157A.4.4,0,0,0-384.4,428.151Zm-3.762.427.628-.628,0,0V430.7h-.631Zm-.116,3.522a.4.4,0,0,0,.116-.279v-.329H-382a1.532,1.532,0,0,0,.535.765h-6.978Zm-.946.946H-384V439.4h-2.231V434.5a.4.4,0,0,0-.395-.395h-3.039v-.466a.386.386,0,0,0-.024-.134Zm-39.931-.946.157.157h-6.978a1.53,1.53,0,0,0,.535-.765h6.17v.329A.4.4,0,0,0-429.159,432.1Zm-6.219-1.4V427.52h.579V430.7Zm3.709-2.552a.4.4,0,0,0-.395.395V430.7h-.579v-2.157a.4.4,0,0,0-.395-.395.4.4,0,0,0-.395.395V430.7h-.579V427.52h3.315V430.7h-.579v-2.157A.4.4,0,0,0-431.669,428.151Zm1.762-.205,0,0,.628.628V430.7h-.631Zm-1.022-2.04.826.825h-5.275v-.825Zm-3.14-6.555a.637.637,0,0,0-.011-.1.389.389,0,0,0,.137.026,1.065,1.065,0,0,1,.987.67H-434.4A.714.714,0,0,0-434.068,419.351Zm-5.8-.075a.391.391,0,0,0,.136-.026.706.706,0,0,0-.011.1.714.714,0,0,0,.335.594h-1.447A1.065,1.065,0,0,1-439.863,419.276Zm-1.242,1.459h8.4a6.39,6.39,0,0,1,.726,2.585h-3.184a1.853,1.853,0,0,0,.123-.66,1.87,1.87,0,0,0-1.863-1.868h-.006a1.87,1.87,0,0,0-1.863,1.868,1.853,1.853,0,0,0,.122.66h-3.184A6.391,6.391,0,0,1-441.105,420.734Zm5.28,1.925a1.079,1.079,0,0,1-1.077,1.078,1.079,1.079,0,0,1-1.077-1.078,1.08,1.08,0,0,1,1.077-1.078A1.08,1.08,0,0,1-435.826,422.66Zm-3.97,8.043h-.579v-2.157a.4.4,0,0,0-.395-.395.4.4,0,0,0-.395.395V430.7h-.579v-2.157a.4.4,0,0,0-.395-.395.4.4,0,0,0-.395.395V430.7h-.579V427.52h3.315Zm1.368-2.447V430.7h-.579V427.52h.579Zm0-1.526H-443.7l.825-.825h4.45Zm-3.415-1.614v-1.008h3.765a1.857,1.857,0,0,0,1.172.419h.006a1.857,1.857,0,0,0,1.172-.419h3.765v1.008h-9.88Zm4.943,1.614h-.006a1.52,1.52,0,0,0-.733.19v-1.016h1.471v1.016A1.522,1.522,0,0,0-436.9,426.731Zm.733,1.526v2.788a.738.738,0,0,1-.736.737.737.737,0,0,1-.736-.737v-2.788a.737.737,0,0,1,.736-.737A.738.738,0,0,1-436.167,428.256Zm-.154,10.008a.5.5,0,0,1-.5.5.415.415,0,0,0-.08.008.418.418,0,0,0-.081-.008.5.5,0,0,1-.5-.5v-1.688a.5.5,0,0,1,.5-.5.4.4,0,0,0,.081-.008.4.4,0,0,0,.08.008.5.5,0,0,1,.5.5Zm1.075,1.133h-.958a1.291,1.291,0,0,0,.673-1.133v-1.688a1.292,1.292,0,0,0-1.291-1.291.4.4,0,0,0-.08.008.4.4,0,0,0-.081-.008,1.292,1.292,0,0,0-1.291,1.291v1.688a1.291,1.291,0,0,0,.673,1.133h-.958v-3.04A1.659,1.659,0,0,1-436.9,434.7a1.659,1.659,0,0,1,1.656,1.657Zm1.018,0h-.229v-3.04a2.45,2.45,0,0,0-2.442-2.447h-.006a2.449,2.449,0,0,0-2.442,2.447v3.04h-.229v-6.351h5.348Zm4.987,0h-1.178v-1.784h1.178Zm1.467-1.34h-.1a.4.4,0,0,0-.395.395.4.4,0,0,0,.395.395h.1v.551h-.678v-1.784h.678Zm0-1.749h-.1a.4.4,0,0,0-.395.395.393.393,0,0,0,.021.122h-2.176V434.9h2.161a.385.385,0,0,0-.006.054.4.4,0,0,0,.395.395h.1Zm0-2.664v.466h-3.039a.4.4,0,0,0-.395.395V439.4h-2.231v-6.351h5.226l.463.463A.392.392,0,0,0-427.774,433.643Zm11.422,10.923h-11.488V443.6h11.9a.372.372,0,0,0,.047,0A2.069,2.069,0,0,1-416.352,444.567Zm13.462,0H-415.4a2.864,2.864,0,0,0,.287-.829h12.79a2.882,2.882,0,0,0,.287.829Zm.83-1.618h-13.32a2.64,2.64,0,0,1-1.48-2.012h16.278A2.652,2.652,0,0,1-402.06,442.949Zm-15.026-2.8h-.372v-7.734h17.474v7.734h-.372a1.1,1.1,0,0,0,.2-.633v-2.089a1.108,1.108,0,0,0-1.107-1.106,1.108,1.108,0,0,0-1.106,1.106v2.089a1.1,1.1,0,0,0,.2.633h-.674a1.1,1.1,0,0,0,.2-.633v-3.432a1.108,1.108,0,0,0-1.106-1.106,1.108,1.108,0,0,0-1.106,1.106v3.432a1.1,1.1,0,0,0,.2.633h-8.133a1.1,1.1,0,0,0,.2-.633v-3.432a1.108,1.108,0,0,0-1.106-1.106,1.108,1.108,0,0,0-1.107,1.106v3.432a1.1,1.1,0,0,0,.2.633h-.674a1.1,1.1,0,0,0,.2-.633v-2.089a1.108,1.108,0,0,0-1.106-1.106,1.108,1.108,0,0,0-1.106,1.106v2.089A1.1,1.1,0,0,0-417.086,440.147Zm-.766-13.766h-.121v-.655h.121a.4.4,0,0,0,.395-.395.394.394,0,0,0-.395-.395h-.121v-.79a.392.392,0,0,0-.076-.231h5.066v.8a.394.394,0,0,0,.023.128,17.393,17.393,0,0,0-4.513,1.826A.393.393,0,0,0-417.853,426.381Zm.043.785v1.945h-.164V427.17h.121A.32.32,0,0,0-417.81,427.166Zm-1.414-.785v-.655h.462v.655Zm.462.789v1.941h-.462V427.17Zm-.462-2.233v-.626l.231-.231.231.231v.626Zm.231-1.81h-3.587l-.934-.934h10.53v.934Zm-1.142,2.6h.121v.655h-.121a.4.4,0,0,0-.395.395.394.394,0,0,0,.395.395h.121v1.941h-2.545V427.17h.121a.4.4,0,0,0,.395-.395.4.4,0,0,0-.395-.395h-.121v-.655h.121a.4.4,0,0,0,.395-.395.4.4,0,0,0-.395-.395h-.121v-.79a.4.4,0,0,0-.076-.231h2.7a.4.4,0,0,0-.076.231v.79h-.121a.394.394,0,0,0-.395.395A.4.4,0,0,0-420.135,425.726Zm5.9-9.137h2.1v3.038a1.1,1.1,0,0,0,.055.343.4.4,0,0,0-.232.229l-.447,1.183c0,.007,0,.014-.005.021h-.218v-.879a.393.393,0,0,0,.352-.391.393.393,0,0,0-.352-.39v-.206a.393.393,0,0,0,.352-.391.393.393,0,0,0-.352-.39v-.419a.4.4,0,0,0-.116-.279l-.427-.427a.394.394,0,0,0-.558,0l-.427.427a.4.4,0,0,0-.116.279v.419a.393.393,0,0,0-.352.39.393.393,0,0,0,.352.391v.206a.393.393,0,0,0-.352.39.393.393,0,0,0,.352.391v.879h-1.164v-.879a.393.393,0,0,0,.352-.391.393.393,0,0,0-.352-.39v-.206a.393.393,0,0,0,.352-.391.393.393,0,0,0-.352-.39v-.419a.4.4,0,0,0-.116-.279l-.427-.427a.394.394,0,0,0-.558,0l-.427.427a.394.394,0,0,0-.116.279v.419a.393.393,0,0,0-.353.39.393.393,0,0,0,.353.391v.206a.393.393,0,0,0-.353.39.394.394,0,0,0,.353.391v.879H-418.6v-.879a.393.393,0,0,0,.352-.391.393.393,0,0,0-.352-.39v-.206a.393.393,0,0,0,.352-.391.393.393,0,0,0-.352-.39v-.419a.4.4,0,0,0-.116-.279l-.427-.427a.394.394,0,0,0-.558,0l-.427.427a.394.394,0,0,0-.116.279v.419a.393.393,0,0,0-.352.39.393.393,0,0,0,.352.391v.206a.393.393,0,0,0-.352.39.393.393,0,0,0,.352.391v.879h-1.11v-.879a.394.394,0,0,0,.352-.391.393.393,0,0,0-.352-.39v-.206a.393.393,0,0,0,.352-.391.393.393,0,0,0-.352-.39v-.419a.394.394,0,0,0-.116-.279l-.427-.427a.394.394,0,0,0-.558,0l-.427.427a.394.394,0,0,0-.116.279v.419a.393.393,0,0,0-.352.39.393.393,0,0,0,.352.391v.206a.393.393,0,0,0-.352.39.393.393,0,0,0,.352.391v.879h-.642v-5.525h9.011v.316A.4.4,0,0,0-414.233,416.589Zm.46-4.992v.2h-.065v-.2Zm-.065-.789v-.251l.033-.033.032.033v.251Zm.065,1.776v.77h-.065v-.77Zm1.592,1.559V415.8h-1.657v-1.657Zm6.411,6.592.149.393h-1.107v-.393Zm-.958-1.107V416.2a.318.318,0,0,1,.317-.318.317.317,0,0,1,.317.318v3.431a.317.317,0,0,1-.317.318A.318.318,0,0,1-406.728,419.628Zm.781-7.221a.318.318,0,0,1-.317.318.317.317,0,0,1-.317-.318v-3.431a.317.317,0,0,1,.317-.318.318.318,0,0,1,.317.318Zm-.1,1.736v1.009a1.1,1.1,0,0,0-.361-.062,1.108,1.108,0,0,0-1.107,1.107v.565a1.973,1.973,0,0,0-1.2-.409h0a1.971,1.971,0,0,0-1.2.409V416.2a1.108,1.108,0,0,0-1.106-1.107,1.1,1.1,0,0,0-.361.062v-1.009h5.341Zm-2.669,5.8h-1.2v-1.607a1.2,1.2,0,0,1,1.2-1.2h0a1.2,1.2,0,0,1,1.2,1.2v1.607Zm1.2.789v.669h-2.394v-.669h2.394Zm-3.189-4.538v3.431a.318.318,0,0,1-.317.318.318.318,0,0,1-.317-.318V416.2a.318.318,0,0,1,.317-.318A.318.318,0,0,1-410.713,416.2Zm-.146-3.79a.318.318,0,0,1-.317.318.318.318,0,0,1-.318-.318v-3.431a.318.318,0,0,1,.318-.318.318.318,0,0,1,.317.318Zm.146,8.328v.393h-1.107l.149-.393Zm1.991,1.458h3.475v.934h-6.948v-.934Zm5.119-10.6v.2h-.065v-.2Zm-.065-.789v-.251l.033-.033.032.033v.251Zm.065,1.776v.77h-.065v-.77Zm0,1.559V415.8h-1.657v-1.657Zm.395,2.447a.394.394,0,0,0,.395-.395v-.316h9.011V421.4h-.642v-.879a.393.393,0,0,0,.352-.391.393.393,0,0,0-.352-.39v-.206a.393.393,0,0,0,.352-.391.393.393,0,0,0-.352-.39v-.419a.4.4,0,0,0-.116-.279l-.427-.427a.394.394,0,0,0-.558,0l-.427.427a.4.4,0,0,0-.116.279v.419a.393.393,0,0,0-.352.39.393.393,0,0,0,.352.391v.206a.393.393,0,0,0-.352.39.393.393,0,0,0,.352.391v.879h-1.11v-.879a.393.393,0,0,0,.352-.391.393.393,0,0,0-.352-.39v-.206a.393.393,0,0,0,.352-.391.393.393,0,0,0-.352-.39v-.419a.4.4,0,0,0-.116-.279l-.427-.427a.394.394,0,0,0-.558,0l-.427.427a.394.394,0,0,0-.116.279v.419a.393.393,0,0,0-.352.39.393.393,0,0,0,.352.391v.206a.393.393,0,0,0-.352.39.393.393,0,0,0,.352.391v.879h-1.164v-.879a.393.393,0,0,0,.352-.391.393.393,0,0,0-.352-.39v-.206a.393.393,0,0,0,.352-.391.393.393,0,0,0-.352-.39v-.419a.394.394,0,0,0-.116-.279l-.427-.427a.394.394,0,0,0-.558,0l-.427.427a.394.394,0,0,0-.116.279v.419a.393.393,0,0,0-.352.39.393.393,0,0,0,.352.391v.206a.393.393,0,0,0-.352.39.394.394,0,0,0,.352.391v.879h-1.164v-.879a.393.393,0,0,0,.352-.391.393.393,0,0,0-.352-.39v-.206a.393.393,0,0,0,.352-.391.393.393,0,0,0-.352-.39v-.419a.4.4,0,0,0-.116-.279l-.427-.427a.394.394,0,0,0-.558,0l-.427.427a.4.4,0,0,0-.116.279v.419a.393.393,0,0,0-.352.39.393.393,0,0,0,.352.391v.206a.393.393,0,0,0-.352.39.393.393,0,0,0,.352.391v.879h-.217c0-.007,0-.014-.005-.021l-.447-1.183a.4.4,0,0,0-.231-.229,1.11,1.11,0,0,0,.055-.343v-3.038Zm9.115,9.792v-.655h.462v.655Zm.462.789v1.941h-.462V427.17Zm-1.229-4.044h-9.6v-.934h10.531Zm-.143,2.6h.121v.655H-395a.4.4,0,0,0-.395.395.4.4,0,0,0,.395.395h.121v1.941h-2.544V427.17h.121a.394.394,0,0,0,.395-.395.4.4,0,0,0-.395-.395h-.121v-.655h.121a.4.4,0,0,0,.395-.395.394.394,0,0,0-.395-.395h-.121v-.79a.392.392,0,0,0-.076-.231h2.7a.4.4,0,0,0-.076.231v.79H-395a.4.4,0,0,0-.395.395A.4.4,0,0,0-395,425.726Zm-3.674.655v-.655h.462v.655Zm.462.789v1.941h-.462V427.17Zm-.462-2.233v-.626l.23-.231.231.231v.626Zm-.91.789h.121v.655h-.121a.393.393,0,0,0-.379.29,17.392,17.392,0,0,0-4.513-1.826.387.387,0,0,0,.023-.128v-.8h5.066a.394.394,0,0,0-.076.231v.79h-.121a.4.4,0,0,0-.395.395A.4.4,0,0,0-399.589,425.726Zm.121,1.444v1.941h-.164v-1.945a.31.31,0,0,0,.042,0Zm-9.254-2.058h0a16.678,16.678,0,0,1,8.3,2.206v2.51a17.482,17.482,0,0,0-8.3-2.092h0a17.479,17.479,0,0,0-8.3,2.092v-2.51A16.675,16.675,0,0,1-408.722,425.113Zm-3.473-.442v-.755h6.948v.755a17.536,17.536,0,0,0-3.473-.348h0A17.541,17.541,0,0,0-412.195,424.671Zm8.591-5.129v.2h-.065v-.2Zm-.065-.789V418.5l.033-.033.032.033v.251Zm.065,1.776v.874h-.065v-.874Zm2.808-.987v.2h-.065v-.2Zm-.065-.789V418.5l.033-.033.033.033v.251Zm.065,1.776v.874h-.065v-.874Zm2.808-.987v.2h-.065v-.2Zm-.065-.789V418.5l.033-.033.033.033v.251Zm.065,1.776v.874h-.065v-.874Zm2.754-.987v.2h-.065v-.2Zm-.065-.789V418.5l.033-.033.033.033v.251Zm.065,1.776v.874h-.065v-.874Zm-18.6-.789v-.2h.065v.2Zm.065.789v.874h-.065v-.874Zm-.065-1.776V418.5l.033-.033.032.033v.251Zm-2.807.987v-.2h.065v.2Zm.065.789v.874h-.065v-.874Zm-.065-1.776V418.5l.032-.033.033.033v.251Zm-2.808.987v-.2h.065v.2Zm.065.789v.874h-.065v-.874Zm-.065-1.776V418.5l.033-.033.033.033v.251Zm-2.754.987v-.2h.065v.2Zm.065.789v.874h-.065v-.874Zm-.065-1.776V418.5l.033-.033.033.033v.251Zm5.1,12.03a16.675,16.675,0,0,1,8.384-2.257h0a16.676,16.676,0,0,1,8.385,2.257,6.794,6.794,0,0,0,.455.84h-17.681A6.764,6.764,0,0,0-417.106,430.784Zm16.162,6.642v2.089a.317.317,0,0,1-.317.317.317.317,0,0,1-.317-.317v-2.089a.318.318,0,0,1,.317-.317A.318.318,0,0,1-400.944,437.425Zm-2.486-1.343v3.432a.317.317,0,0,1-.317.317.317.317,0,0,1-.317-.317v-3.432a.317.317,0,0,1,.317-.317A.317.317,0,0,1-403.431,436.083Zm-9.946,0v3.432a.317.317,0,0,1-.317.317.318.318,0,0,1-.318-.317v-3.432a.318.318,0,0,1,.318-.317A.317.317,0,0,1-413.376,436.083Zm-2.487,1.343v2.089a.317.317,0,0,1-.317.317.317.317,0,0,1-.317-.317v-2.089a.318.318,0,0,1,.317-.317A.317.317,0,0,1-415.863,437.425Zm26.262,7.141h-11.489a2.042,2.042,0,0,1-.462-.972.355.355,0,0,0,.048,0h11.9Zm.769-3.275h.981l-1.508,1.508h-.74a.407.407,0,0,0-.09.011H-400.6a3.453,3.453,0,0,0,.751-1.519Zm-9.289-5.944h.1v.96h-.1a.4.4,0,0,0-.395.395.4.4,0,0,0,.395.395h.1v.96h-.1a.4.4,0,0,0-.395.395.4.4,0,0,0,.395.395h.1v.551h-1.169v-5.84h1.179a.416.416,0,0,0-.01.086v.915h-.1a.4.4,0,0,0-.395.395A.4.4,0,0,0-398.121,435.347Zm6.639,4.839h.026v.316h-7.739v-.316Zm-5.357-4.839v.96h-.4v-.96Zm-.4-.789v-.769l.2-.232.2.232v.769Zm.4,2.539v.96h-.4v-.96Zm0,1.749v.551h-.4v-.551Zm5.1-3.5h.1v.96h-.1a.4.4,0,0,0-.395.395.4.4,0,0,0,.395.395h.1v.96h-.1a.4.4,0,0,0-.395.395.4.4,0,0,0,.395.395h.1v.551h-4.405v-.551h.1a.4.4,0,0,0,.395-.395.4.4,0,0,0-.395-.395h-.1v-.96h.1a.4.4,0,0,0,.395-.395.4.4,0,0,0-.395-.395h-.1v-.96h.1a.4.4,0,0,0,.395-.395.4.4,0,0,0-.395-.395h-.1v-.915a.4.4,0,0,0-.011-.086h4.426a.416.416,0,0,0-.01.086v.915h-.1a.4.4,0,0,0-.395.395A.4.4,0,0,0-391.739,435.347Zm.884-1.558.2-.232.2.232v.769h-.4Zm0,1.558h.4v.96h-.4Zm0,1.75h.4v.96h-.4Zm0,1.749h.4v.551h-.4Zm-.417-6.946-.414.868h-4.99l-.063-.073c-.007-.008-.015-.014-.022-.021s-.013-.015-.021-.021l-.008-.006a.367.367,0,0,0-.035-.025c-.01-.007-.02-.014-.03-.019a.324.324,0,0,0-.036-.015.247.247,0,0,0-.036-.014.345.345,0,0,0-.036-.008l-.039-.006h-.075l-.039.006c-.012,0-.024,0-.036.008a.264.264,0,0,0-.036.014.344.344,0,0,0-.035.015l-.031.019a.379.379,0,0,0-.035.025l-.008.006c-.008.006-.013.014-.02.021s-.015.013-.022.021l-.063.073h-1.795v-.355h.17a.4.4,0,0,0,.395-.395.4.4,0,0,0-.018-.118Zm-1.427-2v.54a.4.4,0,0,0,.181.332l.527.339h-7.28a6.131,6.131,0,0,1-.361-.687V429.9Zm-.934-5.59v.626h-.462v-.626l.231-.231Zm-2.618-10.168h3.2l-.581.947h-9.185v-.947h6.564ZM-400.8,411.6v.2h-.065v-.2Zm-.065-.789v-.251l.033-.033.033.033v.251Zm.065,1.776v.77h-.065v-.77Zm2.808-.987v.2h-.065v-.2Zm-.065-.789v-.251l.033-.033.033.033v.251Zm.065,1.776v.77h-.065v-.77Zm1.344.77h-.554v-.774a.393.393,0,0,0,.352-.391.393.393,0,0,0-.352-.39v-.206a.393.393,0,0,0,.352-.39.393.393,0,0,0-.352-.39v-.419a.4.4,0,0,0-.116-.279l-.427-.427a.394.394,0,0,0-.558,0l-.427.427a.394.394,0,0,0-.116.279v.419a.393.393,0,0,0-.352.39.393.393,0,0,0,.352.39v.206a.393.393,0,0,0-.352.39.393.393,0,0,0,.352.391v.774h-1.164v-.774a.393.393,0,0,0,.352-.391.393.393,0,0,0-.352-.39v-.206a.393.393,0,0,0,.352-.39.393.393,0,0,0-.352-.39v-.419a.394.394,0,0,0-.116-.279l-.427-.427a.394.394,0,0,0-.558,0l-.427.427a.394.394,0,0,0-.116.279v.419a.394.394,0,0,0-.352.39.393.393,0,0,0,.352.39v.206a.394.394,0,0,0-.352.39.393.393,0,0,0,.352.391v.774h-1.164v-.774a.393.393,0,0,0,.352-.391.393.393,0,0,0-.352-.39v-.206a.393.393,0,0,0,.352-.39.393.393,0,0,0-.352-.39v-.419a.4.4,0,0,0-.116-.279l-.427-.427a.394.394,0,0,0-.558,0l-.427.427a.4.4,0,0,0-.116.279v.419a.393.393,0,0,0-.352.39.393.393,0,0,0,.352.39v.206a.393.393,0,0,0-.352.39.393.393,0,0,0,.352.391v.774H-405.7a1.105,1.105,0,0,0,.537-.947v-3.117h8.514Zm-.715-9.878v.2l-.638.773h-9.15v-.073l.9-.9Zm-9.141,2.163h-.655a.382.382,0,0,0,.008-.079v-.322h8.941v.832a.4.4,0,0,0,.116.279l.468.468h-8.482v-.783A.4.4,0,0,0-406.5,405.638Zm0-3.5.544.543h-.7A3.17,3.17,0,0,0-406.5,402.143Zm-.06-1.561h.6l-.5.5A3.26,3.26,0,0,0-406.556,400.582Zm.667,1.052.889-.889.889.889-.889.889Zm2.336.558.494.494h-.988Zm-.494-1.61h.988l-.494.494Zm1.052,1.052.889-.889.889.889-.889.889Zm2.335.558.495.494h-.989Zm-.494-1.61h.989l-.495.494Zm1.731.374.385.541v1.19h-.011l-1.052-1.052Zm-.457-2.992v.434h-.587l-.2-.434Zm-3.426-.534a.292.292,0,0,1,.217.076.3.3,0,0,1-.217.076.293.293,0,0,1-.217-.076A.29.29,0,0,1-403.306,397.429Zm-2.707,0a.292.292,0,0,1,.217.076.294.294,0,0,1-.217.076.293.293,0,0,1-.217-.076A.29.29,0,0,1-406.012,397.429Zm5.289,1.758h.843v.605h-7.026a2.757,2.757,0,0,0-.513-.605Zm-8.5-1.287h1v1.366h-1Zm-.519,2.133a.4.4,0,0,0,.125.022h1.791a.393.393,0,0,0,.125-.022,2.357,2.357,0,0,1,.48,1.456,2.434,2.434,0,0,1-.285,1.157.416.416,0,0,0-.017.039h-.277a1.044,1.044,0,0,0,.132-.509v-1.07a1.053,1.053,0,0,0-1.052-1.052h0a1.053,1.053,0,0,0-1.052,1.052v1.07a1.047,1.047,0,0,0,.132.509h-.277a.342.342,0,0,0-.016-.039,2.434,2.434,0,0,1-.285-1.157A2.352,2.352,0,0,1-409.741,400.034Zm1.812,5.6h-1.584a.378.378,0,0,0,.008-.079v-1.348a.4.4,0,0,0-.116-.279l-.458-.457h2.714l-.457.457a.394.394,0,0,0-.116.279v1.348A.38.38,0,0,0-407.929,405.638Zm-1.056-3.461v-1.07a.263.263,0,0,1,.263-.263h0a.263.263,0,0,1,.263.263v1.07a.263.263,0,0,1-.263.263h0A.263.263,0,0,1-408.985,402.177Zm-2.444-4.748a.293.293,0,0,1,.217.076.294.294,0,0,1-.217.076.293.293,0,0,1-.217-.076A.29.29,0,0,1-411.429,397.429Zm-2.707,0a.291.291,0,0,1,.217.076.292.292,0,0,1-.217.076.294.294,0,0,1-.217-.076A.291.291,0,0,1-414.136,397.429Zm-3.426.534h.783l-.2.434h-.587Zm0,1.223h7.539a2.759,2.759,0,0,0-.513.605h-7.026Zm7.275,6.452h-.655a.4.4,0,0,0-.395.395v.783h-8.482l.468-.468a.394.394,0,0,0,.116-.279v-.832h8.941v.322A.4.4,0,0,0-410.286,405.638Zm-.659-3.5a3.207,3.207,0,0,0,.159.543h-.7Zm-.543-1.561h.6a3.23,3.23,0,0,0-.1.5Zm-.064,1.052-.889.889-.889-.889.889-.889Zm-2.335-.558-.494-.494h.988Zm.494,1.61h-.988l.494-.494Zm-1.052-1.052-.889.889-.889-.889.889-.889Zm-2.336-.558-.494-.494h.988Zm.494,1.61h-.988l.494-.494Zm-2.115-1.19.385-.541.678.678-1.052,1.052h-.011Zm-1.679,2.179v-.2h8.888l.9.9v.073h-9.15Zm-.295,3.93h9.435a.4.4,0,0,0,.395-.395v-.783h3.651v.783a.4.4,0,0,0,.395.395h9.435v.894h-8.2a1.107,1.107,0,0,0-1-.631,1.108,1.108,0,0,0-1.106,1.107v3.431a1.1,1.1,0,0,0,.537.947h-3.774a1.106,1.106,0,0,0,.537-.947v-3.431a1.108,1.108,0,0,0-1.106-1.107,1.107,1.107,0,0,0-1,.631h-8.2Zm-.421,1.683h8.514v3.117a1.106,1.106,0,0,0,.537.947h-1.238v-.774a.393.393,0,0,0,.352-.391.393.393,0,0,0-.352-.39v-.206a.393.393,0,0,0,.352-.39.393.393,0,0,0-.352-.39v-.419a.4.4,0,0,0-.116-.279l-.427-.427a.394.394,0,0,0-.558,0l-.427.427a.4.4,0,0,0-.116.279v.419a.393.393,0,0,0-.352.39.393.393,0,0,0,.352.39v.206a.393.393,0,0,0-.352.39.393.393,0,0,0,.352.391v.774h-1.164v-.774a.393.393,0,0,0,.352-.391.393.393,0,0,0-.352-.39v-.206a.393.393,0,0,0,.352-.39.393.393,0,0,0-.352-.39v-.419a.4.4,0,0,0-.116-.279l-.427-.427a.394.394,0,0,0-.558,0l-.427.427a.394.394,0,0,0-.116.279v.419a.394.394,0,0,0-.353.39.393.393,0,0,0,.353.39v.206a.394.394,0,0,0-.353.39.393.393,0,0,0,.353.391v.774H-418.6v-.774a.393.393,0,0,0,.352-.391.393.393,0,0,0-.352-.39v-.206a.393.393,0,0,0,.352-.39.393.393,0,0,0-.352-.39v-.419a.4.4,0,0,0-.116-.279l-.427-.427a.394.394,0,0,0-.558,0l-.427.427a.394.394,0,0,0-.116.279v.419a.393.393,0,0,0-.352.39.393.393,0,0,0,.352.39v.206a.393.393,0,0,0-.352.39.393.393,0,0,0,.352.391v.774h-.555Zm4.152,2.506v-.2h.065v.2Zm.065.789v.77h-.065v-.77Zm-.065-1.776v-.251l.032-.033.033.033v.251Zm-2.808.987v-.2h.065v.2Zm.065.789v.77h-.065v-.77Zm-.065-1.776v-.251l.033-.033.033.033v.251Zm-4.359,4.282-.581-.947h9.766v.947Zm0,9.221.231-.231.231.231v.626h-.462Zm0,1.416h.462v.655h-.462Zm0,1.444h.462v1.941h-.462Zm-1.115,3.6a.394.394,0,0,0,.181-.332v-.54h6.933v.524a6.281,6.281,0,0,1-.361.687h-7.281Zm6.131,1.128a.4.4,0,0,0-.018.118.4.4,0,0,0,.395.395h.17v.355h-1.794l-.063-.073c-.007-.008-.015-.014-.022-.021s-.013-.015-.02-.021l-.008-.006a.414.414,0,0,0-.037-.026l-.029-.018a.357.357,0,0,0-.039-.017.315.315,0,0,0-.033-.012l-.039-.009-.035-.006h-.075a.353.353,0,0,0-.04.007.333.333,0,0,0-.034.007.3.3,0,0,0-.037.014.274.274,0,0,0-.035.015c-.011.005-.021.013-.031.02a.349.349,0,0,0-.034.024l-.008.006c-.008.006-.014.015-.021.021s-.015.013-.021.021l-.063.073h-4.99l-.413-.868Zm-2.694,3.448h.1v.96h-.1a.394.394,0,0,0-.395.395.4.4,0,0,0,.395.395h.1v.96h-.1a.4.4,0,0,0-.395.395.394.394,0,0,0,.395.395h.1v.551H-425.8v-.551h.1a.394.394,0,0,0,.395-.395.4.4,0,0,0-.395-.395h-.1v-.96h.1a.4.4,0,0,0,.395-.395.394.394,0,0,0-.395-.395h-.1v-.96h.1a.4.4,0,0,0,.395-.395.394.394,0,0,0-.395-.395h-.1v-.915a.379.379,0,0,0-.011-.086h4.427a.379.379,0,0,0-.011.086v.915h-.1a.394.394,0,0,0-.395.395A.4.4,0,0,0-421.487,435.347Zm3.24,4.839v.316h-7.739v-.316h7.739Zm-1.958-4.839v.96h-.4v-.96Zm-.4-.789v-.769l.2-.232.2.232v.769Zm.4,2.539v.96h-.4v-.96Zm0,1.749v.551h-.4v-.551Zm.789.551v-.551h.1a.4.4,0,0,0,.395-.395.4.4,0,0,0-.395-.395h-.1v-.96h.1a.4.4,0,0,0,.395-.395.4.4,0,0,0-.395-.395h-.1v-.96h.1a.4.4,0,0,0,.395-.395.4.4,0,0,0-.395-.395h-.1v-.915a.377.377,0,0,0-.011-.086h1.179v5.84Zm-7.57-4.893v-.715l.2-.232.2.232v.769h-.4Zm0,.843h.4v.96h-.4Zm0,1.872V437.1h.4v.96h-.4Zm0,2.178v-.551h.4v.551Zm-1.625,1.894H-417.6a3.452,3.452,0,0,0,.751,1.519h-10.409a.407.407,0,0,0-.09-.011h-.74l-1.508-1.508Z" transform="translate(444.577 -395.517)"/></g></g></svg>