<svg xmlns="http://www.w3.org/2000/svg" width="62" height="62" viewBox="0 0 62 62">
  <g id="Chat" transform="translate(4.402 6.386)">
    <g id="Group_481" data-name="Group 481" transform="translate(0)">
      <path id="Path_1336" data-name="Path 1336" d="M513.07,2893h-32.2a.869.869,0,0,0-.616,1.484l8.448,8.448v12.694a5.228,5.228,0,0,0,5.222,5.221H513.07a5.228,5.228,0,0,0,5.222-5.221v-17.406A5.227,5.227,0,0,0,513.07,2893Zm-2.611,20.886H496.535a.87.87,0,1,1,0-1.74h13.924a.87.87,0,1,1,0,1.74Zm0-6.962H496.535a.87.87,0,0,1,0-1.741h13.924a.87.87,0,0,1,0,1.741Zm0-6.962H496.535a.87.87,0,1,1,0-1.74h13.924a.87.87,0,0,1,0,1.74Z" transform="translate(-480 -2872.114)" fill="#151515"/>
      <path id="Path_1337" data-name="Path 1337" d="M526.966,2881.536a.869.869,0,0,0-.8-.536h-33.94a5.227,5.227,0,0,0-5.222,5.222v13.054a.871.871,0,0,0,.87.87h20.016a6.972,6.972,0,0,1,6.96,6.946.868.868,0,0,0,.482.776.874.874,0,0,0,.914-.085,5.178,5.178,0,0,0,2.087-4.156v-12.693l8.447-8.448A.873.873,0,0,0,526.966,2881.536ZM510.5,2896.664H494.832a.87.87,0,1,1,0-1.74H510.5a.87.87,0,1,1,0,1.74Zm0-6.962H494.832a.87.87,0,0,1,0-1.741H510.5a.87.87,0,0,1,0,1.741Z" transform="translate(-474.817 -2881)" fill="#151515"/>
    </g>
    <rect id="Rectangle_188" data-name="Rectangle 188" width="62" height="62" transform="translate(-4.402 -6.386)" fill="none"/>
  </g>
</svg>
