<svg xmlns="http://www.w3.org/2000/svg" width="73.36" height="73.291" viewBox="0 0 73.36 73.291"><defs><style>.a{fill:#151515;}</style></defs><g transform="translate(353.089 -716.304)"><path class="a" d="M-313.325,789.595a2.337,2.337,0,0,1-1.548-.593l-.261-.231a1.916,1.916,0,0,0-1.275-.462,1.916,1.916,0,0,0-1.275.462l-.261.231a2.337,2.337,0,0,1-1.549.593,2.32,2.32,0,0,1-1.829-.9l-.215-.274a1.966,1.966,0,0,0-1.544-.715,1.861,1.861,0,0,0-.966.26l-.3.181a2.354,2.354,0,0,1-1.218.344,2.321,2.321,0,0,1-2.05-1.246l-.163-.308a2.007,2.007,0,0,0-1.746-1.012,1.784,1.784,0,0,0-.642.116l-.325.124a2.362,2.362,0,0,1-.848.158,2.315,2.315,0,0,1-2.207-1.629l-.105-.332a2.018,2.018,0,0,0-1.869-1.337,1.72,1.72,0,0,0-.321.03l-.342.064a2.4,2.4,0,0,1-.445.042,2.3,2.3,0,0,1-2.3-2.035l-.044-.346a2.006,2.006,0,0,0-1.91-1.678l-.359,0a2.323,2.323,0,0,1-1.711-.72,2.313,2.313,0,0,1-.633-1.731l.017-.347a2,2,0,0,0-1.59-1.994l-.343-.06a2.315,2.315,0,0,1-1.551-1.008,2.315,2.315,0,0,1-.317-1.822l.08-.339a2,2,0,0,0-1.208-2.246l-.327-.12a2.314,2.314,0,0,1-1.346-1.269,2.315,2.315,0,0,1,.013-1.849l.139-.32a2,2,0,0,0-.788-2.425l-.3-.177a2.315,2.315,0,0,1-1.1-1.489,2.315,2.315,0,0,1,.343-1.817l.194-.289a2,2,0,0,0-.342-2.528l-.264-.227a2.316,2.316,0,0,1-.814-1.661,2.317,2.317,0,0,1,.662-1.727l.242-.25a2,2,0,0,0,.115-2.548l-.219-.271a2.316,2.316,0,0,1-.5-1.78,2.313,2.313,0,0,1,.96-1.581l.283-.2a2,2,0,0,0,.568-2.487l-.167-.306a2.316,2.316,0,0,1-.179-1.841,2.314,2.314,0,0,1,1.227-1.384l.314-.149a2,2,0,0,0,1-2.345l-.11-.331a2.314,2.314,0,0,1,.153-1.843,2.315,2.315,0,0,1,1.454-1.143l.336-.09a2,2,0,0,0,1.405-2.129l-.049-.345a2.311,2.311,0,0,1,.479-1.786,2.314,2.314,0,0,1,1.635-.865l.347-.029a2,2,0,0,0,1.763-1.844l.014-.348a2.32,2.32,0,0,1,2.32-2.242c.077,0,.156,0,.233.011l.347.033a1.99,1.99,0,0,0,2.064-1.5l.075-.34a2.31,2.31,0,0,1,2.261-1.83,2.392,2.392,0,0,1,.65.091l.335.095a1.777,1.777,0,0,0,.48.065,2,2,0,0,0,1.818-1.172l.135-.321A2.32,2.32,0,0,1-328.5,718.5a2.352,2.352,0,0,1,1.038.243l.313.153a1.84,1.84,0,0,0,.8.181,1.976,1.976,0,0,0,1.654-.859l.19-.292a2.321,2.321,0,0,1,1.947-1.067,2.327,2.327,0,0,1,1.389.462l.28.206a1.9,1.9,0,0,0,1.124.354,1.943,1.943,0,0,0,1.416-.583l.239-.253a2.316,2.316,0,0,1,1.7-.739,2.316,2.316,0,0,1,1.7.739l.239.253a1.943,1.943,0,0,0,1.416.583,1.9,1.9,0,0,0,1.124-.354l.28-.206a2.328,2.328,0,0,1,1.39-.462,2.321,2.321,0,0,1,1.947,1.067l.19.292a1.977,1.977,0,0,0,1.654.859,1.838,1.838,0,0,0,.8-.181l.313-.153a2.352,2.352,0,0,1,1.038-.243,2.32,2.32,0,0,1,2.137,1.435l.135.321a2,2,0,0,0,1.818,1.172,1.771,1.771,0,0,0,.48-.065l.335-.095a2.4,2.4,0,0,1,.651-.091,2.31,2.31,0,0,1,2.261,1.83l.075.34a1.992,1.992,0,0,0,2.064,1.5l.347-.033c.077-.007.156-.011.233-.011a2.321,2.321,0,0,1,2.321,2.242l.013.349a2,2,0,0,0,1.763,1.843l.347.029a2.313,2.313,0,0,1,1.635.865,2.314,2.314,0,0,1,.479,1.786l-.049.345a2,2,0,0,0,1.4,2.129l.336.09a2.314,2.314,0,0,1,1.455,1.143,2.315,2.315,0,0,1,.152,1.844l-.109.331a2,2,0,0,0,1,2.345l.314.149a2.314,2.314,0,0,1,1.227,1.384,2.313,2.313,0,0,1-.179,1.841l-.167.306a2,2,0,0,0,.568,2.487l.283.2a2.317,2.317,0,0,1,.96,1.581,2.315,2.315,0,0,1-.505,1.779l-.219.271a2,2,0,0,0,.114,2.548l.242.25a2.315,2.315,0,0,1,.662,1.727,2.314,2.314,0,0,1-.814,1.661l-.264.227a2,2,0,0,0-.342,2.527l.194.29a2.313,2.313,0,0,1,.343,1.818,2.314,2.314,0,0,1-1.1,1.488l-.3.177a2,2,0,0,0-.788,2.426l.139.32a2.313,2.313,0,0,1,.013,1.85A2.315,2.315,0,0,1-284,768.717l-.327.12a2,2,0,0,0-1.208,2.246l.08.339a2.314,2.314,0,0,1-.317,1.822,2.316,2.316,0,0,1-1.551,1.008l-.343.06a2,2,0,0,0-1.59,1.994l.018.348a2.318,2.318,0,0,1-.633,1.731,2.315,2.315,0,0,1-1.7.72l-.364,0a1.982,1.982,0,0,0-1.921,1.678l-.044.345a2.3,2.3,0,0,1-2.3,2.035,2.407,2.407,0,0,1-.445-.042l-.342-.064a1.724,1.724,0,0,0-.321-.03,2.017,2.017,0,0,0-1.869,1.338l-.105.331a2.317,2.317,0,0,1-2.208,1.63,2.362,2.362,0,0,1-.848-.158l-.325-.124a1.785,1.785,0,0,0-.641-.116,2.008,2.008,0,0,0-1.747,1.012l-.163.308a2.323,2.323,0,0,1-2.051,1.246,2.351,2.351,0,0,1-1.218-.344l-.3-.18a1.862,1.862,0,0,0-.967-.26,1.965,1.965,0,0,0-1.543.715l-.215.274A2.321,2.321,0,0,1-313.325,789.595Zm-3.084-2.075a2.7,2.7,0,0,1,1.8.66l.26.23a1.552,1.552,0,0,0,1.026.4,1.534,1.534,0,0,0,1.209-.6l.215-.273a2.758,2.758,0,0,1,2.163-1.017,2.653,2.653,0,0,1,1.376.374l.3.181a1.567,1.567,0,0,0,.81.23,1.536,1.536,0,0,0,1.353-.827l.163-.308a2.778,2.778,0,0,1,2.444-1.432,2.563,2.563,0,0,1,.923.168l.326.124a1.579,1.579,0,0,0,.566.106,1.53,1.53,0,0,0,1.456-1.08l.105-.332a2.8,2.8,0,0,1,2.621-1.888,2.523,2.523,0,0,1,.466.043l.342.064a1.645,1.645,0,0,0,.3.028,1.52,1.52,0,0,0,1.516-1.347l.045-.346a2.791,2.791,0,0,1,2.693-2.366l.364,0a1.538,1.538,0,0,0,1.134-.475,1.533,1.533,0,0,0,.417-1.147l-.018-.348a2.787,2.787,0,0,1,2.242-2.812l.343-.06a1.532,1.532,0,0,0,1.028-.665,1.532,1.532,0,0,0,.208-1.207l-.08-.339a2.786,2.786,0,0,1,1.7-3.167l.327-.12a1.532,1.532,0,0,0,.893-.838,1.531,1.531,0,0,0-.011-1.225l-.139-.319a2.787,2.787,0,0,1,1.111-3.421l.3-.177a1.533,1.533,0,0,0,.73-.984,1.532,1.532,0,0,0-.23-1.2l-.193-.289a2.786,2.786,0,0,1,.483-3.564l.264-.228a1.534,1.534,0,0,0,.541-1.1,1.535,1.535,0,0,0-.441-1.143l-.242-.25a2.786,2.786,0,0,1-.161-3.593l.219-.271a1.532,1.532,0,0,0,.336-1.177,1.534,1.534,0,0,0-.638-1.046l-.283-.2a2.787,2.787,0,0,1-.8-3.506l.167-.306a1.534,1.534,0,0,0,.121-1.219,1.534,1.534,0,0,0-.814-.915l-.315-.149a2.786,2.786,0,0,1-1.413-3.307l.109-.33a1.532,1.532,0,0,0-.1-1.221,1.531,1.531,0,0,0-.964-.755l-.337-.09a2.787,2.787,0,0,1-1.981-3l.049-.345a1.53,1.53,0,0,0-.315-1.183,1.533,1.533,0,0,0-1.083-.57l-.348-.029a2.787,2.787,0,0,1-2.485-2.6l-.013-.348a1.521,1.521,0,0,0-1.69-1.476l-.346.033c-.079.008-.16.012-.24.012a2.779,2.779,0,0,1-2.67-2.126l-.075-.34a1.526,1.526,0,0,0-1.491-1.211,1.6,1.6,0,0,0-.436.061l-.334.095a2.557,2.557,0,0,1-.7.1,2.81,2.81,0,0,1-2.545-1.655l-.135-.321a1.534,1.534,0,0,0-1.41-.951,1.565,1.565,0,0,0-.691.163l-.312.153a2.634,2.634,0,0,1-1.152.261,2.774,2.774,0,0,1-2.316-1.218l-.19-.292a1.535,1.535,0,0,0-1.286-.708,1.546,1.546,0,0,0-.921.308l-.28.206a2.7,2.7,0,0,1-1.592.508,2.735,2.735,0,0,1-1.99-.83l-.239-.253a1.53,1.53,0,0,0-1.121-.492,1.532,1.532,0,0,0-1.122.492l-.239.253a2.736,2.736,0,0,1-1.99.83h0a2.7,2.7,0,0,1-1.592-.508l-.28-.206a1.548,1.548,0,0,0-.922-.308,1.534,1.534,0,0,0-1.286.708l-.19.292a2.773,2.773,0,0,1-2.316,1.218,2.632,2.632,0,0,1-1.151-.261l-.313-.153a1.561,1.561,0,0,0-.691-.163,1.533,1.533,0,0,0-1.409.951l-.135.321a2.81,2.81,0,0,1-2.545,1.655,2.553,2.553,0,0,1-.695-.1l-.335-.095a1.6,1.6,0,0,0-.436-.061,1.525,1.525,0,0,0-1.49,1.211l-.076.34a2.778,2.778,0,0,1-2.67,2.125c-.08,0-.16,0-.24-.012l-.347-.033a1.519,1.519,0,0,0-1.69,1.476l-.014.348a2.786,2.786,0,0,1-2.485,2.6l-.347.029a1.534,1.534,0,0,0-1.084.57,1.533,1.533,0,0,0-.315,1.183l.049.345a2.786,2.786,0,0,1-1.981,3l-.337.09a1.532,1.532,0,0,0-.964.755,1.532,1.532,0,0,0-.1,1.221l.11.331a2.786,2.786,0,0,1-1.414,3.307l-.314.149a1.533,1.533,0,0,0-.814.915,1.534,1.534,0,0,0,.121,1.219l.167.305a2.787,2.787,0,0,1-.8,3.506l-.283.2a1.534,1.534,0,0,0-.638,1.046,1.532,1.532,0,0,0,.337,1.177l.219.271a2.787,2.787,0,0,1-.161,3.593l-.242.25a1.536,1.536,0,0,0-.441,1.143,1.533,1.533,0,0,0,.542,1.1l.264.227a2.787,2.787,0,0,1,.483,3.564l-.193.29a1.531,1.531,0,0,0-.23,1.2,1.531,1.531,0,0,0,.729.985l.3.177a2.787,2.787,0,0,1,1.111,3.421l-.14.319a1.535,1.535,0,0,0-.011,1.224,1.533,1.533,0,0,0,.893.838l.327.12a2.786,2.786,0,0,1,1.7,3.167l-.08.339a1.535,1.535,0,0,0,.207,1.207,1.533,1.533,0,0,0,1.029.665l.343.06a2.786,2.786,0,0,1,2.242,2.812l-.017.347a1.533,1.533,0,0,0,.417,1.148,1.531,1.531,0,0,0,1.123.475l.359,0a2.8,2.8,0,0,1,2.709,2.366l.044.346a1.52,1.52,0,0,0,1.516,1.347,1.64,1.64,0,0,0,.3-.028l.342-.064a2.528,2.528,0,0,1,.467-.043,2.8,2.8,0,0,1,2.621,1.888l.105.332a1.53,1.53,0,0,0,1.455,1.08,1.584,1.584,0,0,0,.566-.106l.325-.124a2.568,2.568,0,0,1,.924-.168,2.777,2.777,0,0,1,2.443,1.432l.163.308a1.535,1.535,0,0,0,1.353.827,1.567,1.567,0,0,0,.81-.23l.3-.181a2.649,2.649,0,0,1,1.375-.374,2.756,2.756,0,0,1,2.163,1.017l.216.273a1.533,1.533,0,0,0,1.209.6,1.552,1.552,0,0,0,1.026-.395l.261-.231A2.7,2.7,0,0,1-316.409,787.52Z" transform="translate(0)"/><path class="a" d="M-346.154,864.105c-.014.032-.024.064-.036.1h1.253a.394.394,0,0,0,.395-.395v-2.679a1.11,1.11,0,0,0-1.109-1.109,1.1,1.1,0,0,0-.715.262,1.1,1.1,0,0,0-.715-.262,1.1,1.1,0,0,0-.689.241,1.982,1.982,0,0,0,.5.426l.212.125a.319.319,0,0,1,.247.157,2.342,2.342,0,0,1,.834,1.144v-.984a.32.32,0,0,1,.32-.32.32.32,0,0,1,.32.32v2.284h-.562a2.141,2.141,0,0,1-.122.373Z" transform="translate(-3.641 -98.349)"/><path class="a" d="M-329.472,864.2h1.429a.394.394,0,0,0,.395-.395v-2.679a1.11,1.11,0,0,0-1.109-1.109,1.1,1.1,0,0,0-.714.262,1.106,1.106,0,0,0-.715-.262,1.11,1.11,0,0,0-1.109,1.109v2.679a.394.394,0,0,0,.395.395Zm.395-3.074a.32.32,0,0,1,.32-.32.32.32,0,0,1,.32.32v2.284h-.64Zm-1.429,0a.32.32,0,0,1,.32-.32.32.32,0,0,1,.32.32v2.284h-.64Z" transform="translate(-14.914 -98.349)"/><path class="a" d="M-311.669,864.2h1.429a.394.394,0,0,0,.395-.395v-2.679a1.11,1.11,0,0,0-1.109-1.109,1.106,1.106,0,0,0-.715.262,1.1,1.1,0,0,0-.714-.262,1.11,1.11,0,0,0-1.109,1.109v2.679a.4.4,0,0,0,.395.395Zm.395-3.074a.321.321,0,0,1,.32-.32.32.32,0,0,1,.32.32v2.284h-.64Zm-1.429,0a.32.32,0,0,1,.32-.32.32.32,0,0,1,.32.32v2.284h-.64Z" transform="translate(-27.097 -98.349)"/><path class="a" d="M-293.864,864.2h1.429a.394.394,0,0,0,.395-.395v-2.679a1.11,1.11,0,0,0-1.109-1.109,1.1,1.1,0,0,0-.715.262,1.1,1.1,0,0,0-.715-.262,1.11,1.11,0,0,0-1.109,1.109v2.679a.394.394,0,0,0,.395.395Zm.395-3.074a.32.32,0,0,1,.32-.32.32.32,0,0,1,.32.32v2.284h-.64Zm-1.429,0a.32.32,0,0,1,.32-.32.32.32,0,0,1,.32.32v2.284h-.64Z" transform="translate(-39.282 -98.349)"/><path class="a" d="M-276.061,864.2h1.429a.394.394,0,0,0,.395-.395v-2.679a1.11,1.11,0,0,0-1.109-1.109,1.1,1.1,0,0,0-.715.262,1.1,1.1,0,0,0-.715-.262,1.11,1.11,0,0,0-1.109,1.109v2.679a.394.394,0,0,0,.395.395Zm.395-3.074a.32.32,0,0,1,.32-.32.32.32,0,0,1,.32.32v2.284h-.64Zm-1.429,0a.32.32,0,0,1,.32-.32.32.32,0,0,1,.32.32v2.284h-.64Z" transform="translate(-51.465 -98.349)"/><path class="a" d="M-242.419,843.265a1.862,1.862,0,0,0-1.471.722,1.861,1.861,0,0,0-1.471-.722,1.867,1.867,0,0,0-1.865,1.866v8.276a.394.394,0,0,0,.395.395h5.884a.4.4,0,0,0,.395-.395v-8.276A1.867,1.867,0,0,0-242.419,843.265Zm-1.866,9.747h-2.153v-1.381h2.153Zm0-2.17h-2.153v-5.712a1.077,1.077,0,0,1,1.076-1.076,1.077,1.077,0,0,1,1.076,1.076Zm2.942,2.17H-243.5v-1.381h2.153Zm0-2.17H-243.5v-5.712a1.078,1.078,0,0,1,1.076-1.076,1.077,1.077,0,0,1,1.076,1.076Z" transform="translate(-72.446 -86.883)"/><path class="a" d="M-238.892,770.808a1.916,1.916,0,0,0-1.915-1.914,1.916,1.916,0,0,0-1.914,1.914,1.916,1.916,0,0,0,1.914,1.914A1.916,1.916,0,0,0-238.892,770.808Zm-1.915,1.125a1.126,1.126,0,0,1-1.125-1.125,1.126,1.126,0,0,1,1.125-1.125,1.126,1.126,0,0,1,1.125,1.125A1.126,1.126,0,0,1-240.807,771.933Z" transform="translate(-75.529 -35.989)"/><path class="a" d="M-262.707,921.87h-44.21a1.944,1.944,0,0,0,.338.789h43.534A1.947,1.947,0,0,0-262.707,921.87Z" transform="translate(-31.597 -140.675)"/><path class="a" d="M-325.565,762.185v.618h-26.142a1.953,1.953,0,0,0,.549.776l.015.013h10.028v.605h-9.43a2.366,2.366,0,0,1,.359.789h27.913v1.368h-27.966a2.158,2.158,0,0,1-.244.5l-.194.289a2,2,0,0,0-.19.356.4.4,0,0,0,.277.113.4.4,0,0,0,.395-.395v-.073h.108v.073a.4.4,0,0,0,.395.395.4.4,0,0,0,.395-.395v-.073h.108v.073a.4.4,0,0,0,.395.395.4.4,0,0,0,.395-.395v-.073h.108v.073a.4.4,0,0,0,.395.395.4.4,0,0,0,.395-.395v-.073h.108v.073a.394.394,0,0,0,.395.395.4.4,0,0,0,.395-.395v-.073h.108v.073a.4.4,0,0,0,.395.395.4.4,0,0,0,.395-.395v-.073h.108v.073a.4.4,0,0,0,.395.395.394.394,0,0,0,.395-.395v-.073h.108v.073a.4.4,0,0,0,.395.395.4.4,0,0,0,.395-.395v-.073h.108v.073a.394.394,0,0,0,.395.395.4.4,0,0,0,.395-.395v-.073h.108v.073a.4.4,0,0,0,.395.395.4.4,0,0,0,.395-.395v-.073h.108v.073a.4.4,0,0,0,.395.395.394.394,0,0,0,.395-.395v-.073h.108v.073a.4.4,0,0,0,.395.395.394.394,0,0,0,.395-.395v-.073h.109v.073a.394.394,0,0,0,.395.395.4.4,0,0,0,.395-.395v-.073h.108v.073a.394.394,0,0,0,.395.395.4.4,0,0,0,.395-.395v-.073h.108v.073a.4.4,0,0,0,.395.395.4.4,0,0,0,.395-.395v-.073h.108v.073a.4.4,0,0,0,.395.395.394.394,0,0,0,.395-.395v-.073h.108v.073a.4.4,0,0,0,.395.395.4.4,0,0,0,.395-.395v-.073h.108v.073a.394.394,0,0,0,.395.395.4.4,0,0,0,.395-.395v-.073h.108v.073a.4.4,0,0,0,.395.395.4.4,0,0,0,.395-.395v-.073h.108v.073a.4.4,0,0,0,.395.395.394.394,0,0,0,.395-.395v-.073h.108v.073a.4.4,0,0,0,.395.395.4.4,0,0,0,.395-.395v-.073h.108v.073a.4.4,0,0,0,.395.395.4.4,0,0,0,.395-.395v-.073h.108v.073a.4.4,0,0,0,.395.395.4.4,0,0,0,.395-.395v-.073h.108v.073a.4.4,0,0,0,.395.395.4.4,0,0,0,.395-.395v-.073h.108v.073a.4.4,0,0,0,.395.395.394.394,0,0,0,.395-.395v-.073h.109v.073a.4.4,0,0,0,.395.395.4.4,0,0,0,.395-.395v-.073h.108v.073a.394.394,0,0,0,.395.395.4.4,0,0,0,.395-.395v-.073h.108v.073a.4.4,0,0,0,.395.395.4.4,0,0,0,.395-.395v-.073h.108v.073a.4.4,0,0,0,.395.395.394.394,0,0,0,.395-.395v-.073h.108v.073a.4.4,0,0,0,.395.395.4.4,0,0,0,.395-.395v-.073h.108v.073a.4.4,0,0,0,.395.395.4.4,0,0,0,.395-.395v-.073h.108v.073a.4.4,0,0,0,.395.395.4.4,0,0,0,.395-.395v-.073h.108v6.537h-26.785a1.918,1.918,0,0,0-.008.789h26.793v.434h-26.649a1.911,1.911,0,0,0,.686.789h25.963v1H-341.7a.394.394,0,0,0-.395.395v.026h-4.184a2.437,2.437,0,0,1,.262.789h3.922v2.026h-4.042a1.906,1.906,0,0,0,.373.789h3.44c0,.009,0,.017,0,.026v2.824a2.119,2.119,0,0,1,.009.31l-.009.189v.069h0l0,.089a1.963,1.963,0,0,0,.091.7h53.379a1.972,1.972,0,0,0,.091-.7l-.018-.348a2.2,2.2,0,0,1,.133-.859v-2.276c0-.009,0-.018,0-.026h3.317a1.91,1.91,0,0,0,.373-.789h-4.041V777.9h3.922a2.429,2.429,0,0,1,.262-.789h-4.184v-.026a.4.4,0,0,0-.395-.395h-19.427v-1h25.963a1.913,1.913,0,0,0,.686-.789h-26.649v-.434h26.793a1.924,1.924,0,0,0-.008-.789h-26.785v-6.537h.108v.073a.4.4,0,0,0,.395.395.4.4,0,0,0,.395-.395v-.073h.108v.073a.4.4,0,0,0,.395.395.394.394,0,0,0,.395-.395v-.073h.108v.073a.4.4,0,0,0,.395.395.4.4,0,0,0,.395-.395v-.073h.108v.073a.394.394,0,0,0,.395.395.4.4,0,0,0,.395-.395v-.073h.108v.073a.4.4,0,0,0,.395.395.4.4,0,0,0,.395-.395v-.073h.108v.073a.4.4,0,0,0,.395.395.394.394,0,0,0,.395-.395v-.073h.108v.073a.4.4,0,0,0,.395.395.394.394,0,0,0,.395-.395v-.073h.109v.073a.4.4,0,0,0,.395.395.4.4,0,0,0,.395-.395v-.073h.108v.073a.394.394,0,0,0,.395.395.4.4,0,0,0,.395-.395v-.073h.108v.073a.4.4,0,0,0,.395.395.4.4,0,0,0,.395-.395v-.073h.108v.073a.4.4,0,0,0,.395.395.394.394,0,0,0,.395-.395v-.073h.108v.073a.4.4,0,0,0,.395.395.4.4,0,0,0,.395-.395v-.073h.108v.073a.4.4,0,0,0,.395.395.4.4,0,0,0,.395-.395v-.073h.108v.073a.4.4,0,0,0,.395.395.4.4,0,0,0,.395-.395v-.073h.108v.073a.4.4,0,0,0,.395.395.4.4,0,0,0,.395-.395v-.073h.108v.073a.4.4,0,0,0,.395.395.4.4,0,0,0,.395-.395v-.073h.108v.073a.4.4,0,0,0,.395.395.4.4,0,0,0,.395-.395v-.073h.108v.073a.4.4,0,0,0,.395.395.4.4,0,0,0,.395-.395v-.073h.108v.073a.4.4,0,0,0,.395.395.4.4,0,0,0,.395-.395v-.073h.108v.073a.4.4,0,0,0,.395.395.394.394,0,0,0,.395-.395v-.073h.109v.073a.4.4,0,0,0,.395.395.4.4,0,0,0,.395-.395v-.073h.108v.073a.4.4,0,0,0,.395.395.4.4,0,0,0,.395-.395v-.073h.108v.073a.4.4,0,0,0,.395.395.4.4,0,0,0,.395-.395v-.073h.108v.073a.4.4,0,0,0,.395.395.394.394,0,0,0,.395-.395v-.073h.108v.073a.4.4,0,0,0,.395.395.4.4,0,0,0,.395-.395v-.073h.108v.073a.4.4,0,0,0,.395.395.4.4,0,0,0,.395-.395v-.073h.108v.073a.4.4,0,0,0,.395.395.4.4,0,0,0,.395-.395v-.073h.108v.073a.4.4,0,0,0,.395.395.4.4,0,0,0,.395-.395v-.073h.108v.073a.4.4,0,0,0,.395.395.4.4,0,0,0,.395-.395v-.073h.108v.073a.4.4,0,0,0,.395.395.4.4,0,0,0,.395-.395v-.073h.108v.073a.4.4,0,0,0,.395.395.4.4,0,0,0,.395-.395v-.073h.108v.073a.4.4,0,0,0,.395.395.4.4,0,0,0,.277-.113,1.982,1.982,0,0,0-.19-.356l-.194-.29a2.15,2.15,0,0,1-.243-.5h-27.966v-1.368h27.913a2.359,2.359,0,0,1,.358-.789h-28.272V740.891h.132a.4.4,0,0,0,.395-.395.4.4,0,0,0-.395-.395h-.252l-2.989-8.044h.081a.4.4,0,0,0,.395-.395.4.4,0,0,0-.395-.395h-.254v-3.535a.394.394,0,0,0-.395-.395.394.394,0,0,0-.395.395V729h-5.126v-1.266a.394.394,0,0,0-.395-.395.394.394,0,0,0-.395.395v3.535h-.254a.4.4,0,0,0-.395.395.4.4,0,0,0,.395.395h.081l-2.989,8.044h-.252a.394.394,0,0,0-.395.395.393.393,0,0,0,.355.391V764.2h-3.4v-.605h.5a.394.394,0,0,0,.395-.395v-1.407a.4.4,0,0,0-.395-.395H-351.7a1.906,1.906,0,0,0-.14.789Zm-15.549,21.952h-.421v-3h.421Zm11.707,0h-10.918v-3h10.918Zm1.21,0h-.421v-3h.421Zm-.816-3.788H-341.3v-2.868h19.019v2.868h-6.728Zm18.2,3.788h-5.739v-4.654a2.873,2.873,0,0,1,2.869-2.869,2.873,2.873,0,0,1,2.869,2.869Zm8.453,0h-.421v-3h.421Zm11.707,0h-10.918v-3h10.918Zm1.21,0h-.421v-3h.421Zm-19.373-6.656H-289.8v2.868h-19.019Zm-5.267-47.693h1.183v1.48h-1.183Zm-1.972,0h1.182v1.48h-1.182Zm-1.972.375v-.375h1.183v1.48h-1.183Zm-.12,1.894h5.367l2.989,8.044h-2a.394.394,0,0,0-.388-.332h-.474l-2.414-3.692v-1.442a.4.4,0,0,0-.395-.395.4.4,0,0,0-.395.395v1.442l-2.414,3.692h-.407a.393.393,0,0,0-.388.332h-2.069Zm4.537,23.232v-4.109a.341.341,0,0,1,.341-.341.341.341,0,0,1,.341.339v4.111Zm.682.789v.927h-2.153v-.927h2.153Zm-.341-6.028a1.123,1.123,0,0,0-.736.274,1.122,1.122,0,0,0-.736-.274,1.132,1.132,0,0,0-.337.052,1.077,1.077,0,0,1,1.073-1.009,1.077,1.077,0,0,1,1.073,1.009A1.132,1.132,0,0,0-313.272,750.051Zm-1.471.789a.341.341,0,0,1,.341.341v4.109h-.682v-4.109A.341.341,0,0,1-314.743,750.84Zm-1.314-4.373v-.409h1.158v.409Zm-.395-1.2h-1.216V740.5a.392.392,0,0,0-.035-.161l2.236-3.419,2.223,3.4a.391.391,0,0,0-.045.181v4.773h-3.163Zm-5.032,21.948V740.891h3.027v4.772a.4.4,0,0,0,.395.395h1.216v.8a.4.4,0,0,0,.395.395h.579v1.393a1.851,1.851,0,0,0-1.076-.345,1.867,1.867,0,0,0-1.865,1.866v5.12h-1a.4.4,0,0,0-.395.395V757.4a.4.4,0,0,0,.395.395h1v.315a.394.394,0,0,0,.395.395.4.4,0,0,0,.395-.395v-.315h.387v.315a.4.4,0,0,0,.395.395.394.394,0,0,0,.395-.395v-.315h.388v.315a.394.394,0,0,0,.395.395.4.4,0,0,0,.395-.395v-.315h.387v.315a.4.4,0,0,0,.395.395.394.394,0,0,0,.395-.395v-.315h.388v.315a.4.4,0,0,0,.395.395.394.394,0,0,0,.395-.395v-.315h.388v.315a.394.394,0,0,0,.395.395.4.4,0,0,0,.395-.395v-.315h1a.4.4,0,0,0,.395-.395v-1.716a.4.4,0,0,0-.395-.395h-1v-5.12a1.867,1.867,0,0,0-1.866-1.866,1.852,1.852,0,0,0-1.076.345v-1.393h.579a.4.4,0,0,0,.395-.395v-.8h1.216a.4.4,0,0,0,.395-.395v-4.772h2.879V774.9h-11.862Zm3.8-16.377a.341.341,0,0,1,.341.341v4.109h-.682v-4.109A.341.341,0,0,1-317.685,750.84Zm-.337-.738a1.077,1.077,0,0,1,1.073-1.009,1.077,1.077,0,0,1,1.073,1.009,1.134,1.134,0,0,0-.337-.052,1.123,1.123,0,0,0-.736.274,1.124,1.124,0,0,0-.736-.274A1.136,1.136,0,0,0-318.022,750.1Zm1.073,5.977h1.076v.927h-2.153v-.927Zm.395-.789v-4.109a.341.341,0,0,1,.341-.341.341.341,0,0,1,.341.341v4.109Zm-2.26.789v.927h-.6v-.927Zm6.673.927v-.927h.6v.927Zm-9.749,24.133a.4.4,0,0,0,.395-.395V778.2a.4.4,0,0,0,.013-.1v-2.407h11.862V778.1a.386.386,0,0,0,.013.1v2.548a.4.4,0,0,0,.395.395h5.64v3h-6.453v-4.654a3.663,3.663,0,0,0-3.659-3.658,3.663,3.663,0,0,0-3.659,3.658v4.654h-10.064v-3ZM-326.46,764.2h-13.865v-.605h13.865Z" transform="translate(-0.857 -7.552)"/><path class="a" d="M-318.628,912.725l.348,0a2.215,2.215,0,0,1,.922.2h47.127a2.216,2.216,0,0,1,.922-.2l.349,0a1.93,1.93,0,0,0,1.414-.589h-52.5A1.931,1.931,0,0,0-318.628,912.725Z" transform="translate(-22.615 -134.014)"/><path class="a" d="M-308.166,917.792h44.46a2.29,2.29,0,0,1,.394-.789H-308.56A2.3,2.3,0,0,1-308.166,917.792Z" transform="translate(-30.473 -137.345)"/><path class="a" d="M-134.413,860.281a1.1,1.1,0,0,0-.714-.262,1.11,1.11,0,0,0-1.109,1.109v2.679a.394.394,0,0,0,.395.395h1.254c-.012-.032-.022-.065-.037-.1l-.139-.319a2.17,2.17,0,0,1-.121-.373h-.563v-2.284a.32.32,0,0,1,.32-.32.32.32,0,0,1,.32.32v.984a2.342,2.342,0,0,1,.834-1.144.32.32,0,0,1,.248-.157l.212-.125a1.99,1.99,0,0,0,.5-.426,1.106,1.106,0,0,0-.689-.241A1.1,1.1,0,0,0-134.413,860.281Z" transform="translate(-148.399 -98.349)"/><path class="a" d="M-151.5,860.019a1.1,1.1,0,0,0-.714.262,1.1,1.1,0,0,0-.715-.262,1.11,1.11,0,0,0-1.109,1.109v2.679a.4.4,0,0,0,.395.395h2.858a.394.394,0,0,0,.395-.395v-2.679A1.11,1.11,0,0,0-151.5,860.019Zm-1.109,3.393h-.64v-2.284a.32.32,0,0,1,.32-.32.32.32,0,0,1,.32.32Zm1.429,0h-.64v-2.284a.32.32,0,0,1,.32-.32.32.32,0,0,1,.32.32Z" transform="translate(-136.215 -98.349)"/><path class="a" d="M-169.306,860.019a1.1,1.1,0,0,0-.715.262,1.1,1.1,0,0,0-.715-.262,1.11,1.11,0,0,0-1.109,1.109v2.679a.394.394,0,0,0,.395.395h2.858a.394.394,0,0,0,.395-.395v-2.679A1.11,1.11,0,0,0-169.306,860.019Zm-1.109,3.393h-.64v-2.284a.32.32,0,0,1,.32-.32.32.32,0,0,1,.32.32Zm1.429,0h-.64v-2.284a.32.32,0,0,1,.32-.32.32.32,0,0,1,.32.32Z" transform="translate(-124.032 -98.349)"/><path class="a" d="M-187.111,860.019a1.106,1.106,0,0,0-.715.262,1.1,1.1,0,0,0-.714-.262,1.11,1.11,0,0,0-1.109,1.109v2.679a.394.394,0,0,0,.395.395h2.858a.394.394,0,0,0,.395-.395v-2.679A1.111,1.111,0,0,0-187.111,860.019Zm-1.109,3.393h-.64v-2.284a.32.32,0,0,1,.32-.32.32.32,0,0,1,.32.32Zm1.429,0h-.64v-2.284a.32.32,0,0,1,.32-.32.32.32,0,0,1,.32.32Z" transform="translate(-111.848 -98.349)"/><path class="a" d="M-204.914,860.019a1.1,1.1,0,0,0-.715.262,1.105,1.105,0,0,0-.714-.262,1.11,1.11,0,0,0-1.109,1.109v2.679a.394.394,0,0,0,.395.395h2.858a.4.4,0,0,0,.395-.395v-2.679A1.11,1.11,0,0,0-204.914,860.019Zm-1.109,3.393h-.64v-2.284a.32.32,0,0,1,.32-.32.32.32,0,0,1,.32.32Zm1.429,0h-.64v-2.284a.32.32,0,0,1,.32-.32.32.32,0,0,1,.32.32Z" transform="translate(-99.664 -98.349)"/></g></svg>