<svg xmlns="http://www.w3.org/2000/svg" width="67.707" height="76.741" viewBox="0 0 67.707 76.741"><defs><style>.a{fill:#151515;}</style></defs><g transform="translate(434.419 -307.707)"><path class="a" d="M-327.9,362.4a1.422,1.422,0,0,0-1.421,1.42,1.422,1.422,0,0,0,1.421,1.421,1.422,1.422,0,0,0,1.421-1.421A1.422,1.422,0,0,0-327.9,362.4Zm0,2.113a.693.693,0,0,1-.693-.692.693.693,0,0,1,.693-.692.693.693,0,0,1,.692.692A.693.693,0,0,1-327.9,364.516Z" transform="translate(-59.054 -30.733)"/><path class="a" d="M-329.233,360.029a2.464,2.464,0,0,0-2.461,2.46,2.464,2.464,0,0,0,2.461,2.461,2.463,2.463,0,0,0,2.46-2.461A2.463,2.463,0,0,0-329.233,360.029Zm0,4.193a1.734,1.734,0,0,1-1.732-1.733,1.734,1.734,0,0,1,1.732-1.732,1.734,1.734,0,0,1,1.731,1.732A1.734,1.734,0,0,1-329.233,364.222Z" transform="translate(-57.72 -29.399)"/><path class="a" d="M-375.85,340.167h14.2a.364.364,0,0,0,.364-.364.364.364,0,0,0-.364-.365h-14.2a.3.3,0,0,0-.064.007.3.3,0,0,0-.063-.007h-14.2a.365.365,0,0,0-.365.365.364.364,0,0,0,.365.364h14.2a.3.3,0,0,0,.063-.007A.3.3,0,0,0-375.85,340.167Z" transform="translate(-24.653 -17.829)"/><path class="a" d="M-390.042,365.244a1.422,1.422,0,0,0,1.421-1.421,1.422,1.422,0,0,0-1.421-1.42,1.422,1.422,0,0,0-1.42,1.42A1.422,1.422,0,0,0-390.042,365.244Zm0-2.113a.693.693,0,0,1,.693.692.693.693,0,0,1-.693.692.693.693,0,0,1-.692-.692A.693.693,0,0,1-390.042,363.132Z" transform="translate(-24.137 -30.733)"/><path class="a" d="M-391.374,364.95a2.463,2.463,0,0,0,2.46-2.461,2.463,2.463,0,0,0-2.46-2.46,2.463,2.463,0,0,0-2.46,2.46A2.463,2.463,0,0,0-391.374,364.95Zm0-4.193a1.734,1.734,0,0,1,1.732,1.732,1.734,1.734,0,0,1-1.732,1.733,1.734,1.734,0,0,1-1.731-1.733A1.734,1.734,0,0,1-391.374,360.757Z" transform="translate(-22.804 -29.399)"/><path class="a" d="M-378.322,327.166a1.91,1.91,0,0,0,1.195-.419v.089a.364.364,0,0,0,.365.363h6.573a.374.374,0,0,0,.063-.006.378.378,0,0,0,.064.006h6.573a.363.363,0,0,0,.364-.363v-.089a1.913,1.913,0,0,0,1.2.419,1.925,1.925,0,0,0,1.923-1.923,1.926,1.926,0,0,0-1.923-1.925,1.913,1.913,0,0,0-1.2.42v-.089a.364.364,0,0,0-.364-.365h-13.273a.364.364,0,0,0-.365.365v.089a1.911,1.911,0,0,0-1.195-.42,1.927,1.927,0,0,0-1.924,1.925A1.926,1.926,0,0,0-378.322,327.166Zm16.392-3.12a1.2,1.2,0,0,1,1.2,1.2,1.2,1.2,0,0,1-1.2,1.195,1.2,1.2,0,0,1-1.2-1.195A1.2,1.2,0,0,1-361.931,324.046Zm-14.468-.033h12.544v2.458h-6.209a.429.429,0,0,0-.064.006.425.425,0,0,0-.063-.006H-376.4Zm-1.923.033a1.2,1.2,0,0,1,1.195,1.2,1.2,1.2,0,0,1-1.195,1.195,1.2,1.2,0,0,1-1.2-1.195A1.2,1.2,0,0,1-378.322,324.046Z" transform="translate(-30.439 -8.753)"/><g transform="translate(-431.343 343.89)"><path class="a" d="M-366.071,446.81a.364.364,0,0,0-.268-.016c-.054.019-1.345.461-1.345,1.459v2.242a.364.364,0,0,0,.315.361l1.927.265a.379.379,0,0,0,.049,0,.36.36,0,0,0,.24-.09.362.362,0,0,0,.124-.274v-2.117A1.942,1.942,0,0,0-366.071,446.81Zm.314,1.8c0,.007,0,.014,0,.023v1.708l-1.2-.165v-1.925c0-.326.435-.589.707-.711A1.275,1.275,0,0,1-365.757,448.611Z" transform="translate(393.845 -422.031)"/><path class="a" d="M-359.282,447.405l-.018,0-.031-.008-.041-.005h-.071l-.028,0-.042.01-.014,0c-1.477.528-1.637,1.136-1.637,1.373V451.1a.364.364,0,0,0,.365.364h2.789a.364.364,0,0,0,.365-.364v-2.325C-357.645,448.067-358.789,447.582-359.282,447.405Zm.908,3.334h-2.062v-1.951a2.268,2.268,0,0,1,1.031-.649,2.4,2.4,0,0,1,1.031.639Z" transform="translate(390.181 -422.374)"/><path class="a" d="M-351.365,446.794a.364.364,0,0,0-.268.016,1.942,1.942,0,0,0-1.041,1.833v2.117a.362.362,0,0,0,.124.274.359.359,0,0,0,.24.09.38.38,0,0,0,.049,0l1.926-.265a.364.364,0,0,0,.315-.361v-2.242C-350.019,447.255-351.309,446.813-351.365,446.794Zm.617,3.384-1.2.165v-1.729a1.275,1.275,0,0,1,.491-1.072c.261.119.708.382.708.711Z" transform="translate(385.412 -422.031)"/><path class="a" d="M-297.357,446.815v1.2a1.886,1.886,0,0,1,.274-.072l.317-.055a1.788,1.788,0,0,0,1.072-.616l-.01,0-.015,0a4.693,4.693,0,0,0-.908.422v-.523h1.005a1.767,1.767,0,0,0,.311-.728h-1.68A.365.365,0,0,0-297.357,446.815Z" transform="translate(354.33 -421.848)"/><path class="a" d="M-366.208,407.586a.365.365,0,0,0-.364.365v1.177h-4.243V406.9a.364.364,0,0,0-.364-.364.364.364,0,0,0-.364.364v2.226h-2.471V407.3a.694.694,0,0,0,.332-.59.7.7,0,0,0-.338-.595.364.364,0,0,0-.358-.3.363.363,0,0,0-.358.3.694.694,0,0,0-.339.595.694.694,0,0,0,.332.59v1.827h-1.331v-2.66a.359.359,0,0,0,.143-.286.364.364,0,0,0-.365-.364h-.671a2.955,2.955,0,0,0-2.563-2.564v-.922a.365.365,0,0,0-.364-.365.365.365,0,0,0-.365.365v.922a2.956,2.956,0,0,0-2.563,2.564h-.671a.364.364,0,0,0-.364.364.363.363,0,0,0,.233.338v2.609h-1.541V406.9a.364.364,0,0,0-.364-.364.364.364,0,0,0-.365.364v2.226h-.5v-2.083a1.145,1.145,0,0,0,.332-.675,10.777,10.777,0,0,0-5.263-9.327,17.031,17.031,0,0,0-4.925-2.153.8.8,0,0,0,.429-.709.8.8,0,0,0-.438-.712v-.186h0a.365.365,0,0,0,.365-.364.364.364,0,0,0-.365-.364h0V390.66a.365.365,0,0,0-.365-.365.365.365,0,0,0-.364.365v1.894h0a.363.363,0,0,0-.364.364.363.363,0,0,0,.364.364h0v.186a.8.8,0,0,0-.436.712.8.8,0,0,0,.428.709,17.025,17.025,0,0,0-4.924,2.153,10.778,10.778,0,0,0-5.264,9.327,1.141,1.141,0,0,0,.333.675v2.083h-.5V406.9a.364.364,0,0,0-.365-.364.364.364,0,0,0-.365.364v2.226h-1.541v-2.609a.363.363,0,0,0,.234-.338.364.364,0,0,0-.364-.364h-.672a2.954,2.954,0,0,0-2.563-2.564v-.922a.365.365,0,0,0-.365-.365.365.365,0,0,0-.364.365v.922a2.955,2.955,0,0,0-2.563,2.564h-.672a.364.364,0,0,0-.364.364.36.36,0,0,0,.143.286v2.66H-418.5V407.3a.692.692,0,0,0,.333-.59.7.7,0,0,0-.338-.595.364.364,0,0,0-.358-.3.365.365,0,0,0-.358.3.7.7,0,0,0-.338.595.694.694,0,0,0,.332.59v1.827H-421.7V406.9a.364.364,0,0,0-.364-.364.364.364,0,0,0-.364.364v2.226h-4.243v-1.177a.365.365,0,0,0-.365-.365.366.366,0,0,0-.111.019,2.049,2.049,0,0,1-.16.952l-.093.213v1.6a1.762,1.762,0,0,0,.729.755v-1.266h4.243v1.581h-3.492a2.137,2.137,0,0,1,.819.728h2.673v4.471a2.259,2.259,0,0,1,.728.68v-5.151h13.62v9.817h-3.18v-8.93a.365.365,0,0,0-.364-.364h-7.086a.364.364,0,0,0-.364.364v7.761a2.083,2.083,0,0,1,.728.191v-4.329c0-.551.563-1.193,1.585-1.805a11.006,11.006,0,0,1,1.593-.774,10.982,10.982,0,0,1,1.594.774c1.022.612,1.586,1.254,1.586,1.805v5.308h-1.42v-6.72a.364.364,0,0,0-.364-.364h-2.79a.364.364,0,0,0-.364.364v6.72h-.384a2.012,2.012,0,0,1,.225.691l.005.038h14.148v.538h-14.058a1.789,1.789,0,0,0,.4.728h39.938a1.779,1.779,0,0,0,.4-.728h-14.058v-.538h14.148l0-.038a2.031,2.031,0,0,1,.226-.691h-.383v-6.72a.364.364,0,0,0-.365-.364h-2.79a.364.364,0,0,0-.364.364v6.72h-1.42v-5.308c0-.551.563-1.193,1.586-1.805a11.006,11.006,0,0,1,1.593-.774,10.984,10.984,0,0,1,1.593.774c1.023.612,1.586,1.254,1.586,1.805V421a2.076,2.076,0,0,1,.728-.191v-7.761a.364.364,0,0,0-.364-.364h-7.086a.365.365,0,0,0-.364.364v8.93h-3.18v-9.817h13.62v5.151a2.249,2.249,0,0,1,.728-.68v-4.471h2.672a2.139,2.139,0,0,1,.82-.728h-3.492v-1.581h4.243v1.266a1.767,1.767,0,0,0,.729-.756v-1.6l-.092-.214a2.05,2.05,0,0,1-.162-.952A.352.352,0,0,0-366.208,407.586Zm-50.916,6.653a6.08,6.08,0,0,0-1.22.925v-1.749h2.913A11.789,11.789,0,0,0-417.123,414.239Zm2.989,7.743H-416.2v-2.327h2.062Zm0-4.236v1.18H-416.2v-1.821a2.311,2.311,0,0,1,1.03-.648,2.4,2.4,0,0,1,1.031.641Zm0-1.594a4.91,4.91,0,0,0-.908-.426l-.018,0-.031-.008a.262.262,0,0,0-.04-.007h-.03a.219.219,0,0,0-.042,0l-.029,0-.04.009-.015,0a4.668,4.668,0,0,0-.908.422v-.523h2.062Zm2.148-.989a8.9,8.9,0,0,0-2.911-1.748h2.911Zm1.59-8.619h.048v2.584h-.048Zm-2.952-2.588a2.225,2.225,0,0,1,2.191,1.861h-4.382A2.226,2.226,0,0,1-413.349,403.956Zm2.224,2.588v2.584h-1.062v-2.584Zm-1.791,0v2.584h-.866v-2.584Zm-2.656,0h1.062v2.584h-1.062Zm-.867,0h.139v2.584h-.139Zm8.361,4.893H-421.7v-1.581h13.62Zm6.539-13.771a16.364,16.364,0,0,1,4.918-2.117,16.374,16.374,0,0,1,4.919,2.117,9.949,9.949,0,0,1,4.913,8.681,1.284,1.284,0,0,1-.225.3.368.368,0,0,0-.107.258v2.226h-.5v-5.215a.694.694,0,0,0,.332-.591.7.7,0,0,0-.332-.591v-.074a.365.365,0,0,0-.365-.364.365.365,0,0,0-.364.364v.074a.694.694,0,0,0-.332.591.693.693,0,0,0,.332.591v1.329h-1.03v-1.631h.3a.364.364,0,0,0,.364-.365.364.364,0,0,0-.364-.364h-.337a1.546,1.546,0,0,0-1.134-1.133v-.255a.364.364,0,0,0-.364-.364.364.364,0,0,0-.365.364v.255a1.548,1.548,0,0,0-1.134,1.133h-.187a.365.365,0,0,0-.365.364.365.365,0,0,0,.365.365h.142v1.631h-8.322v-1.631h.142a.364.364,0,0,0,.364-.365.365.365,0,0,0-.364-.364h-.188a1.548,1.548,0,0,0-1.134-1.133v-.255a.364.364,0,0,0-.365-.364.364.364,0,0,0-.364.364v.255a1.548,1.548,0,0,0-1.134,1.133h-.336a.365.365,0,0,0-.364.364.364.364,0,0,0,.364.365h.3v1.631h-1.031v-1.329a.692.692,0,0,0,.333-.591.693.693,0,0,0-.333-.591v-.074a.364.364,0,0,0-.364-.364.364.364,0,0,0-.364.364v.074a.7.7,0,0,0-.332.591.694.694,0,0,0,.332.591v5.215h-.5V406.9a.368.368,0,0,0-.107-.258,1.247,1.247,0,0,1-.225-.3A9.948,9.948,0,0,1-401.539,397.666Zm11.43,5.945v1.631h-1.622v-1.631Zm-1.535-.729a.815.815,0,0,1,.728-.45.817.817,0,0,1,.728.45Zm-9.867.729v1.631h-1.621v-1.631Zm-1.543-.729a.816.816,0,0,1,.728-.45.815.815,0,0,1,.728.45Zm-1.171,19.1h-2.062v-2.327h2.062Zm0-4.236v1.18h-2.062v-1.821a2.308,2.308,0,0,1,1.031-.648,2.4,2.4,0,0,1,1.031.641Zm0-1.594a4.922,4.922,0,0,0-.908-.426l-.018-.006-.032-.007a.224.224,0,0,0-.039-.007h-.029a.219.219,0,0,0-.042,0l-.029,0-.04.009-.015,0a4.7,4.7,0,0,0-.909.422v-.523h2.062Zm13.185,7.1H-402.2v-.538h11.162Zm-9.468-1.267v-.134c0-.326.435-.59.707-.711a1.157,1.157,0,0,1,.479.846Zm2.887,0a2.886,2.886,0,0,1,1-.592,2.914,2.914,0,0,1,1,.592h-2Zm3.7,0a1.161,1.161,0,0,1,.48-.846c.273.122.707.386.707.711v.134Zm2.881,0h-.965v-.134c0-1-1.29-1.44-1.345-1.458a.362.362,0,0,0-.268.014,1.854,1.854,0,0,0-1.033,1.578h-.212c-.023-.264-.249-.829-1.635-1.324l-.017,0-.034-.009-.036-.006h-.071l-.034.006-.035.009-.017,0c-1.385.5-1.612,1.061-1.635,1.324h-.212a1.854,1.854,0,0,0-1.032-1.578.366.366,0,0,0-.269-.014c-.054.018-1.345.46-1.345,1.458v.134h-.965v-7.143c0-2.078,3.916-3.975,5.581-4.594,1.665.619,5.581,2.516,5.581,4.594Zm0-9.015c-1.593-2.049-5.261-3.381-5.458-3.452-.006,0-.011,0-.017,0a.307.307,0,0,0-.035-.007l-.034-.006h-.07l-.04.006a.2.2,0,0,0-.029.007l-.019,0c-.2.071-3.866,1.4-5.459,3.452v-3.841h11.162Zm4.085,9.015h-2.062v-2.327h2.062Zm0-4.054v1h-2.062v-1.821a2.3,2.3,0,0,1,1.03-.648,2.4,2.4,0,0,1,1.031.641Zm0-1.776a4.91,4.91,0,0,0-.909-.426l-.018-.006-.031-.007a.263.263,0,0,0-.04-.007h-.03a.224.224,0,0,0-.042,0l-.029,0-.04.009-.015,0a4.655,4.655,0,0,0-.908.422v-.523h2.062Zm1.063-4.715h-2.991a.364.364,0,0,0-.365.364.365.365,0,0,0,.365.364h2.991v9.817h-.336v-6.72a.364.364,0,0,0-.364-.364h-2.79a.364.364,0,0,0-.364.364v6.72h-.566V408.761a.364.364,0,0,0-.365-.364h-11.89a.363.363,0,0,0-.364.364v13.221h-.566v-6.72a.364.364,0,0,0-.364-.364h-2.79a.364.364,0,0,0-.364.364v6.72h-.335v-9.817h2.99A.365.365,0,0,0-404,411.8a.364.364,0,0,0-.365-.364h-2.99v-1.581h2.092a.364.364,0,0,0,.365-.364v-3.52h16.541v3.52a.364.364,0,0,0,.365.364h2.094Zm8.846,10.545h-2.062v-2.327h2.062Zm-2.062-6.356h2.062v.526a4.922,4.922,0,0,0-.908-.426l-.018,0-.032-.008a.244.244,0,0,0-.04-.007h-.03a.21.21,0,0,0-.041,0l-.03,0-.04.009-.015,0a4.672,4.672,0,0,0-.909.422Zm0,2.12v-.641a2.31,2.31,0,0,1,1.031-.648,2.4,2.4,0,0,1,1.031.641v1.827h-2.062v-1.18Zm4.21-4.331v1.748a8.887,8.887,0,0,0-2.911-1.748Zm-6.357,0h2.913a11.834,11.834,0,0,0-1.693.823,6.118,6.118,0,0,0-1.22.925Zm4.315-6.871h.139v2.584h-.139Zm-2.952-2.588a2.225,2.225,0,0,1,2.191,1.861h-4.382A2.226,2.226,0,0,1-379.893,403.956Zm2.223,2.588v2.584h-1.062v-2.584Zm-1.791,0v2.584h-.866v-2.584Zm-2.656,0h1.062v2.584h-1.062Zm-.778,0h.049v2.584h-.049Zm11.351,4.893h-13.62v-1.581h13.62Z" transform="translate(427.398 -390.295)"/><path class="a" d="M-420.292,447.179v.526a4.892,4.892,0,0,0-.907-.426l-.019-.006h-.007a1.787,1.787,0,0,0,1.072.616l.316.055a1.878,1.878,0,0,1,.273.072v-1.2a.364.364,0,0,0-.363-.364h-1.681a1.766,1.766,0,0,0,.311.728Z" transform="translate(424.145 -421.848)"/></g><g transform="translate(-434.419 324.253)"><path class="a" d="M-367.326,371.836l-.223-.23a1.849,1.849,0,0,1-.105-2.352l.2-.249a2.136,2.136,0,0,0,.466-1.642,2.139,2.139,0,0,0-.886-1.461l-.261-.186a1.848,1.848,0,0,1-.524-2.3l.155-.281a2.138,2.138,0,0,0,.165-1.7,2.139,2.139,0,0,0-1.132-1.278l-.291-.138a1.847,1.847,0,0,1-.925-2.165l.1-.3a2.141,2.141,0,0,0-.142-1.7,2.137,2.137,0,0,0-1.342-1.055l-.311-.084a1.848,1.848,0,0,1-1.3-1.964l.046-.319a2.132,2.132,0,0,0-.443-1.649,2.136,2.136,0,0,0-1.509-.8l-.32-.027a1.847,1.847,0,0,1-1.626-1.7l-.012-.321a2.142,2.142,0,0,0-2.142-2.071c-.072,0-.144,0-.215.012l-.321.031a1.8,1.8,0,0,1-1.312-.435v.875a2.5,2.5,0,0,0,1.161.295c.074,0,.149,0,.221-.011l.32-.031a1.4,1.4,0,0,1,1.559,1.362l.012.321a2.572,2.572,0,0,0,2.295,2.4l.32.028a1.412,1.412,0,0,1,1,.525,1.415,1.415,0,0,1,.29,1.093l-.046.319a2.572,2.572,0,0,0,1.829,2.77l.311.083a1.419,1.419,0,0,1,.89.7,1.414,1.414,0,0,1,.091,1.128l-.1.305a2.57,2.57,0,0,0,1.3,3.051l.291.138a1.412,1.412,0,0,1,.751.844,1.412,1.412,0,0,1-.111,1.126l-.154.283a2.569,2.569,0,0,0,.739,3.235l.261.188a1.417,1.417,0,0,1,.589.965,1.416,1.416,0,0,1-.311,1.086l-.2.251a2.571,2.571,0,0,0,.149,3.316l.223.231a1.416,1.416,0,0,1,.407,1.055,1.416,1.416,0,0,1-.5,1.014l-.244.209a2.571,2.571,0,0,0-.446,3.289l.178.267a1.413,1.413,0,0,1,.213,1.111,1.417,1.417,0,0,1-.673.908l-.277.163a2.572,2.572,0,0,0-1.025,3.157l.128.294a1.411,1.411,0,0,1,.01,1.13,1.409,1.409,0,0,1-.823.774l-.3.111a2.571,2.571,0,0,0-1.573,2.923l.074.313a1.415,1.415,0,0,1-.192,1.114,1.415,1.415,0,0,1-.948.613l-.317.056a2.571,2.571,0,0,0-2.069,2.595l.016.321a1.416,1.416,0,0,1-.385,1.059,1.417,1.417,0,0,1-1.046.437h-.336a2.575,2.575,0,0,0-2.486,2.184l-.041.318A1.4,1.4,0,0,1-381.9,399a1.513,1.513,0,0,1-.276-.026l-.315-.059a2.361,2.361,0,0,0-.431-.04,2.582,2.582,0,0,0-2.418,1.742l-.1.306a1.411,1.411,0,0,1-1.343,1,1.457,1.457,0,0,1-.522-.1l-.3-.116a2.379,2.379,0,0,0-.853-.155,2.565,2.565,0,0,0-2.255,1.321l-.15.285a1.415,1.415,0,0,1-1.248.764,1.45,1.45,0,0,1-.748-.213l-.274-.166a2.448,2.448,0,0,0-1.27-.346,2.548,2.548,0,0,0-2,.938l-.2.253a1.416,1.416,0,0,1-1.115.551,1.433,1.433,0,0,1-.947-.365l-.24-.213a2.5,2.5,0,0,0-1.66-.609,2.5,2.5,0,0,0-1.66.609l-.24.213a1.431,1.431,0,0,1-.947.365,1.418,1.418,0,0,1-1.116-.551l-.2-.251a2.545,2.545,0,0,0-2-.939,2.447,2.447,0,0,0-1.269.346l-.275.166a1.446,1.446,0,0,1-.748.213,1.415,1.415,0,0,1-1.248-.764l-.151-.285a2.563,2.563,0,0,0-2.255-1.321,2.38,2.38,0,0,0-.852.155l-.3.116a1.459,1.459,0,0,1-.522.1,1.408,1.408,0,0,1-1.343-1l-.1-.306a2.582,2.582,0,0,0-2.418-1.742,2.348,2.348,0,0,0-.431.04l-.316.059a1.513,1.513,0,0,1-.276.026,1.4,1.4,0,0,1-1.4-1.243l-.041-.318a2.579,2.579,0,0,0-2.5-2.184h-.332a1.415,1.415,0,0,1-1.037-.437,1.414,1.414,0,0,1-.384-1.059l.017-.321a2.572,2.572,0,0,0-2.07-2.595l-.316-.056a1.417,1.417,0,0,1-.949-.613,1.417,1.417,0,0,1-.191-1.114l.074-.313a2.573,2.573,0,0,0-1.573-2.924l-.3-.11a1.413,1.413,0,0,1-.824-.774,1.412,1.412,0,0,1,.01-1.13l.129-.294a2.572,2.572,0,0,0-1.026-3.157l-.277-.163a1.415,1.415,0,0,1-.673-.909,1.417,1.417,0,0,1,.212-1.109l.179-.267a2.571,2.571,0,0,0-.446-3.289l-.243-.209a1.416,1.416,0,0,1-.5-1.014,1.409,1.409,0,0,1,.407-1.055l.223-.231a2.572,2.572,0,0,0,.149-3.316l-.2-.249a1.417,1.417,0,0,1-.311-1.087,1.413,1.413,0,0,1,.589-.965l.261-.188a2.571,2.571,0,0,0,.739-3.235l-.154-.283a1.415,1.415,0,0,1-.112-1.126,1.418,1.418,0,0,1,.752-.844l.29-.138a2.571,2.571,0,0,0,1.3-3.051l-.1-.306a1.414,1.414,0,0,1,.091-1.127,1.42,1.42,0,0,1,.89-.7l.311-.083a2.571,2.571,0,0,0,1.828-2.77l-.045-.319a1.416,1.416,0,0,1,.291-1.093,1.41,1.41,0,0,1,1-.525l.321-.028a2.57,2.57,0,0,0,2.294-2.4l.013-.321a1.4,1.4,0,0,1,1.56-1.362l.32.031c.073.007.148.011.221.011a2.491,2.491,0,0,0,1.161-.295v-.874a1.792,1.792,0,0,1-1.312.434l-.32-.031c-.071-.007-.144-.012-.215-.012a2.141,2.141,0,0,0-2.142,2.071l-.013.321a1.846,1.846,0,0,1-1.626,1.7l-.321.027a2.139,2.139,0,0,0-1.509.8,2.137,2.137,0,0,0-.442,1.649l.046.319a1.847,1.847,0,0,1-1.3,1.964l-.31.084a2.137,2.137,0,0,0-1.342,1.055,2.134,2.134,0,0,0-.141,1.7l.1.3a1.847,1.847,0,0,1-.926,2.165l-.29.138a2.136,2.136,0,0,0-1.132,1.277,2.14,2.14,0,0,0,.165,1.7l.154.281a1.848,1.848,0,0,1-.524,2.3l-.261.186a2.141,2.141,0,0,0-.886,1.461A2.138,2.138,0,0,0-433.68,369l.2.249a1.849,1.849,0,0,1-.106,2.352l-.223.231a2.133,2.133,0,0,0-.611,1.593,2.133,2.133,0,0,0,.751,1.533l.243.21a1.848,1.848,0,0,1,.316,2.334l-.178.266a2.136,2.136,0,0,0-.317,1.677,2.135,2.135,0,0,0,1.013,1.374l.277.164a1.847,1.847,0,0,1,.728,2.238l-.129.295a2.139,2.139,0,0,0-.013,1.707,2.139,2.139,0,0,0,1.243,1.171l.3.11a1.85,1.85,0,0,1,1.115,2.074l-.074.312a2.136,2.136,0,0,0,.293,1.682,2.134,2.134,0,0,0,1.431.931l.316.055a1.849,1.849,0,0,1,1.468,1.841l-.017.321a2.144,2.144,0,0,0,.584,1.6,2.146,2.146,0,0,0,1.579.663h.331a1.85,1.85,0,0,1,1.763,1.549l.041.319a2.125,2.125,0,0,0,2.121,1.878,2.207,2.207,0,0,0,.411-.039l.315-.059a1.593,1.593,0,0,1,.3-.028,1.861,1.861,0,0,1,1.724,1.235l.1.306a2.137,2.137,0,0,0,2.037,1.5,2.191,2.191,0,0,0,.783-.147l.3-.115a1.661,1.661,0,0,1,.592-.107,1.854,1.854,0,0,1,1.612.934l.15.285a2.146,2.146,0,0,0,1.893,1.151,2.165,2.165,0,0,0,1.124-.319l.276-.167a1.715,1.715,0,0,1,.891-.24,1.813,1.813,0,0,1,1.425.661l.2.252a2.137,2.137,0,0,0,1.688.828,2.157,2.157,0,0,0,1.43-.548l.24-.213a1.769,1.769,0,0,1,1.177-.426,1.766,1.766,0,0,1,1.178.427l.24.212a2.157,2.157,0,0,0,1.43.548,2.14,2.14,0,0,0,1.688-.828l.2-.253a1.814,1.814,0,0,1,1.424-.66,1.719,1.719,0,0,1,.892.24l.276.167a2.165,2.165,0,0,0,1.125.319,2.145,2.145,0,0,0,1.892-1.151l.151-.285a1.852,1.852,0,0,1,1.611-.934,1.656,1.656,0,0,1,.592.107l.3.115a2.184,2.184,0,0,0,.782.147,2.138,2.138,0,0,0,2.037-1.5l.1-.306a1.86,1.86,0,0,1,1.724-1.235,1.609,1.609,0,0,1,.3.028l.315.059a2.208,2.208,0,0,0,.411.039,2.125,2.125,0,0,0,2.121-1.878l.041-.319a1.852,1.852,0,0,1,1.773-1.549h.336a2.133,2.133,0,0,0,1.564-.664,2.134,2.134,0,0,0,.584-1.6l-.017-.321a1.85,1.85,0,0,1,1.468-1.841l.317-.055a2.138,2.138,0,0,0,1.432-.931,2.141,2.141,0,0,0,.292-1.682l-.074-.312a1.849,1.849,0,0,1,1.115-2.074l.3-.11a2.135,2.135,0,0,0,1.242-1.171,2.134,2.134,0,0,0-.013-1.707l-.127-.295a1.846,1.846,0,0,1,.727-2.238l.277-.164a2.133,2.133,0,0,0,1.013-1.374,2.138,2.138,0,0,0-.317-1.677l-.179-.268a1.845,1.845,0,0,1,.316-2.332l.244-.211a2.134,2.134,0,0,0,.751-1.533A2.136,2.136,0,0,0-367.326,371.836Z" transform="translate(434.419 -345.473)"/></g><path class="a" d="M-363.108,326.443a.364.364,0,0,0-.32-.19h-1.536v-4.062a.364.364,0,0,0-.365-.364h-.472v-2.705a.364.364,0,0,0-.365-.364h-2.868v-6.73a.364.364,0,0,0-.364-.364h-6.511v-.591a.365.365,0,0,0-.364-.364h-1.341a24.712,24.712,0,0,0-3.662-1.842v-.544a.363.363,0,0,0-.305-.36,20.111,20.111,0,0,0-2.419-.256,20.123,20.123,0,0,0-2.418.256.364.364,0,0,0-.306.36v.544a24.714,24.714,0,0,0-3.661,1.842h-1.34a.365.365,0,0,0-.365.364v.591H-398.6a.365.365,0,0,0-.364.364v6.73h-2.869a.363.363,0,0,0-.364.364v2.705h-.473a.364.364,0,0,0-.365.364v4.062h-1.536a.364.364,0,0,0-.318.19.362.362,0,0,0,.013.371l1.842,2.888v9.465h-.261a.364.364,0,0,0-.365.364.364.364,0,0,0,.365.364h.261v5.151h-.261a.365.365,0,0,0-.365.365.364.364,0,0,0,.365.364h.261v12.15h-.261a.365.365,0,0,0-.365.364.364.364,0,0,0,.365.364h.261v.122a2.478,2.478,0,0,1,.729-.994V345.775h.926v11.547a3.368,3.368,0,0,1,.729-.116V345.775h6.081v12.15h-4.018a1.846,1.846,0,0,1,.32.728h3.7v3.341h-2.711c0,.281-.006.533-.009.729h3.361c.035-.183.079-.445.114-.729h-.027v-1.323a.5.5,0,0,0-.067-.129,4.968,4.968,0,0,1-.072-3.5c.039-.066.087-.154.139-.251V345.775h1.117V354.8c.216-.346.459-.707.728-1.068v-7.96h1.352v6.431a8.432,8.432,0,0,1,.728-.614v-5.816h.263a.364.364,0,0,0,.364-.364.365.365,0,0,0-.364-.365h-.263V339.9h.263a.364.364,0,0,0,.364-.364.363.363,0,0,0-.28-.353A5.931,5.931,0,0,1-384,335.256a5.932,5.932,0,0,1,5.574,3.922.363.363,0,0,0-.28.353.363.363,0,0,0,.364.364h.262v5.151h-.262a.364.364,0,0,0-.364.365.364.364,0,0,0,.364.364h.262v5.841a6.064,6.064,0,0,1,.591.477c.044.041.091.09.136.135v-6.454H-376v8.072c.25.344.5.705.728,1.074v-9.146h1.116V357.14a3.57,3.57,0,0,1,.2.882,8.722,8.722,0,0,1-.2,2.667v1.306h-.012v.729h3.455v-.729h-2.715v-3.341h3.96a2.962,2.962,0,0,1,.551-.728h-4.511v-12.15h6.08v11.451c.057-.006.11-.017.17-.02a2.851,2.851,0,0,1,.559.029V345.775h.925V357.59a2.4,2.4,0,0,1,.815,1.063h.176a.364.364,0,0,0,.364-.364.365.365,0,0,0-.364-.364h-.262v-12.15h.262a.364.364,0,0,0,.364-.364.365.365,0,0,0-.364-.365h-.262V339.9h.262a.364.364,0,0,0,.364-.364.364.364,0,0,0-.364-.364h-.262V329.7l1.843-2.888A.364.364,0,0,0-363.108,326.443Zm-28.253-15.007h1.078a.36.36,0,0,0,.191-.053,23.432,23.432,0,0,1,3.844-1.909.363.363,0,0,0,.253-.347v-.493a16.839,16.839,0,0,1,2-.2,16.819,16.819,0,0,1,2,.2v.493a.364.364,0,0,0,.254.347,23.449,23.449,0,0,1,3.844,1.909.36.36,0,0,0,.191.053h1.078v.227h-14.724Zm-10.019,33.609h-.926V339.9h.926Zm6.809,0h-6.081V339.9h6.081Zm0-5.879h-6.081v-2.828h6.081Zm1.844,5.879h-1.117V339.9h1.117Zm0-5.879h-1.117v-3.192a.365.365,0,0,0-.364-.365h-6.809a.365.365,0,0,0-.365.365v3.192h-.926v-8.73h9.579Zm-6.189-9.458v-1.237h.109v1.237Zm2.973,0v-1.237h.11v1.237Zm2.972,0v-1.237h.11v1.237Zm2.324,15.337H-392V339.9h1.352ZM-392,339.167v-7.893h7.386l.076.608a7.681,7.681,0,0,0-7.124,7.285Zm1.362,0h-.3a6.952,6.952,0,0,1,6.485-6.562l.036.293A6.657,6.657,0,0,0-390.637,339.167Zm13.276,0a6.657,6.657,0,0,0-6.227-6.27l.036-.293a6.951,6.951,0,0,1,6.485,6.562Zm1.362,5.879h-1.352V339.9H-376Zm0-5.879h-.338a7.679,7.679,0,0,0-7.124-7.285l.076-.608H-376Zm0-8.62h-16v-.11h16Zm-14-.839v-1.237h.109v1.237Zm2.972,0v-1.237h.11v1.237Zm2.972,0v-1.237h.11v1.237Zm2.973,0v-1.237h.11v1.237Zm2.973,0v-1.237h.11v1.237Zm3.954,15.337h-1.116V339.9h1.116Zm6.808,0h-6.08V339.9h6.08Zm0-5.879h-6.08v-2.828h6.08Zm1.654,5.879h-.925V339.9h.925Zm0-5.879h-.925v-3.192a.365.365,0,0,0-.365-.365h-6.809a.365.365,0,0,0-.364.365v3.192h-1.116v-8.73h9.579Zm-9.444-9.458v-1.237h.11v1.237Zm2.973,0v-1.237h.11v1.237Zm2.972,0v-1.237h.11v1.237Zm3.5,0h-2.661v-1.6a.365.365,0,0,0-.365-.365h-.837a.364.364,0,0,0-.365.365v1.6h-1.406v-1.6a.364.364,0,0,0-.364-.365h-.839a.363.363,0,0,0-.363.365v1.6H-374.3v-1.6a.364.364,0,0,0-.364-.365h-.838a.365.365,0,0,0-.365.365v1.6h-1.406v-1.6a.364.364,0,0,0-.364-.365h-.838a.364.364,0,0,0-.364.365v1.6h-1.407v-1.6a.364.364,0,0,0-.364-.365h-.838a.364.364,0,0,0-.364.365v1.6h-1.406v-1.6a.364.364,0,0,0-.363-.365h-.839a.365.365,0,0,0-.365.365v1.6h-1.405v-1.6a.365.365,0,0,0-.365-.365h-.838a.365.365,0,0,0-.365.365v1.6h-1.406v-1.6a.364.364,0,0,0-.364-.365h-.838a.364.364,0,0,0-.364.365v1.6h-1.406v-1.6a.364.364,0,0,0-.364-.365h-.838a.364.364,0,0,0-.364.365v1.6h-1.406v-1.6a.364.364,0,0,0-.363-.365h-.839a.364.364,0,0,0-.364.365v1.6h-1.406v-1.6a.364.364,0,0,0-.363-.365h-.838a.364.364,0,0,0-.365.365v1.6h-2.662V327.5a.412.412,0,0,0,.054.006h.838a.364.364,0,0,0,.364-.364.364.364,0,0,0-.036-.157h1.479a.363.363,0,0,0-.036.157.365.365,0,0,0,.365.364h.838a.365.365,0,0,0,.364-.364.369.369,0,0,0-.036-.157h1.478a.364.364,0,0,0-.036.157.365.365,0,0,0,.364.364h.839a.364.364,0,0,0,.363-.364.377.377,0,0,0-.035-.157h1.478a.364.364,0,0,0-.036.157.364.364,0,0,0,.364.364h.838a.364.364,0,0,0,.364-.364.364.364,0,0,0-.036-.157h1.479a.37.37,0,0,0-.036.157.365.365,0,0,0,.364.364h.838a.364.364,0,0,0,.364-.364.364.364,0,0,0-.036-.157h1.479a.371.371,0,0,0-.037.157.365.365,0,0,0,.365.364h.838a.365.365,0,0,0,.365-.364.369.369,0,0,0-.036-.157h1.479a.364.364,0,0,0-.037.157.365.365,0,0,0,.365.364h.839a.365.365,0,0,0,.363-.364.363.363,0,0,0-.036-.157h1.479a.37.37,0,0,0-.036.157.365.365,0,0,0,.364.364h.838a.364.364,0,0,0,.364-.364.382.382,0,0,0-.035-.157h1.478a.363.363,0,0,0-.036.157.364.364,0,0,0,.364.364h.838a.364.364,0,0,0,.364-.364.364.364,0,0,0-.036-.157h1.479a.377.377,0,0,0-.036.157.365.365,0,0,0,.365.364h.838a.365.365,0,0,0,.364-.364.364.364,0,0,0-.036-.157h1.479a.358.358,0,0,0-.036.157.364.364,0,0,0,.363.364h.839a.365.365,0,0,0,.364-.364.364.364,0,0,0-.036-.157h1.479a.363.363,0,0,0-.036.157.365.365,0,0,0,.365.364h.837a.365.365,0,0,0,.365-.364.37.37,0,0,0-.036-.157h1.478a.369.369,0,0,0-.036.157.365.365,0,0,0,.364.364h.838a.413.413,0,0,0,.054-.006Zm0-3.455h-36.613v-3.7h.472a.366.366,0,0,0,.365-.365v-2.705h2.868a.363.363,0,0,0,.364-.364v-6.729h28.476v6.729a.364.364,0,0,0,.364.364h2.868v2.705a.365.365,0,0,0,.364.365h.473Z" transform="translate(-16.567)"/></g></svg>