<svg xmlns="http://www.w3.org/2000/svg" width="101.639" height="101.639" viewBox="0 0 101.639 101.639">
  <g id="Group_9700" data-name="Group 9700" transform="translate(-876 -1994)">
    <g id="Group_9699" data-name="Group 9699">
      <circle id="Ellipse_16" data-name="Ellipse 16" cx="50.819" cy="50.819" r="50.819" transform="translate(876 1994)" fill="#ffcb57"/>
      <rect id="Rectangle_3472" data-name="Rectangle 3472" width="68" height="68" transform="translate(893 2011)" fill="none"/>
    </g>
    <g id="Expert" transform="translate(0 3)">
      <g id="Group_9678" data-name="Group 9678" transform="translate(514.959 1641.28)">
        <path id="Subtraction_5" data-name="Subtraction 5" d="M59.546,62.96H30.261l-.5,0c-9.144-.04-17-.062-22.115-.062-4.932,0-7.5.019-7.628.058v-.181c-.008-2.766-.023-9.212,0-9.315.466-4.366,3.408-5.239,8.282-6.684l.022-.007c1.057-.314,2.253-.67,3.513-1.09,1.041-.347,2.026-.706,3.011-1.1.1-.041.682-.307,1.216-.553l1.265-.587.266-.126.005,0c.517-.243.928-.436,1.114-.526l.5,1.059.021.043.281.6.16.338c.224.473.435.92.649,1.366a44.867,44.867,0,0,0,3.522,6.352L22.5,49.8l-3.506-7.153-.251-.511c.477-1.715,2.358-3.291,3.96-4.194l0,.151,0,0a22.4,22.4,0,0,0,5.154,5.255A22.416,22.416,0,0,1,22.708,38.1V36.765l.108.079.013.009.013.009.028.02c.06.043.121.087.182.128l.008.006.008.006.008.005,0,0,0,0,.011.007.062.042.145.1.009.006.007,0,.02.014.005,0,.21.135-.029-.019.038.024.007,0,.021.014.011.007-.006,0,.031.021.023.014.039.025.09.056.012.007.133.082.017.011.028.018a13.852,13.852,0,0,1,1.134.829c.249.194.507.395.766.585.162.12.318.231.464.329.073.049.149.1.223.145s.185.114.29.172l.01,0a3,3,0,0,0,.542.238.61.61,0,0,0,.084.021l.033,0,.071.012a4.407,4.407,0,0,0,.522.033h.3c.1,0,.209,0,.3-.009l.047,0,.1,0,.273-.015.216-.014.112-.008.072-.006.069-.006c.125.011.779.066,1.369.066.076,0,.151,0,.224,0,.117,0,.207-.008.283-.016a2.279,2.279,0,0,0,.235-.032l.025-.005.041-.01.02,0c.075-.023.153-.052.232-.086.04-.017.08-.035.121-.055a4.6,4.6,0,0,0,.447-.247l.066-.041c.178-.113.36-.237.541-.368l.015-.011c.041-.03.081-.059.122-.09l.082-.062.192-.145.174-.134.1-.075.212-.164a13.972,13.972,0,0,1,1.134-.828l.091-.056.155-.1c.159-.1.331-.209.511-.33s.358-.247.542-.385l.049-.038.05-.037.09,1.2c1.544.877,3.519,2.525,4.005,4.277l-.248.506,0,0-2.211,4.513-2.634,5.378,0,0,0,0,.008-.009c.1-.139.194-.28.3-.431l0-.005c.056-.084.11-.168.159-.244l.046-.071.03-.045c.021-.031.04-.06.058-.089l.006-.01.005-.01a61.237,61.237,0,0,0,3.551-6.865l.01-.021.037-.079c.275-.588.557-1.192.849-1.807l.008-.019a.589.589,0,0,0,.025-.054c.495.251,1,.5,1.518.737.483.225.979.446,1.475.657l.037.015.039.017c.033.014.065.028.1.041.3.125.564.234.814.334.953.381,1.945.742,3.03,1.1,1.29.431,2.535.8,3.534,1.094,4.875,1.446,7.817,2.319,8.283,6.685l-.006,9.5ZM27.485,57.718v.266h3.762v-.021h.124V44.675l.025.031.044.06.035.047c.082.109.168.226.264.359.3.424.6.893.916,1.436.116.194.238.409.375.657l0,0c.132.237.245.444.354.652.031.058.061.116.091.175l0,.008.052.1.076.142.005.01c.041.079.082.157.123.237.079.155.158.314.231.462.046.09.09.178.136.27l.017.035.022.046.027.055c.213.436.435.9.679,1.419l.041.088.043.093c.092.2.214.457.336.726l.016.034.3.659.031.068a37.194,37.194,0,0,0-1.313-3.6c-.106-.244-.219-.491-.346-.754a14.937,14.937,0,0,0-1.444-2.438l-.037-.051c-.022-.031-.044-.061-.066-.09l-.024-.029c-.058-.076-.122-.157-.189-.24l-.049-.059-.058-.069c-.041-.048-.081-.1-.122-.142L31.909,45l-.054-.062c-.039-.042-.082-.087-.125-.132l-.031-.033c-.029-.031-.059-.063-.088-.094l-.132-.131c-.05-.049-.1-.1-.151-.144-.085-.08-.177-.162-.28-.249l-.031-.027c-.106-.089-.2-.168-.3-.242l-.016-.012-.031-.024.014.015c.014.015.029.03.042.045l.03.032.038.04.058.062c.031.035.07.078.105.12l.027.03.025.029.026.03V57.718ZM29.66,54.1a.863.863,0,0,0,0,1.725h.015a.862.862,0,0,0,.848-.877A.866.866,0,0,0,29.66,54.1Zm-.865-10.256a8.956,8.956,0,0,0-1.553,1.523,12.66,12.66,0,0,0-1.1,1.6c-.086.147-.167.294-.243.432-.066.119-.126.237-.19.361l-.042.081c-.081.156-.154.31-.22.452l-.036.077c-.058.124-.117.251-.175.381s-.129.3-.2.464c-.393.934-.769,1.983-1.185,3.3l0,.01,0,.007a.017.017,0,0,0,0,.006l.064-.143.05-.109c.1-.212.2-.431.3-.648l.347-.751.036-.077.016-.035.027-.056c.018-.04.037-.08.055-.119l.014-.029,0-.005c.014-.029.028-.058.042-.088l.03-.065.527-1.09.031-.061.015-.03c.056-.114.111-.224.163-.325.193-.386.393-.771.594-1.147l.006-.012c.063-.117.117-.218.174-.319.011-.022.023-.043.034-.064l.022-.04.025-.043.069-.122.025-.046c.01-.019.02-.035.03-.053l0-.006.014-.024.02-.034c.133-.235.242-.422.343-.589v.016a.038.038,0,0,0,0-.01.018.018,0,0,1,0-.01c.33-.547.633-1.009.926-1.41a10.9,10.9,0,0,1,.95-1.151Zm.865,5.577h0a.862.862,0,0,0,0,1.725h.015a.862.862,0,0,0-.015-1.724Zm0-4.678h0a.862.862,0,0,0,0,1.725h.015a.862.862,0,0,0,.847-.877.866.866,0,0,0-.861-.848Zm7.072-6.59c-.028.042-2.844,4.206-5.458,5.418C33.887,42.362,36.7,38.2,36.732,38.156Zm-8.643.346H28.08c-.67,0-2.683-1.331-3.651-1.97-.149-.1-.276-.182-.374-.246A16.87,16.87,0,0,1,21.547,34.3,16.9,16.9,0,0,1,20,31.517c-.039-.4-.075-.79-.107-1.136.232.024.416.036.424.036l0-.022c-.022,0-.044,0-.068,0h-.018a1.849,1.849,0,0,1-1.942-1.358,23.5,23.5,0,0,1-.49-3.22c-.007-.024-.738-2.465.031-3.169a1.018,1.018,0,0,1,.246-.164c-.15-1.385-.29-3.116-.384-4.749a15.188,15.188,0,0,1,.233-7.848,11.718,11.718,0,0,1,3.668-6.262l-.008.009c-.021.032-.041.065-.061.1l-.05.081c-.055.086-.11.174-.163.26-.117.19-.236.394-.355.607l0,0a23.728,23.728,0,0,0-2.669,11.2l.029.194.024-.014.024-.013A21.328,21.328,0,0,1,29.2,13.465l.424,0H29.7l.4,0a21.326,21.326,0,0,1,10.876,2.6l.011.007.062-.259A23.746,23.746,0,0,0,38.422,4.756c-.085-.155-.169-.3-.251-.441-.022-.04-.047-.08-.071-.119l-.009-.015c-.117-.2-.229-.374-.343-.547A12.826,12.826,0,0,1,41.6,9.455a14,14,0,0,1,.211,8.028,2.234,2.234,0,0,1-.1.373c-.154,1.306-.377,3.007-.6,4.55h.018a.712.712,0,0,1,.239.04.985.985,0,0,1,.341.2c.77.706.039,3.144.031,3.169a23.455,23.455,0,0,1-.49,3.22A1.847,1.847,0,0,1,39.316,30.4H39.3c-.036.414-.074.817-.112,1.2a17.328,17.328,0,0,1-1.5,2.708c-.212.267-5.316,4.187-6.1,4.187-.286,0-.717,0-1.172-.005-.537,0-1.09-.007-1.52-.007-.457,0-.693,0-.721.012A.343.343,0,0,1,28.089,38.5ZM39.9,21.189h0c-.047.729-.109,1.537-.193,2.468.081-.892.144-1.7.194-2.471a1.248,1.248,0,0,0,.674-.4,2.238,2.238,0,0,0,.278-.436,1.428,1.428,0,0,1-.924.406l-.033,0c-.041,0-.083.006-.124.006A1.317,1.317,0,0,1,39,20.515a14.961,14.961,0,0,0-9.317-2.993,15.352,15.352,0,0,0-9.373,2.993,1.267,1.267,0,0,1-.691.244H19.5a1.685,1.685,0,0,1-.248-.018,1.37,1.37,0,0,1-.806-.389,2.277,2.277,0,0,0,.277.436,1.19,1.19,0,0,0,.5.347,1.382,1.382,0,0,0,1.319-.161A14.42,14.42,0,0,1,29.676,17.9a14.066,14.066,0,0,1,9.073,3.077,1.306,1.306,0,0,0,1.149.213ZM18.584,22.434h0a1.006,1.006,0,0,1,.564.323A1,1,0,0,0,18.584,22.434Zm-.157-6.642v0a29.29,29.29,0,0,1,.921-6.815,18.378,18.378,0,0,1,2.359-5.363,13.567,13.567,0,0,1,7.916-2.8l.01,0h.007l.022,0a.177.177,0,0,1,.029,0l.011,0v0a13.621,13.621,0,0,1,7.948,2.777c2.024,3.1,3.038,6.977,3.189,12.2A20.538,20.538,0,0,0,30.1,13.145l-.4,0v-.023h-.016l-.024,0-.021,0-.016,0v.023c-.123,0-.257,0-.411,0A20.719,20.719,0,0,0,18.428,15.79ZM29.684,4.868a.093.093,0,0,0-.037.008c-.052.022-.057.066-.059.118s0,.087,0,.132c-.005.121-.034.154-.153.176l-.095.016c-.086.015-.175.03-.261.051a2.772,2.772,0,0,0-1.3.751.028.028,0,0,0-.018.017l-.019.017a2.851,2.851,0,1,0,4.125,3.937,2.726,2.726,0,0,0,.77-1.972h0a.4.4,0,0,0-.4-.372.358.358,0,0,0-.353.295v.005c-.012.062-.019.126-.026.187,0,.037-.008.072-.013.108-.012.122-.029.241-.052.355a1.663,1.663,0,0,1-.238.535,2.033,2.033,0,0,1-1.984.963,1.942,1.942,0,0,1-.442-.086,2.457,2.457,0,0,1-.425-.2c-.007,0-.012,0-.014,0A.022.022,0,0,0,28.68,9.9l-.154-.122a2.161,2.161,0,0,1-.669-.859,2.038,2.038,0,0,1-.117-1.1,1.975,1.975,0,0,1,.73-1.29,2.158,2.158,0,0,1,.993-.444.224.224,0,0,1,.04,0c.054,0,.077.028.083.1,0,.022,0,.045,0,.067v.032c0,.054,0,.109,0,.164a.091.091,0,0,0,.09.091.093.093,0,0,0,.055-.018.24.24,0,0,0,.034-.025l.77-.677c.056-.049.08-.089.079-.127s-.028-.078-.089-.127L30.5,5.534c-.075-.06-.153-.121-.226-.184-.126-.108-.25-.218-.374-.327l-.124-.109A.141.141,0,0,0,29.684,4.868ZM32,5.7a.294.294,0,0,0-.219.1l-2.5,2.5a.388.388,0,0,0-.037.041.065.065,0,0,0-.009.013.293.293,0,0,0,.457.364l1.64-1.639.866-.866a.31.31,0,0,0,.1-.238.268.268,0,0,0-.058-.158A.3.3,0,0,0,32,5.7ZM27.789.943h0C27.915.4,28.721,0,29.663,0s1.746.4,1.871.941C30.944.843,30.328.772,29.7.73V.724l-.039,0-.028,0h-.011c-.63.043-1.247.115-1.832.213Z" transform="translate(382.037 369.72)" fill="#151515" stroke="rgba(0,0,0,0)" stroke-miterlimit="10" stroke-width="1"/>
      </g>
    </g>
  </g>
</svg>
