<svg xmlns="http://www.w3.org/2000/svg" width="101.639" height="101.639" viewBox="0 0 101.639 101.639">
  <g id="Group_9699" data-name="Group 9699" transform="translate(-247 -1313)">
    <path id="Path_26708" data-name="Path 26708" d="M50.819,0A50.819,50.819,0,1,1,0,50.819,50.819,50.819,0,0,1,50.819,0Z" transform="translate(247 1313)" fill="#ffcb57"/>
    <path id="Path_949" data-name="Path 949" d="M818.322,2560.049a.661.661,0,0,0-.63-.458H803.872l-4.063-13.137a.689.689,0,0,0-1.264,0l-4.063,13.137h-13.82a.661.661,0,0,0-.386,1.2L791.649,2569l-4.875,13.131a.661.661,0,0,0,1.006.766l11.4-8.223,11.4,8.223a.648.648,0,0,0,.386.125.66.66,0,0,0,.62-.891L806.7,2569l11.374-8.208A.663.663,0,0,0,818.322,2560.049Z" transform="translate(-500.562 -1208.202)"/>
    <path id="Path_949-2" data-name="Path 949" d="M803.752,2554.722a.409.409,0,0,0-.39-.284H794.8l-2.518-8.143a.427.427,0,0,0-.784,0l-2.518,8.143H780.41a.409.409,0,0,0-.239.742l7.049,5.087-3.021,8.139a.41.41,0,0,0,.624.475l7.063-5.1,7.063,5.1a.407.407,0,0,0,.488-.006.409.409,0,0,0,.136-.469l-3.021-8.139,7.049-5.087A.411.411,0,0,0,803.752,2554.722Z" transform="translate(-519.318 -1189.446)"/>
    <path id="Path_949-3" data-name="Path 949" d="M803.752,2554.722a.409.409,0,0,0-.39-.284H794.8l-2.518-8.143a.427.427,0,0,0-.784,0l-2.518,8.143H780.41a.409.409,0,0,0-.239.742l7.049,5.087-3.021,8.139a.41.41,0,0,0,.624.475l7.063-5.1,7.063,5.1a.407.407,0,0,0,.488-.006.409.409,0,0,0,.136-.469l-3.021-8.139,7.049-5.087A.411.411,0,0,0,803.752,2554.722Z" transform="translate(-469.301 -1189.446)"/>
  </g>
</svg>
