<svg xmlns="http://www.w3.org/2000/svg" width="73.36" height="73.291" viewBox="0 0 73.36 73.291"><defs><style>.a{fill:#151515;}</style></defs><g transform="translate(-1202.007 -332.004)"><path class="a" d="M1241.772,405.3a2.337,2.337,0,0,1-1.549-.594l-.261-.231a1.992,1.992,0,0,0-2.55,0l-.261.231a2.314,2.314,0,0,1-3.378-.3l-.215-.274a1.966,1.966,0,0,0-1.543-.715,1.862,1.862,0,0,0-.967.26l-.3.18a2.35,2.35,0,0,1-1.219.344,2.323,2.323,0,0,1-2.05-1.246l-.164-.308a2.005,2.005,0,0,0-1.746-1.013,1.8,1.8,0,0,0-.641.116l-.325.125a2.382,2.382,0,0,1-.849.158,2.315,2.315,0,0,1-2.206-1.629l-.105-.332a2.018,2.018,0,0,0-1.87-1.338,1.717,1.717,0,0,0-.32.03l-.341.064a2.478,2.478,0,0,1-.445.042,2.3,2.3,0,0,1-2.3-2.036l-.045-.346a2.006,2.006,0,0,0-1.91-1.678l-.358,0a2.314,2.314,0,0,1-2.344-2.451l.017-.348a2,2,0,0,0-1.589-1.994l-.344-.061a2.313,2.313,0,0,1-1.868-2.83l.079-.339a2,2,0,0,0-1.208-2.245l-.327-.121a2.314,2.314,0,0,1-1.333-3.117l.139-.32a2,2,0,0,0-.788-2.426l-.3-.177a2.315,2.315,0,0,1-.755-3.306l.194-.29a2,2,0,0,0-.342-2.527l-.263-.227a2.314,2.314,0,0,1-.152-3.388l.242-.249a2,2,0,0,0,.114-2.549l-.219-.271a2.315,2.315,0,0,1,.455-3.36l.283-.2a2,2,0,0,0,.568-2.487l-.167-.306a2.315,2.315,0,0,1,1.048-3.225l.315-.149a2,2,0,0,0,1-2.345l-.11-.33a2.314,2.314,0,0,1,1.607-2.986l.337-.09a2,2,0,0,0,1.4-2.129l-.048-.344a2.313,2.313,0,0,1,2.114-2.651l.348-.029a2,2,0,0,0,1.763-1.844l.013-.347a2.321,2.321,0,0,1,2.321-2.243c.076,0,.156,0,.233.011l.347.033a1.991,1.991,0,0,0,2.063-1.5l.075-.339a2.309,2.309,0,0,1,2.261-1.829,2.379,2.379,0,0,1,.65.09l.335.094a1.763,1.763,0,0,0,.48.066,2,2,0,0,0,1.818-1.172l.134-.322a2.317,2.317,0,0,1,3.175-1.19l.313.152a1.83,1.83,0,0,0,.8.182,1.979,1.979,0,0,0,1.655-.86l.189-.292a2.315,2.315,0,0,1,3.337-.605l.281.206a1.893,1.893,0,0,0,1.124.355,1.946,1.946,0,0,0,1.416-.583l.239-.253a2.312,2.312,0,0,1,3.391,0l.239.253a1.947,1.947,0,0,0,1.417.583,1.893,1.893,0,0,0,1.124-.355l.281-.206a2.315,2.315,0,0,1,3.337.605l.19.292a1.978,1.978,0,0,0,1.654.86,1.836,1.836,0,0,0,.8-.182l.312-.152a2.317,2.317,0,0,1,3.175,1.19l.134.322a2.005,2.005,0,0,0,1.819,1.172,1.754,1.754,0,0,0,.479-.066l.334-.094a2.384,2.384,0,0,1,.651-.09,2.309,2.309,0,0,1,2.261,1.829l.075.339a1.99,1.99,0,0,0,2.063,1.5l.346-.033c.078-.008.156-.011.233-.011a2.32,2.32,0,0,1,2.321,2.243l.014.347a2,2,0,0,0,1.763,1.844l.347.029a2.314,2.314,0,0,1,2.114,2.651l-.049.344a2,2,0,0,0,1.4,2.129l.337.09a2.314,2.314,0,0,1,1.607,2.986l-.11.33a2,2,0,0,0,1,2.345l.315.149a2.313,2.313,0,0,1,1.048,3.225l-.167.306a2,2,0,0,0,.567,2.487l.284.2a2.315,2.315,0,0,1,.455,3.36l-.219.271a2,2,0,0,0,.114,2.549l.242.249a2.314,2.314,0,0,1-.152,3.388l-.263.227a2,2,0,0,0-.342,2.527l.193.29a2.313,2.313,0,0,1-.755,3.306l-.3.177a2,2,0,0,0-.789,2.426l.139.32a2.312,2.312,0,0,1-1.333,3.117l-.327.121a2,2,0,0,0-1.209,2.245l.079.339a2.313,2.313,0,0,1-1.867,2.83l-.343.061a2,2,0,0,0-1.591,1.994l.018.348a2.315,2.315,0,0,1-2.328,2.451l-.364,0a2.009,2.009,0,0,0-1.921,1.678l-.044.346a2.3,2.3,0,0,1-2.3,2.036,2.47,2.47,0,0,1-.444-.042l-.342-.064a1.715,1.715,0,0,0-.32-.03,2.018,2.018,0,0,0-1.869,1.338l-.1.332a2.317,2.317,0,0,1-2.208,1.629,2.377,2.377,0,0,1-.848-.158l-.326-.125a1.8,1.8,0,0,0-.641-.116,2.008,2.008,0,0,0-1.747,1.013l-.163.307a2.321,2.321,0,0,1-2.05,1.247,2.348,2.348,0,0,1-1.219-.344l-.3-.18a1.86,1.86,0,0,0-.967-.26,1.964,1.964,0,0,0-1.543.715l-.215.274A2.321,2.321,0,0,1,1241.772,405.3Zm-3.085-2.075a2.7,2.7,0,0,1,1.8.66l.261.231a1.525,1.525,0,0,0,2.234-.2l.215-.274a2.76,2.76,0,0,1,2.164-1.015,2.651,2.651,0,0,1,1.375.374l.3.181a1.563,1.563,0,0,0,.809.229,1.536,1.536,0,0,0,1.353-.826l.163-.309a2.778,2.778,0,0,1,2.444-1.431,2.583,2.583,0,0,1,.923.168l.325.124a1.588,1.588,0,0,0,.566.106,1.53,1.53,0,0,0,1.455-1.079l.1-.332a2.8,2.8,0,0,1,2.622-1.888,2.462,2.462,0,0,1,.466.043l.343.064a1.624,1.624,0,0,0,.3.029,1.52,1.52,0,0,0,1.516-1.348l.045-.346a2.791,2.791,0,0,1,2.693-2.366l.364,0a1.526,1.526,0,0,0,1.551-1.622l-.018-.348a2.786,2.786,0,0,1,2.242-2.812l.343-.06a1.523,1.523,0,0,0,1.236-1.872l-.079-.339a2.786,2.786,0,0,1,1.7-3.168l.327-.12a1.525,1.525,0,0,0,.881-2.063l-.139-.319a2.786,2.786,0,0,1,1.112-3.421l.3-.177a1.525,1.525,0,0,0,.5-2.187l-.193-.29a2.786,2.786,0,0,1,.482-3.564l.264-.228a1.524,1.524,0,0,0,.1-2.241l-.242-.251a2.787,2.787,0,0,1-.162-3.593l.219-.272a1.526,1.526,0,0,0-.3-2.223l-.283-.2a2.787,2.787,0,0,1-.8-3.507l.166-.3a1.525,1.525,0,0,0-.693-2.134l-.315-.149a2.787,2.787,0,0,1-1.413-3.307l.11-.33a1.526,1.526,0,0,0-1.063-1.976l-.337-.09a2.787,2.787,0,0,1-1.982-3l.049-.346a1.526,1.526,0,0,0-1.4-1.754l-.346-.028a2.786,2.786,0,0,1-2.486-2.6l-.013-.348a1.519,1.519,0,0,0-1.69-1.477l-.346.033a2.127,2.127,0,0,1-.24.013,2.778,2.778,0,0,1-2.67-2.126l-.076-.339a1.525,1.525,0,0,0-1.49-1.212,1.6,1.6,0,0,0-.436.06l-.335.095a2.552,2.552,0,0,1-.694.095,2.811,2.811,0,0,1-2.546-1.655l-.135-.322a1.534,1.534,0,0,0-1.409-.951,1.551,1.551,0,0,0-.691.163l-.312.153a2.637,2.637,0,0,1-1.152.262,2.777,2.777,0,0,1-2.316-1.218l-.19-.293a1.524,1.524,0,0,0-2.207-.4l-.281.206a2.7,2.7,0,0,1-1.592.508,2.737,2.737,0,0,1-1.99-.831l-.239-.253a1.525,1.525,0,0,0-2.244,0l-.239.253a2.734,2.734,0,0,1-1.989.831h0a2.7,2.7,0,0,1-1.592-.508l-.281-.206a1.525,1.525,0,0,0-2.207.4l-.19.293a2.776,2.776,0,0,1-2.316,1.218,2.637,2.637,0,0,1-1.151-.262l-.313-.153a1.551,1.551,0,0,0-.691-.163,1.532,1.532,0,0,0-1.409.951l-.134.322a2.811,2.811,0,0,1-2.546,1.655,2.556,2.556,0,0,1-.695-.095l-.335-.095a1.589,1.589,0,0,0-.435-.06,1.526,1.526,0,0,0-1.491,1.21l-.076.34a2.777,2.777,0,0,1-2.67,2.126,2.1,2.1,0,0,1-.239-.013l-.347-.033a1.521,1.521,0,0,0-1.69,1.477l-.014.348a2.786,2.786,0,0,1-2.485,2.6l-.347.028a1.525,1.525,0,0,0-1.4,1.754l.049.346a2.786,2.786,0,0,1-1.981,3l-.337.09a1.526,1.526,0,0,0-1.062,1.976l.11.33a2.788,2.788,0,0,1-1.414,3.307l-.314.149a1.524,1.524,0,0,0-.694,2.133l.168.306a2.787,2.787,0,0,1-.8,3.507l-.283.2a1.526,1.526,0,0,0-.3,2.223l.219.272a2.787,2.787,0,0,1-.161,3.593l-.243.251a1.525,1.525,0,0,0,.1,2.241l.263.228a2.786,2.786,0,0,1,.483,3.564l-.194.288a1.527,1.527,0,0,0,.5,2.188l.3.178a2.787,2.787,0,0,1,1.112,3.421l-.139.319a1.524,1.524,0,0,0,.881,2.063l.327.12a2.787,2.787,0,0,1,1.7,3.168l-.079.339a1.524,1.524,0,0,0,1.236,1.872l.343.06a2.787,2.787,0,0,1,2.242,2.812l-.018.348a1.525,1.525,0,0,0,1.54,1.622l.359,0a2.794,2.794,0,0,1,2.708,2.366l.045.347a1.521,1.521,0,0,0,1.516,1.347,1.634,1.634,0,0,0,.3-.029l.342-.064a2.466,2.466,0,0,1,.466-.043,2.8,2.8,0,0,1,2.622,1.888l.1.332a1.53,1.53,0,0,0,1.455,1.079,1.588,1.588,0,0,0,.567-.106l.326-.124a2.577,2.577,0,0,1,.923-.168,2.78,2.78,0,0,1,2.444,1.431l.162.309a1.537,1.537,0,0,0,1.353.826,1.566,1.566,0,0,0,.81-.229l.3-.181a2.655,2.655,0,0,1,1.376-.374,2.758,2.758,0,0,1,2.163,1.015l.216.274a1.535,1.535,0,0,0,1.209.6,1.551,1.551,0,0,0,1.026-.4l.261-.231A2.705,2.705,0,0,1,1238.687,403.22Z"/><path class="a" d="M1276.742,378.4h-1.566v-6.3l.978-.979a.294.294,0,0,0,.038-.046l.008-.014a.275.275,0,0,0,.021-.038l.005-.02a.269.269,0,0,0,.011-.037.314.314,0,0,0,.006-.059v-4.371a.3.3,0,0,0-.3-.3h-1.259v-4.663l.989-.99a.3.3,0,0,0,.089-.214v-3.375a.3.3,0,0,0-.3-.3h-.77v-2.818a1.691,1.691,0,0,0,.627-1.084.31.31,0,0,0,.007-.063.158.158,0,0,0,0-.02c0-.015,0-.03,0-.046,0-1.39-1.192-2.169-2.063-2.737-.329-.214-.826-.539-.826-.683a.263.263,0,0,0,0-.032.46.46,0,0,0-.037-.732.4.4,0,0,0-.037-.635.346.346,0,0,0-.067-.576.3.3,0,0,0,.145-.256v-.529a.3.3,0,1,0-.6,0v.529a.3.3,0,0,0,.145.256.346.346,0,0,0-.068.576.4.4,0,0,0-.037.635.463.463,0,0,0-.2.382.459.459,0,0,0,.164.35.263.263,0,0,0,0,.032c0,.144-.5.469-.826.683-.871.568-2.063,1.347-2.063,2.737a1.641,1.641,0,0,0,.634,1.213v2.818h-.77a.3.3,0,0,0-.3.3v3.375a.3.3,0,0,0,.089.214l.989.99v4.663h-1.259a.3.3,0,0,0-.3.3v4.371a.3.3,0,0,0,.088.213l.979.98v1.379H1243.1V372.1l.979-.98a.3.3,0,0,0,.089-.213v-4.371a.3.3,0,0,0-.3-.3h-1.259v-4.663l.989-.99a.3.3,0,0,0,.089-.214v-3.375a.3.3,0,0,0-.3-.3h-.77v-2.818a1.642,1.642,0,0,0,.634-1.213c0-1.39-1.192-2.169-2.063-2.737-.329-.214-.826-.539-.826-.683a.241.241,0,0,0,0-.032.459.459,0,0,0,.164-.35.463.463,0,0,0-.2-.382.4.4,0,0,0-.037-.635.346.346,0,0,0-.067-.576.3.3,0,0,0,.145-.256v-.529a.3.3,0,1,0-.6,0v.529a.3.3,0,0,0,.145.256.346.346,0,0,0-.067.576.4.4,0,0,0-.037.635.464.464,0,0,0-.2.382.459.459,0,0,0,.164.35.263.263,0,0,0,0,.032c0,.144-.5.469-.826.683-.871.568-2.063,1.347-2.063,2.737,0,.016,0,.031,0,.046a.158.158,0,0,0,0,.02.319.319,0,0,0,.007.063,1.689,1.689,0,0,0,.627,1.084v2.818h-.77a.3.3,0,0,0-.3.3v3.375a.3.3,0,0,0,.089.214l.989.99v4.663h-1.259a.3.3,0,0,0-.3.3v4.371a.314.314,0,0,0,.006.059c0,.012.007.025.011.036s0,.014.006.02a.275.275,0,0,0,.021.038.1.1,0,0,0,.008.014.294.294,0,0,0,.038.046l.978.979v6.3h-1.566a.3.3,0,0,0-.3.3v8.849a.358.358,0,0,0,.006.06.244.244,0,0,0,.011.036c0,.007,0,.014.006.021a.344.344,0,0,0,.021.038.113.113,0,0,0,.008.014.3.3,0,0,0,.037.047l1.277,1.278v15.467a1.5,1.5,0,0,0,.576.11h.029v-15.4h1.19v15.688a1.891,1.891,0,0,1,.6.634V389.218h2.3v18.423a1.7,1.7,0,0,1,.6.013V389.218H1243v18.9h-.293a1.746,1.746,0,0,1,.429.6h25.917a1.754,1.754,0,0,1,.429-.6h-.293v-18.9h1.191v18.436a1.7,1.7,0,0,1,.6-.013V389.218h2.3v16.322a1.885,1.885,0,0,1,.6-.634V389.218h1.19v15.4h.028a1.5,1.5,0,0,0,.576-.11V389.042l1.277-1.278a.278.278,0,0,0,.038-.047l.008-.014a.344.344,0,0,0,.021-.038.15.15,0,0,0,.005-.02.319.319,0,0,0,.011-.037.313.313,0,0,0,.006-.06V378.7A.3.3,0,0,0,1276.742,378.4Zm-5.408-27.969a.836.836,0,0,1,1.595,0c.7.456,1.547,1.01,1.746,1.856l-.038-.032a1.109,1.109,0,0,0-1.542,0,.515.515,0,0,1-.766,0,1.107,1.107,0,0,0-1.541,0,.515.515,0,0,1-.766,0,1.359,1.359,0,0,0-.347-.228A4.075,4.075,0,0,1,1271.334,350.43Zm-1.79,2.231c0-.006,0-.01,0-.016.028.021.056.044.089.072a1.107,1.107,0,0,0,1.542,0,.514.514,0,0,1,.766,0,1.107,1.107,0,0,0,1.542,0,.515.515,0,0,1,.767,0,1.286,1.286,0,0,0,.4.25,1.279,1.279,0,0,1-.364.457h-4.31A1.066,1.066,0,0,1,1269.544,352.661Zm4.54,1.367v2.665h-3.906v-2.665Zm-4.978,3.269h6.051v2.667a1.348,1.348,0,0,1-.187-.12,1.338,1.338,0,0,0-1.686,0,.74.74,0,0,1-.976,0,1.336,1.336,0,0,0-1.685,0,.74.74,0,0,1-.976,0,1.382,1.382,0,0,0-.541-.268Zm0,2.949v-.033a1.357,1.357,0,0,1,.186.12,1.334,1.334,0,0,0,1.686,0,.741.741,0,0,1,.975,0,1.336,1.336,0,0,0,1.686,0,.739.739,0,0,1,.976,0,1.954,1.954,0,0,0,.278.175l-.638.638h-4.249Zm4.972,1.5v4.487h-3.895v-4.487h3.895Zm-5.456,5.091h7.017v3.726a1.25,1.25,0,0,1-.3-.153,1.623,1.623,0,0,0-1.848,0,1.024,1.024,0,0,1-1.2,0,1.623,1.623,0,0,0-1.848,0,1.023,1.023,0,0,1-1.2,0,1.587,1.587,0,0,0-.621-.263Zm0,3.945v-.015a1.266,1.266,0,0,1,.3.153,1.623,1.623,0,0,0,1.847,0,1.023,1.023,0,0,1,1.2,0,1.623,1.623,0,0,0,1.848,0,1.024,1.024,0,0,1,1.2,0,2.151,2.151,0,0,0,.312.171l-.58.581h-5.236Zm5.949,1.494v6.12H1273.4v-6.12h1.172Zm-1.776,0v6.12h-1.329v-6.12Zm-1.933,0v6.12h-1.173v-6.12h1.173Zm-3,1.806h1.225v2.155h-1.225Zm.3,3.593a.318.318,0,0,0-.061-.007.327.327,0,0,0-.061.007.522.522,0,0,0-.463.517v.2h-.055a.3.3,0,0,0-.3.3v.559h-.706a.3.3,0,0,0,.11-.23v-.834a.523.523,0,0,0-.463-.517.32.32,0,0,0-.061-.007.329.329,0,0,0-.061.007.522.522,0,0,0-.462.517v.834a.3.3,0,0,0,.109.23h-1.172a.3.3,0,0,0,.11-.23v-.834a.522.522,0,0,0-.463-.517.286.286,0,0,0-.122,0,.522.522,0,0,0-.462.517v.834a.3.3,0,0,0,.109.23h-1.172a.3.3,0,0,0,.109-.23v-.834a.522.522,0,0,0-.463-.517.326.326,0,0,0-.061-.007.322.322,0,0,0-.061.007.522.522,0,0,0-.463.517v.834a.3.3,0,0,0,.109.23h-1.172a.3.3,0,0,0,.11-.23v-.834a.522.522,0,0,0-.463-.517.326.326,0,0,0-.061-.007.336.336,0,0,0-.062.007.522.522,0,0,0-.462.517v.834a.3.3,0,0,0,.11.23h-1.172a.3.3,0,0,0,.109-.23v-.834a.522.522,0,0,0-.463-.517.318.318,0,0,0-.061-.007.324.324,0,0,0-.061.007.522.522,0,0,0-.463.517v.834a.3.3,0,0,0,.11.23h-1.172a.3.3,0,0,0,.109-.23v-.834a.522.522,0,0,0-.463-.517.317.317,0,0,0-.061-.007.313.313,0,0,0-.061.007.522.522,0,0,0-.463.517v.834a.3.3,0,0,0,.109.23h-1.172a.3.3,0,0,0,.109-.23v-.834a.522.522,0,0,0-.462-.517.324.324,0,0,0-.061-.007.318.318,0,0,0-.061.007.522.522,0,0,0-.463.517v.834a.3.3,0,0,0,.11.23h-1.172a.3.3,0,0,0,.11-.23v-.834a.522.522,0,0,0-.463-.517.33.33,0,0,0-.061-.007.323.323,0,0,0-.061.007.522.522,0,0,0-.463.517v.834a.3.3,0,0,0,.109.23h-1.172a.3.3,0,0,0,.109-.23v-.834a.522.522,0,0,0-.462-.517.333.333,0,0,0-.062-.007.321.321,0,0,0-.061.007.522.522,0,0,0-.463.517v.834a.3.3,0,0,0,.109.23h-1.172a.3.3,0,0,0,.109-.23v-.834a.522.522,0,0,0-.463-.517.319.319,0,0,0-.061-.007.327.327,0,0,0-.061.007.522.522,0,0,0-.463.517v.834a.3.3,0,0,0,.109.23h-1.172a.3.3,0,0,0,.109-.23v-.834a.522.522,0,0,0-.462-.517.33.33,0,0,0-.062-.007.319.319,0,0,0-.06.007.522.522,0,0,0-.463.517v.834a.3.3,0,0,0,.11.23h-.706V378.7a.3.3,0,0,0-.3-.3H1243.1v-1.556h25.982V378.4h-.463v-.2A.522.522,0,0,0,1268.16,377.678Zm-22.812,7a1.806,1.806,0,0,0,.348-.2,1.778,1.778,0,0,0,.347.2c.28.137.377.2.377.4v.86h-1.45v-.86C1244.971,384.88,1245.069,384.815,1245.349,384.677Zm-.377-.486v-.829h1.45v.829c-.038-.02-.076-.038-.111-.056-.265-.13-.3-.168-.3-.253a.3.3,0,0,0-.3-.3h-.023a.3.3,0,0,0-.3.3c0,.085-.035.123-.3.253C1245.047,384.153,1245.01,384.171,1244.971,384.191Zm11.124,2.346h11.123v.71h-22.247v-.71Zm-7.276-1.86a1.812,1.812,0,0,0,.348-.2,1.768,1.768,0,0,0,.348.2c.28.137.377.2.377.4v.86h-1.45v-.86C1248.442,384.88,1248.54,384.815,1248.819,384.677Zm-.377-.486v-.829h1.45v.829c-.039-.02-.076-.038-.112-.056-.265-.13-.3-.168-.3-.253a.3.3,0,0,0-.3-.3h-.023a.3.3,0,0,0-.3.3c0,.085-.036.123-.3.253Zm3.847.486a1.806,1.806,0,0,0,.348-.2,1.771,1.771,0,0,0,.348.2c.279.137.377.2.377.4v.86h-1.45v-.86C1251.912,384.88,1252.01,384.815,1252.289,384.677Zm-.377-.486v-.829h1.45v.829c-.038-.02-.076-.038-.112-.056-.265-.13-.3-.168-.3-.253a.3.3,0,0,0-.3-.3h-.023a.3.3,0,0,0-.3.3c0,.085-.035.123-.3.253C1251.988,384.153,1251.951,384.171,1251.912,384.191Zm4.184-.61h0a.3.3,0,0,0-.3.3v.008c0,.079-.044.12-.3.245-.035.017-.073.035-.112.056v-.829h1.426v.829c-.039-.02-.076-.038-.112-.056-.256-.125-.3-.166-.3-.245v-.008A.3.3,0,0,0,1256.1,383.581Zm3.11,1.1a1.773,1.773,0,0,0,.348-.2,1.806,1.806,0,0,0,.348.2c.28.137.377.2.377.4v.86h-1.45v-.86C1258.829,384.88,1258.926,384.815,1259.206,384.677Zm-.377-.486v-.829h1.45v.829c-.038-.02-.076-.038-.112-.056-.264-.13-.3-.168-.3-.253a.3.3,0,0,0-.3-.3h-.023a.3.3,0,0,0-.3.3c0,.085-.035.123-.3.253C1258.905,384.153,1258.867,384.171,1258.829,384.191Zm3.847.486a1.759,1.759,0,0,0,.348-.2,1.812,1.812,0,0,0,.348.2c.279.137.377.2.377.4v.86h-1.45v-.86C1262.3,384.88,1262.4,384.815,1262.676,384.677Zm-.377-.486v-.829h1.45v.829c-.039-.02-.076-.038-.112-.056-.264-.13-.3-.168-.3-.253a.3.3,0,0,0-.3-.3h-.023a.3.3,0,0,0-.3.3c0,.085-.035.123-.3.253C1262.375,384.153,1262.337,384.171,1262.3,384.191Zm3.47,1.742v-.86c0-.194.1-.259.377-.4a.4.4,0,0,1,.7,0c.28.137.377.2.377.4v.86Zm1.338-1.8c-.264-.13-.3-.168-.3-.253a.3.3,0,0,0-.3-.3h-.023a.3.3,0,0,0-.3.3c0,.085-.035.123-.3.253-.035.017-.073.035-.111.056v-.829h1.45v.829C1267.18,384.171,1267.143,384.153,1267.107,384.136Zm-1.64-1.377a.3.3,0,0,0-.3.3v2.873h-.812v-2.873a.3.3,0,0,0-.3-.3H1262a.3.3,0,0,0-.3.3v2.873h-.812v-2.873a.3.3,0,0,0-.3-.3h-2.054a.3.3,0,0,0-.3.3v2.873h-.812v-2.873a.3.3,0,0,0-.3-.3h-2.03a.3.3,0,0,0-.3.3v2.873h-.812v-2.873a.3.3,0,0,0-.3-.3h-2.054a.3.3,0,0,0-.3.3v2.873h-.812v-2.873a.3.3,0,0,0-.3-.3h-2.054a.3.3,0,0,0-.3.3v2.873h-.812v-2.873a.3.3,0,0,0-.3-.3h-1.753v-1.614H1246v.173a.3.3,0,0,0,.077.2.309.309,0,0,0-.089.218.314.314,0,1,0,.539-.218.3.3,0,0,0,.077-.2v-.173h1.028v.173a.3.3,0,0,0,.077.2.314.314,0,1,0,.45,0,.3.3,0,0,0,.077-.2v-.173h1.028v.173a.3.3,0,0,0,.077.2.31.31,0,0,0-.089.218.314.314,0,0,0,.629,0,.311.311,0,0,0-.09-.218.3.3,0,0,0,.077-.2v-.173h1.028v.173a.3.3,0,0,0,.077.2.314.314,0,1,0,.45,0,.3.3,0,0,0,.077-.2v-.173h1.028v.173a.3.3,0,0,0,.077.2.309.309,0,0,0-.09.218.314.314,0,0,0,.629,0,.311.311,0,0,0-.09-.218.3.3,0,0,0,.077-.2v-.173h1.028v.173a.3.3,0,0,0,.077.2.314.314,0,1,0,.451,0,.3.3,0,0,0,.077-.2v-.173h1.028v.173a.3.3,0,0,0,.077.2.309.309,0,0,0-.09.218.314.314,0,0,0,.629,0,.309.309,0,0,0-.09-.218.3.3,0,0,0,.077-.2v-.173h1.028v.173a.3.3,0,0,0,.077.2.314.314,0,1,0,.451,0,.3.3,0,0,0,.077-.2v-.173h1.028v.173a.3.3,0,0,0,.077.2.313.313,0,0,0,.224.532.314.314,0,0,0,.314-.314.311.311,0,0,0-.09-.218.3.3,0,0,0,.077-.2v-.173h1.028v.173a.3.3,0,0,0,.077.2.314.314,0,1,0,.451,0,.3.3,0,0,0,.077-.2v-.173h1.028v.173a.3.3,0,0,0,.077.2.313.313,0,0,0,.224.532.313.313,0,0,0,.225-.532.3.3,0,0,0,.077-.2v-.173h1.028v.173a.3.3,0,0,0,.077.2.315.315,0,1,0,.451,0,.3.3,0,0,0,.077-.2v-.173h1.028v.173a.3.3,0,0,0,.077.2.309.309,0,0,0-.09.218.314.314,0,1,0,.628,0,.309.309,0,0,0-.089-.218.3.3,0,0,0,.077-.2v-.173h1.028v1.614Zm-9.372-2.219h-11.124v-.676h22.247v.676Zm10.014-6.455h1.149v2.155h-1.149Zm-1.753,0h1.149v2.155h-1.149Zm-1.753,0h1.149v2.155H1262.6Zm-1.752,0H1262v2.155h-1.149Zm-1.753,0h1.149v2.155H1259.1Zm-1.753,0h1.149v2.155h-1.149Zm-1.9,0h1.291v2.155h-1.291Zm-1.753,0h1.149v2.155H1253.7Zm-1.753,0h1.149v2.155h-1.149Zm-1.753,0h1.149v2.155h-1.149Zm-1.753,0h1.149v2.155h-1.149Zm-1.753,0h1.149v2.155h-1.149Zm-1.752,0h1.149v2.155h-1.149Zm-.6,0v2.155H1243.1v-2.155Zm-1.683-21.44c0,.006,0,.01,0,.016a1.066,1.066,0,0,1-.432.762h-4.31a1.284,1.284,0,0,1-.364-.457,1.286,1.286,0,0,0,.4-.25.515.515,0,0,1,.767,0,1.107,1.107,0,0,0,1.542,0,.514.514,0,0,1,.766,0,1.108,1.108,0,0,0,1.542,0C1242.589,352.689,1242.618,352.666,1242.645,352.645Zm-.633,1.383v2.665h-3.906v-2.665Zm-2.75-3.6a.836.836,0,0,1,1.595,0,4.075,4.075,0,0,1,1.66,1.6,1.35,1.35,0,0,0-.347.228.515.515,0,0,1-.766,0,1.107,1.107,0,0,0-1.542,0,.514.514,0,0,1-.766,0,1.109,1.109,0,0,0-1.542,0l-.038.032C1237.715,351.439,1238.563,350.885,1239.261,350.43Zm-2.228,9.534V357.3h6.05v2.279a1.382,1.382,0,0,0-.541.268.74.74,0,0,1-.976,0,1.336,1.336,0,0,0-1.685,0,.741.741,0,0,1-.976,0,1.337,1.337,0,0,0-1.686,0A1.385,1.385,0,0,1,1237.034,359.963Zm.263.544a1.954,1.954,0,0,0,.278-.175.739.739,0,0,1,.976,0,1.336,1.336,0,0,0,1.686,0,.74.74,0,0,1,.975,0,1.334,1.334,0,0,0,1.686,0,1.383,1.383,0,0,1,.186-.12v.033l-.9.9h-4.249Zm4.71,1.242v4.487h-3.9v-4.487h3.9Zm-5.456,8.816V366.84h7.017v3.31a1.587,1.587,0,0,0-.621.263,1.023,1.023,0,0,1-1.2,0,1.623,1.623,0,0,0-1.848,0,1.024,1.024,0,0,1-1.2,0,1.623,1.623,0,0,0-1.848,0A1.257,1.257,0,0,1,1236.551,370.565Zm.31.528a2.144,2.144,0,0,0,.312-.171,1.024,1.024,0,0,1,1.2,0,1.623,1.623,0,0,0,1.847,0,1.023,1.023,0,0,1,1.2,0,1.623,1.623,0,0,0,1.847,0,1.248,1.248,0,0,1,.3-.153v.015l-.891.89h-5.236Zm5.639,1.185v6.12h-1.172v-6.12h1.172Zm-1.776,0v6.12h-1.329v-6.12Zm-1.933,0v6.12h-1.172v-6.12h1.172ZM1235.75,379h8.617v.33a1.358,1.358,0,0,0-.535.268.719.719,0,0,1-.959,0,1.318,1.318,0,0,0-1.674,0,.721.721,0,0,1-.96,0,1.319,1.319,0,0,0-1.675,0,.72.72,0,0,1-.96,0,1.32,1.32,0,0,0-1.676,0,1.467,1.467,0,0,1-.178.117Zm0,1.351a1.362,1.362,0,0,0,.535-.267.721.721,0,0,1,.961,0,1.319,1.319,0,0,0,1.675,0,.72.72,0,0,1,.96,0,1.319,1.319,0,0,0,1.675,0,.719.719,0,0,1,.959,0,1.318,1.318,0,0,0,1.674,0,1.271,1.271,0,0,1,.178-.117V382.9h-8.617Zm0,3.149h8.617v2.431h-8.617Zm0,3.679v-.644h8.617v.259a1.358,1.358,0,0,0-.535.268.719.719,0,0,1-.959,0,1.318,1.318,0,0,0-1.674,0,.721.721,0,0,1-.96,0,1.319,1.319,0,0,0-1.675,0,.72.72,0,0,1-.96,0,1.32,1.32,0,0,0-1.676,0A1.231,1.231,0,0,1,1235.75,387.181Zm6.684,1.433h-5.494l-.9-.9a2.006,2.006,0,0,0,.247-.161.722.722,0,0,1,.961,0,1.319,1.319,0,0,0,1.675,0,.72.72,0,0,1,.96,0,1.319,1.319,0,0,0,1.675,0,.719.719,0,0,1,.959,0,1.318,1.318,0,0,0,1.674,0,1.662,1.662,0,0,1,.158-.107l-1.169,1.169Zm18.674,19.5h-10.025v-9.4c0-2.144,1.867-2.943,3.369-3.585a1.93,1.93,0,0,1,3.288,0c1.5.642,3.369,1.441,3.369,3.585Zm2.466-8.41v8.41h-1.863v-9.4c0-2.543-2.158-3.466-3.735-4.141-.812-.347-1.58-.675-1.58-1.057a.3.3,0,1,0-.6,0c0,.381-.768.71-1.58,1.057-1.576.675-3.735,1.6-3.735,4.141v9.4h-1.862v-9.77c0-3.233,2.782-4.423,5.017-5.379a2.839,2.839,0,0,1,4.924,0c2.235.956,5.017,2.146,5.017,5.379Zm-7.81-8.8c-.174.566-1.2,1.006-2.368,1.507-1.659.71-3.763,1.611-4.78,3.459v-6.344h6.715a1.81,1.81,0,0,0-.052.453A1.415,1.415,0,0,0,1255.764,390.905Zm7.81,4.966c-1.016-1.848-3.121-2.749-4.78-3.459-1.172-.5-2.195-.941-2.368-1.507a1.416,1.416,0,0,0,.484-.925,1.785,1.785,0,0,0-.052-.453h6.716Zm5.011,12.244h-4.406v-18.89a.3.3,0,0,0-.3-.3h-15.563a.3.3,0,0,0-.3.3v18.89h-4.406V389.042l1.189-1.19h1.193v.294a.3.3,0,0,0,.6,0v-.294h1.03v.294a.3.3,0,0,0,.6,0v-.294h1.03v.294a.3.3,0,1,0,.6,0v-.294h1.03v.294a.3.3,0,0,0,.6,0v-.294h1.031v.294a.3.3,0,1,0,.6,0v-.294h1.03v.294a.3.3,0,0,0,.6,0v-.294h1.03v.294a.3.3,0,1,0,.6,0v-.294h1.03v.294a.3.3,0,0,0,.6,0v-.294h1.03v.294a.3.3,0,0,0,.6,0v-.294h1.031v.294a.3.3,0,0,0,.6,0v-.294h1.03v.294a.3.3,0,0,0,.6,0v-.294h1.03v.294a.3.3,0,0,0,.6,0v-.294h1.031v.294a.3.3,0,1,0,.6,0v-.294h1.193l1.189,1.19Zm6.666-19.5h-6.239l-1.169-1.169a1.662,1.662,0,0,1,.158.107,1.318,1.318,0,0,0,1.674,0,.719.719,0,0,1,.959,0,1.319,1.319,0,0,0,1.675,0,.72.72,0,0,1,.96,0,1.319,1.319,0,0,0,1.675,0,.722.722,0,0,1,.961,0,2.006,2.006,0,0,0,.247.161Zm1.189-1.433a1.231,1.231,0,0,1-.178-.117,1.32,1.32,0,0,0-1.676,0,.72.72,0,0,1-.96,0,1.319,1.319,0,0,0-1.675,0,.721.721,0,0,1-.96,0,1.318,1.318,0,0,0-1.674,0,.72.72,0,0,1-.959,0,1.357,1.357,0,0,0-.535-.268v-.259h8.617Zm0-1.248h-8.617V383.5h8.617Zm0-3.035h-8.617V379.97a1.293,1.293,0,0,1,.178.117,1.318,1.318,0,0,0,1.674,0,.719.719,0,0,1,.959,0,1.319,1.319,0,0,0,1.675,0,.72.72,0,0,1,.96,0,1.319,1.319,0,0,0,1.675,0,.722.722,0,0,1,.961,0,1.362,1.362,0,0,0,.535.267Zm0-3.181a1.467,1.467,0,0,1-.178-.117,1.32,1.32,0,0,0-1.676,0,.72.72,0,0,1-.96,0,1.319,1.319,0,0,0-1.675,0,.721.721,0,0,1-.96,0,1.318,1.318,0,0,0-1.674,0,.72.72,0,0,1-.959,0,1.357,1.357,0,0,0-.535-.268V379h8.617Z" transform="translate(-17.408 -7.446)"/><path class="a" d="M1300.741,455.4h-2.054a.3.3,0,0,0-.3.3v3.175a.3.3,0,0,0,.3.3h2.054a.3.3,0,0,0,.3-.3V455.7A.3.3,0,0,0,1300.741,455.4Zm-.3,2.676v.5h-1.45v-.861c0-.194.1-.259.377-.4a.4.4,0,0,1,.7,0c.28.137.377.2.377.4Zm0-1.244c-.038-.02-.076-.039-.112-.056-.264-.13-.3-.168-.3-.253a.314.314,0,0,0-.627,0c0,.085-.035.123-.3.253l-.112.056v-.828h1.45Z" transform="translate(-50.629 -64.823)"/><path class="a" d="M1300.741,445.812h-2.054a.3.3,0,0,0-.3.3v3.176a.3.3,0,0,0,.3.3h2.054a.3.3,0,0,0,.3-.3v-3.176A.3.3,0,0,0,1300.741,445.812Zm-.3,2.677v.5h-1.45v-.861c0-.193.1-.259.377-.395a.4.4,0,0,1,.7,0c.28.136.377.2.377.395Zm0-1.244-.112-.056c-.264-.129-.3-.168-.3-.253a.314.314,0,0,0-.627,0c0,.085-.035.124-.3.253l-.112.056v-.828h1.45Z" transform="translate(-50.629 -59.785)"/><path class="a" d="M1256.929,445.812h-2.054a.3.3,0,0,0-.3.3v3.176a.3.3,0,0,0,.3.3h2.054a.3.3,0,0,0,.3-.3v-3.176A.3.3,0,0,0,1256.929,445.812Zm-.3,2.677v.5h-1.45v-.861c0-.193.1-.259.378-.395a1.888,1.888,0,0,0,.348-.205,1.861,1.861,0,0,0,.347.205c.28.136.377.2.377.395Zm0-1.244-.112-.056c-.264-.129-.3-.168-.3-.253a.314.314,0,0,0-.627,0c0,.085-.035.124-.3.253l-.112.056v-.828h1.45Z" transform="translate(-27.614 -59.785)"/><path class="a" d="M1300.741,464.991h-2.054a.3.3,0,0,0-.3.3v3.175a.3.3,0,0,0,.3.3h2.054a.3.3,0,0,0,.3-.3v-3.175A.3.3,0,0,0,1300.741,464.991Zm-.3,2.676v.5h-1.45v-.86c0-.195.1-.26.377-.4a.4.4,0,0,1,.7,0c.28.137.377.2.377.4Zm0-1.244-.112-.056c-.264-.13-.3-.168-.3-.252a.314.314,0,0,0-.627,0c0,.084-.035.122-.3.252l-.112.056v-.828h1.45Z" transform="translate(-50.629 -69.86)"/><path class="a" d="M1256.929,455.4h-2.054a.3.3,0,0,0-.3.3v3.175a.3.3,0,0,0,.3.3h2.054a.3.3,0,0,0,.3-.3V455.7A.3.3,0,0,0,1256.929,455.4Zm-.3,3.176h-1.45v-.861c0-.194.1-.259.377-.4a.4.4,0,0,1,.7,0c.28.137.377.2.377.4Zm0-1.743-.112-.056c-.265-.13-.3-.168-.3-.253a.314.314,0,0,0-.627,0c0,.085-.035.123-.3.253-.036.017-.073.036-.112.056v-.828h1.45Z" transform="translate(-27.614 -64.823)"/><path class="a" d="M1256.929,464.991h-2.054a.3.3,0,0,0-.3.3v3.175a.3.3,0,0,0,.3.3h2.054a.3.3,0,0,0,.3-.3v-3.175A.3.3,0,0,0,1256.929,464.991Zm-.3,3.175h-1.45v-.86c0-.195.1-.26.377-.4a.4.4,0,0,1,.7,0c.28.137.377.2.377.4Zm0-1.743-.112-.056c-.265-.13-.3-.168-.3-.252a.314.314,0,0,0-.627,0c0,.084-.035.122-.3.252l-.112.056v-.828h1.45Z" transform="translate(-27.614 -69.86)"/><rect class="a" width="2.53" height="0.604" transform="translate(1251.049 400.67)"/><rect class="a" width="2.399" height="0.604" transform="translate(1223.797 400.67)"/><rect class="a" width="2.399" height="0.605" transform="translate(1223.797 401.205) rotate(-90)"/><rect class="a" width="2.288" height="0.605" transform="translate(1220.899 399.164) rotate(-90)"/><rect class="a" width="2.288" height="0.605" transform="translate(1219.104 398.642) rotate(-90)"/><rect class="a" width="0.604" height="1.397" transform="translate(1252.972 399.51)"/><rect class="a" width="0.604" height="1.528" transform="translate(1255.871 397.382)"/><rect class="a" width="0.607" height="1.528" transform="translate(1257.664 396.812)"/></g></svg>