<svg xmlns="http://www.w3.org/2000/svg" xmlns:xlink="http://www.w3.org/1999/xlink" width="33.508" height="33.508" viewBox="0 0 33.508 33.508"><defs><style>.a{fill:#fff;}.b{fill:url(#a);}.c{clip-path:url(#b);}.d{fill:#fdfdfd;}</style><linearGradient id="a" x1="0.141" y1="0.111" x2="0.801" y2="0.889" gradientUnits="objectBoundingBox"><stop offset="0" stop-color="#eb245f"/><stop offset="1" stop-color="#ff861d"/></linearGradient><clipPath id="b"><path class="a" d="M0,16.754A16.754,16.754,0,1,1,16.754,33.508,16.754,16.754,0,0,1,0,16.754Z"/></clipPath></defs><path class="b" d="M0,16.754A16.754,16.754,0,1,1,16.754,33.508,16.754,16.754,0,0,1,0,16.754Z"/><g class="c"><path class="d" d="M8.935,17.871c-2.424,0-2.739-.01-3.684-.054A6.634,6.634,0,0,1,3.082,17.4,4.371,4.371,0,0,1,1.5,16.371,4.375,4.375,0,0,1,.469,14.787a6.625,6.625,0,0,1-.415-2.168C.01,11.674,0,11.359,0,8.936S.01,6.207.054,5.251A6.575,6.575,0,0,1,.469,3.082,4.391,4.391,0,0,1,1.5,1.5,4.378,4.378,0,0,1,3.083.469,6.638,6.638,0,0,1,5.252.054C6.2.01,6.512,0,8.935,0s2.738.01,3.683.054a6.652,6.652,0,0,1,2.17.415A4.37,4.37,0,0,1,16.37,1.5,4.38,4.38,0,0,1,17.4,3.083a6.675,6.675,0,0,1,.415,2.169c.042.928.054,1.209.054,3.684s-.013,2.755-.054,3.684a6.679,6.679,0,0,1-.415,2.169A4.579,4.579,0,0,1,14.788,17.4a6.635,6.635,0,0,1-2.17.415C11.674,17.861,11.359,17.871,8.935,17.871Zm-.8-16.264h0c-1.65,0-1.966.013-2.808.05a4.958,4.958,0,0,0-1.659.308,2.769,2.769,0,0,0-1.028.669A2.752,2.752,0,0,0,1.97,3.663a4.967,4.967,0,0,0-.308,1.659c-.042.939-.051,1.221-.051,3.609s.009,2.672.051,3.611A4.927,4.927,0,0,0,1.97,14.2a2.773,2.773,0,0,0,.668,1.027,2.773,2.773,0,0,0,1.028.668,4.993,4.993,0,0,0,1.659.308c.945.043,1.228.052,3.61.052s2.666-.009,3.611-.052a4.9,4.9,0,0,0,1.659-.308A2.959,2.959,0,0,0,15.9,14.2a4.948,4.948,0,0,0,.308-1.659c.043-.942.052-1.224.052-3.609s-.009-2.668-.052-3.61A4.927,4.927,0,0,0,15.9,3.665a2.776,2.776,0,0,0-.668-1.027,2.765,2.765,0,0,0-1.027-.668,4.957,4.957,0,0,0-1.659-.308c-.939-.042-1.221-.051-3.611-.051h-.8Zm.8,11.916a4.588,4.588,0,1,1,4.588-4.588A4.593,4.593,0,0,1,8.936,13.523Zm0-7.566a2.979,2.979,0,1,0,2.979,2.979A2.982,2.982,0,0,0,8.936,5.957Zm4.77-.719a1.072,1.072,0,1,1,1.073-1.073A1.074,1.074,0,0,1,13.706,5.238Z" transform="translate(7.818 7.818)"/></g></svg>