<svg xmlns="http://www.w3.org/2000/svg" width="73.498" height="73.464" viewBox="0 0 73.498 73.464"><defs><style>.a{fill:#151515;}</style></defs><g transform="translate(4.815 -948.098)"><path class="a" d="M72.425,994.984a.318.318,0,1,0-.318.334A.338.338,0,0,0,72.425,994.984Z" transform="translate(-40.173 -24.412)"/><path class="a" d="M70.9,1007.947a.369.369,0,0,1,.077-.008h1.336v-.12H69.488v.12h1.335A.373.373,0,0,1,70.9,1007.947Z" transform="translate(-38.966 -31.32)"/><path class="a" d="M72.015,961.253h.006a.4.4,0,0,0,.4-.4v-1.054a.4.4,0,0,0-.4-.4h-.012a.4.4,0,0,0-.4.4v1.054a.4.4,0,0,0,.4.4Z" transform="translate(-40.08 -5.932)"/><path class="a" d="M77.6,961.254a.4.4,0,0,0,.4-.4v-1.054a.4.4,0,1,0-.79,0v1.054A.4.4,0,0,0,77.6,961.254Z" transform="translate(-43.012 -5.932)"/><path class="a" d="M68.57,987.215a1.924,1.924,0,0,0,.155-.791H54.516v-5.89h.367a.4.4,0,0,0,0-.791H54.5a2.889,2.889,0,0,0-2.475-2.56v-1.275a.4.4,0,1,0-.79,0v1.275a2.884,2.884,0,0,0-1.7.877v-4.884h.356a.4.4,0,0,0,.4-.4V971.3a.4.4,0,0,0-.4-.4H48.7A16.516,16.516,0,0,0,36.3,957.464v-5.383a.254.254,0,0,0,0-.034.275.275,0,0,0,0-.033,4.205,4.205,0,0,0-2.879-3.777,3.565,3.565,0,0,0-1.042-.141h-.009a3.921,3.921,0,0,0-3.917,3.917.273.273,0,0,0,0,.033.257.257,0,0,0,0,.034v5.383a16.516,16.516,0,0,0-12.406,13.444H14.856a.4.4,0,0,0-.4.4v1.479a.4.4,0,0,0,.4.4h.356v4.884a2.886,2.886,0,0,0-1.7-.877v-1.275a.4.4,0,1,0-.79,0v1.275a2.889,2.889,0,0,0-2.475,2.56H9.864a.4.4,0,0,0,0,.791h.367v5.89H-3.977a1.915,1.915,0,0,0,.154.791H-2.7V988.5h-.025a2.4,2.4,0,0,1,.1,2.712l-.074.11v2.5a1.952,1.952,0,0,0,.509.43l.282.167v-5.129H-.442v9.883H-1.1a1.909,1.909,0,0,0,.587.79h.074v.054a2,2,0,0,0,.477.256l.313.115v-.425H6.871v8.934H5.55a1.934,1.934,0,0,0,.246.791H6.871v.873a1.976,1.976,0,0,0,.622.1h.169v-.967h.672v1.023a2.377,2.377,0,0,1,.79.346v-1.369h2.412v4.625h-.6a1.933,1.933,0,0,0,1.557.371l.342-.064a2.357,2.357,0,0,1,1.862.483H50.053a2.356,2.356,0,0,1,1.861-.483l.344.064a1.93,1.93,0,0,0,1.555-.371h-.6v-4.625h2.412v1.369a2.385,2.385,0,0,1,.79-.346v-1.023h.672v.967h.169a1.967,1.967,0,0,0,.622-.1v-.873h1.076a1.941,1.941,0,0,0,.245-.791H57.876v-8.934H64.4v.425l.314-.115a2.007,2.007,0,0,0,.477-.256v-.054h.075a1.908,1.908,0,0,0,.586-.79h-.661v-9.883h1.463v5.129l.283-.167a1.993,1.993,0,0,0,.507-.428v-2.5l-.074-.11a2.4,2.4,0,0,1,.1-2.712h-.025v-1.284ZM-.442,988.5H-1.905v-1.284H-.442Zm7.313,10.674H.348v-9.883H6.871Zm0-10.674H.348v-1.284H6.871Zm1.463,20.4H7.662v-8.934h.672Zm0-9.725H7.662v-9.883h.672Zm0-10.674H7.662v-1.284h.672Zm43.3-10.555a2.1,2.1,0,0,1,2.072,1.8H49.558A2.1,2.1,0,0,1,51.629,977.944ZM49.494,971.7v.688H33.042l-.689-.688Zm-1.118,8.836h.367v2.37h-3.4v-2.39a.4.4,0,0,0-.4-.4h-.487v-3.1a.394.394,0,0,0-.4-.4H42.05v-2.168a.4.4,0,0,0-.674-.28l-2.449,2.448H34.576V976.4a.393.393,0,0,0,.13-.291v-1.89a.394.394,0,0,0-.115-.279l-.759-.759H48.743v6.566h-.367a.4.4,0,0,0,0,.791Zm-7.959,4.724V980.91h4.136v4.349Zm2.989.791v23.877H41.6V986.049Zm-10.522,1.5-.105-.438.253-1.062h7.779v23.877H39.4V994.573A7.054,7.054,0,0,0,32.885,987.549Zm-12.691-2.29V980.91H24.33v4.349Zm2.95.791v23.877h-1.8V986.049Zm-8.722,11.07v-11.07h1.516v1.187a.4.4,0,0,0,.791,0v-1.187h1.515v1.187a.4.4,0,1,0,.79,0v-1.187h1.515v11.07Zm6.127.79v12.017H14.422V997.909ZM16.37,979.743H16v-6.566H30.767v1.253l-1.315,1.4a.4.4,0,0,0,.289.666h.43v.12H25.82l-2.448-2.448a.4.4,0,0,0-.675.28v2.168H20.68a.394.394,0,0,0-.4.4v3.1H19.8a.4.4,0,0,0-.4.4v2.39H16v-2.37h.367a.4.4,0,0,0,0-.791Zm17.546-5.364v1.33H30.652l.8-.852a.394.394,0,0,0,.107-.271v-1.734l.416-.415Zm-1.86-3.807a.318.318,0,1,1,.318.334A.337.337,0,0,1,32.055,970.572Zm11.616,6.839v2.708H32.45a.416.416,0,0,0-.077.007.421.421,0,0,0-.077-.007H21.076v-2.708H32.3a.411.411,0,0,0,.077-.007.405.405,0,0,0,.077.007Zm-3.626-.79,1.215-1.214v1.214ZM33.233,982.9h-1.72a.4.4,0,0,0-.4.4v1.958h-6V980.91H32.3a.512.512,0,0,0,.077-.008.506.506,0,0,0,.077.008h7.176v4.349h-6V983.3A.4.4,0,0,0,33.233,982.9Zm-.4.791v1.563h-.929V983.7Zm-9.351-7.075v-1.214L24.7,976.62Zm7.474,0v-.12h2.825v.12H32.45a.377.377,0,0,0-.077.007.382.382,0,0,0-.077-.007Zm-7.027,9.428h7.779l.253,1.062-.105.438a7.054,7.054,0,0,0-6.517,7.024v15.353h-1.41Zm2.2,14.39h1.688v8.23l-1.688.97Zm2.019,8.953a.4.4,0,0,0,.065.006h8.309a.409.409,0,0,0,.065-.006l.932.535h-10.3Zm4.633-4.8h3.229a3.792,3.792,0,0,1,.117.936v3.084H32.787Zm-3.753-.791a3.745,3.745,0,0,1,6.679,0Zm3.369-2.84-.012,0-.018,0-.018,0-.012,0a4.568,4.568,0,0,0-3.729,2v-2.519h7.518v2.519A4.567,4.567,0,0,0,32.4,1000.956Zm-3.671,3.631h3.229v4.02H28.614v-3.084A3.748,3.748,0,0,1,28.732,1004.587Zm8.191,4.081v-8.23h1.689v9.2Zm-10.788-9.021v-1.809c0-.177.009-.35.023-.524H32.3a.374.374,0,0,0,.077-.009.369.369,0,0,0,.077.009h6.138c.014.173.024.347.024.524v1.809Zm.14-3.123a6.233,6.233,0,0,1,12.2,0H32.45a.405.405,0,0,0-.077.007.411.411,0,0,0-.077-.007Zm6.127-5.731h-.059a7.05,7.05,0,0,0-6.208,3.807v-.028a6.238,6.238,0,1,1,12.477,0v.028A7.05,7.05,0,0,0,32.4,990.794Zm-.036-41.906.006,0,.006,0a3.13,3.13,0,0,1,3.1,2.731h-6.21A3.129,3.129,0,0,1,32.367,948.888ZM29.24,952.41h6.266v3.436H29.24Zm0,4.226h6.266v.654a16.511,16.511,0,0,0-3.126-.3h-.012a16.512,16.512,0,0,0-3.127.3Zm3.127,1.144h.012A15.8,15.8,0,0,1,47.9,970.908H47.34v-.653a.4.4,0,0,0-.79,0v.653H44.909v-.653a.4.4,0,0,0-.791,0v.653H42.477v-.653a.4.4,0,0,0-.791,0v.653H40.045v-.653a.4.4,0,0,0-.79,0v.653H37.614v-.653a.4.4,0,0,0-.79,0v.653H35.183v-.653a.4.4,0,0,0-.791,0v.653h-.961a1.125,1.125,0,0,0-1-1.459.318.318,0,0,0-.036,0h-.035a.307.307,0,0,0-.036,0,1.125,1.125,0,0,0-1,1.459h-.961v-.653a.4.4,0,0,0-.791,0v.653h-1.64v-.653a.4.4,0,0,0-.791,0v.653h-1.64v-.653a.4.4,0,0,0-.791,0v.653H23.06v-.653a.4.4,0,0,0-.79,0v.653H20.629v-.653a.4.4,0,0,0-.79,0v.653H18.2v-.653a.4.4,0,0,0-.79,0v.653h-.561A15.8,15.8,0,0,1,32.367,957.781ZM15.252,971.7H31.594l-.689.688H15.252Zm4.151,12v1.563H14.422V983.7Zm-6.286-5.751a2.1,2.1,0,0,1,2.072,1.8H11.046A2.1,2.1,0,0,1,13.117,977.944ZM11.536,1008.9H9.124v-8.934h2.412Zm0-9.725H9.124v-9.883h2.412Zm0-10.674H9.124v-1.284h1.5a.4.4,0,0,0,.4-.4v-.771h.514Zm.4-5.6a.4.4,0,0,0-.4.4v1.958h-.514v-4.724h4.19v2.37Zm1.7,31.41h-1.3v-8.05h1.3Zm0-8.84h-1.3v-7.566h1.3Zm0-8.356h-1.3v-11.07h1.3Zm0-11.86h-1.3V983.7h1.3Zm36.694,29.057h-35.9v-.672h35.9Zm0-1.463h-35.9v-.672h35.9Zm0-1.462h-35.9v-.672h35.9Zm0-1.463H44.2V997.909h6.127Zm0-12.808H44.2v-11.07h1.515v1.187a.4.4,0,0,0,.791,0v-1.187h1.515v1.187a.4.4,0,0,0,.791,0v-1.187h1.516Zm0-11.86H45.344V983.7h4.981Zm2.1,29.057h-1.3v-8.05h1.3Zm0-8.84h-1.3v-7.566h1.3Zm0-8.356h-1.3v-11.07h1.3Zm0-11.86h-1.3V983.7h1.3Zm.4-2.354H49.534v-2.37h4.19v4.724h-.514V983.3A.4.4,0,0,0,52.815,982.9Zm2.807,25.994H53.211v-8.934h2.412Zm0-9.725H53.211v-9.883h2.412Zm0-10.674H53.211v-2.451h.514v.771a.4.4,0,0,0,.4.4h1.5Zm1.463,20.4h-.672v-8.934h.672Zm0-9.725h-.672v-9.883h.672Zm0-10.674h-.672v-1.284h.672ZM64.4,999.174H57.876v-9.883H64.4Zm0-10.674H57.876v-1.284H64.4Zm2.253,0H65.189v-1.284h1.463Z" transform="translate(-0.439 0)"/><path class="a" d="M132.44,1044.6h-1.226a.4.4,0,0,0-.4.4v3.123a.4.4,0,0,0,.4.4h1.226a.4.4,0,0,0,.4-.4V1045A.4.4,0,0,0,132.44,1044.6Zm-.4,3.124h-.435V1045.4h.435Z" transform="translate(-71.129 -50.61)"/><path class="a" d="M132.549,1042.04l-.838-.381a.4.4,0,0,0-.326,0l-.867.393a.4.4,0,0,0,.163.755h1.736a.395.395,0,0,0,.132-.767Z" transform="translate(-70.85 -49.047)"/><path class="a" d="M118.164,1048.344a.4.4,0,0,0,.4-.4v-3.282a.4.4,0,1,0-.79,0v3.282A.4.4,0,0,0,118.164,1048.344Z" transform="translate(-64.285 -50.436)"/><path class="a" d="M117.748,1068.155a.4.4,0,0,0,.4-.4v-3.105a.4.4,0,1,0-.791,0v3.105A.4.4,0,0,0,117.748,1068.155Z" transform="translate(-64.067 -60.917)"/><path class="a" d="M82.7,1029.956a.4.4,0,0,0-.4-.4H78.978a.4.4,0,0,0,0,.791h2.931v2.332a.4.4,0,1,0,.79,0Z" transform="translate(-43.736 -42.72)"/><path class="a" d="M103.159,1040.116H100.9a.4.4,0,0,0-.4.4v3.242a.4.4,0,0,0,.4.4h2.258a.4.4,0,0,0,.4-.4v-3.242A.4.4,0,0,0,103.159,1040.116Zm-1.524,3.242H101.3v-2.451h.339Zm1.129,0h-.338v-2.451h.338Z" transform="translate(-55.232 -48.256)"/><path class="a" d="M100.9,1066.687h2.258a.4.4,0,0,0,.4-.4v-5.04a.4.4,0,0,0-.4-.4H100.9a.4.4,0,0,0-.4.4v5.04A.4.4,0,0,0,100.9,1066.687Zm.4-5.04h1.467v4.25H101.3Z" transform="translate(-55.232 -59.133)"/><path class="a" d="M102.077,1035.4a1.573,1.573,0,0,0-1.571,1.572.4.4,0,0,0,.4.4h2.356a.4.4,0,0,0,.4-.4.464.464,0,0,0,0-.058A1.574,1.574,0,0,0,102.077,1035.4Zm-.673,1.176a.781.781,0,0,1,1.346,0Z" transform="translate(-55.232 -45.783)"/><path class="a" d="M66.446,959.41a.4.4,0,0,0-.4.4v1.054a.4.4,0,0,0,.791,0v-1.054A.4.4,0,0,0,66.446,959.41Z" transform="translate(-37.163 -5.932)"/><path class="a" d="M11.477,1044.6H10.252a.4.4,0,0,0-.4.4v3.123a.4.4,0,0,0,.4.4h1.226a.4.4,0,0,0,.4-.4V1045A.4.4,0,0,0,11.477,1044.6Zm-.4,3.124h-.435V1045.4h.435Z" transform="translate(-7.694 -50.61)"/><path class="a" d="M9.719,1042.807h1.733a.4.4,0,0,0,.163-.755l-.867-.393a.4.4,0,0,0-.326,0l-.866.393a.4.4,0,0,0,.163.755Z" transform="translate(-7.414 -49.047)"/><path class="a" d="M25.879,1048.344a.4.4,0,0,0,.4-.4v-3.282a.4.4,0,1,0-.79,0v3.282A.4.4,0,0,0,25.879,1048.344Z" transform="translate(-15.889 -50.436)"/><path class="a" d="M26.3,1068.155a.4.4,0,0,0,.4-.4v-3.105a.4.4,0,1,0-.79,0v3.105A.4.4,0,0,0,26.3,1068.155Z" transform="translate(-16.107 -60.917)"/><path class="a" d="M58.073,1033.078a.4.4,0,0,0,.4-.4v-2.332H61.4a.4.4,0,0,0,0-.791H58.073a.4.4,0,0,0-.4.4v2.727A.4.4,0,0,0,58.073,1033.078Z" transform="translate(-32.772 -42.72)"/><path class="a" d="M40.652,1040.116H38.395a.4.4,0,0,0-.4.4v3.242a.4.4,0,0,0,.4.4h2.258a.4.4,0,0,0,.4-.4v-3.242A.4.4,0,0,0,40.652,1040.116Zm-1.524,3.242H38.79v-2.451h.339Zm1.129,0h-.338v-2.451h.338Z" transform="translate(-22.452 -48.256)"/><path class="a" d="M38.395,1066.687h2.258a.4.4,0,0,0,.4-.4v-5.04a.4.4,0,0,0-.4-.4H38.395a.4.4,0,0,0-.4.4v5.04A.4.4,0,0,0,38.395,1066.687Zm.4-5.04h1.467v4.25H38.79Z" transform="translate(-22.452 -59.133)"/><path class="a" d="M39.372,1035.4a1.573,1.573,0,0,0-1.571,1.572.4.4,0,0,0,.4.4h2.352a.4.4,0,0,0,.4-.4A1.573,1.573,0,0,0,39.372,1035.4Zm-.672,1.176a.78.78,0,0,1,1.346,0Z" transform="translate(-22.349 -45.783)"/><g transform="translate(-4.815 948.688)"><path class="a" d="M31.61,1087.1a2.623,2.623,0,0,0-.405-.032,2.464,2.464,0,0,0-.467.043l-.343.064c-.029.005-.06.009-.089.012v0h1.3Z" transform="translate(-13.603 -1021.569)"/><path class="a" d="M.38,1036.036a2.841,2.841,0,0,0,0-1.034Z" transform="translate(2.091 -994.262)"/><path class="a" d="M144.483,1035a2.851,2.851,0,0,0,0,1.034Z" transform="translate(-73.455 -994.262)"/><path class="a" d="M113.172,1087.192c-.03,0-.059-.007-.089-.012l-.343-.064a2.469,2.469,0,0,0-.467-.043,2.633,2.633,0,0,0-.405.032v.091h1.3Z" transform="translate(-56.375 -1021.569)"/><path class="a" d="M68.018,985.488l-.243-.25a2.007,2.007,0,0,1-.114-2.553l.219-.272a2.318,2.318,0,0,0-.456-3.367l-.284-.2a2.007,2.007,0,0,1-.569-2.492l.167-.307a2.317,2.317,0,0,0-1.049-3.231l-.316-.149a2.005,2.005,0,0,1-1-2.35l.109-.331a2.318,2.318,0,0,0-1.61-2.992l-.337-.091a2.005,2.005,0,0,1-1.408-2.132l.049-.345a2.321,2.321,0,0,0-2.119-2.657l-.347-.029a2.006,2.006,0,0,1-1.766-1.847l-.013-.348A2.326,2.326,0,0,0,54.6,957.3c-.077,0-.156,0-.234.011l-.347.033a2,2,0,0,1-2.067-1.5l-.076-.339a2.314,2.314,0,0,0-2.265-1.834,2.383,2.383,0,0,0-.652.091l-.335.095a1.756,1.756,0,0,1-.48.066,2.008,2.008,0,0,1-1.822-1.174l-.135-.322a2.321,2.321,0,0,0-3.181-1.193l-.313.153a1.834,1.834,0,0,1-.806.181,1.981,1.981,0,0,1-1.657-.86l-.191-.293A2.319,2.319,0,0,0,36.7,949.8l-.282.206a2.115,2.115,0,0,1-1.126.355,1.859,1.859,0,0,1-.28-.018c.082.136.165.277.246.423q.108.194.206.382a2.7,2.7,0,0,0,1.422-.5l.281-.206a1.528,1.528,0,0,1,2.211.4l.19.293a2.78,2.78,0,0,0,2.32,1.219,2.648,2.648,0,0,0,1.154-.26l.312-.153a1.557,1.557,0,0,1,.693-.163,1.534,1.534,0,0,1,1.412.953l.136.322a2.815,2.815,0,0,0,2.551,1.658,2.549,2.549,0,0,0,.7-.1l.336-.1a1.589,1.589,0,0,1,.436-.062,1.53,1.53,0,0,1,1.493,1.214l.076.341a2.784,2.784,0,0,0,2.675,2.13,2.133,2.133,0,0,0,.24-.013l.347-.033a1.522,1.522,0,0,1,1.693,1.479l.013.35a2.792,2.792,0,0,0,2.49,2.6l.348.028a1.528,1.528,0,0,1,1.4,1.758l-.049.345a2.792,2.792,0,0,0,1.986,3.007l.337.091a1.529,1.529,0,0,1,1.065,1.98l-.11.331a2.793,2.793,0,0,0,1.416,3.313l.316.149a1.529,1.529,0,0,1,.694,2.137l-.168.307a2.793,2.793,0,0,0,.8,3.513l.283.2a1.528,1.528,0,0,1,.3,2.228l-.219.272a2.791,2.791,0,0,0,.162,3.6l.242.25a1.541,1.541,0,0,1,.441,1.038h.4a1.924,1.924,0,0,1-.155.791h-.44a1.565,1.565,0,0,1-.343.418l-.263.228c-.029.024-.055.05-.082.077v.562h.025a2.4,2.4,0,0,0-.1,2.712l.074.11v.848a1.515,1.515,0,0,1,.022.757c-.006.026-.014.051-.022.077v.821a1.991,1.991,0,0,1-.507.428l-.283.167v-.46l-.219.13a2.738,2.738,0,0,0-1.244,1.726v1.307a2.536,2.536,0,0,0,.131.393l.138.322a1.533,1.533,0,0,1,.012,1.227c-.016.037-.035.074-.054.11h.434a1.908,1.908,0,0,1-.586.79H64.75v.054a2.007,2.007,0,0,1-.477.256l-.314.115v-.421l-.151.056a2.792,2.792,0,0,0-1.707,3.173l.079.339a1.529,1.529,0,0,1-1.238,1.877l-.343.06a2.792,2.792,0,0,0-2.247,2.817l.018.349a1.582,1.582,0,0,1-.01.26h.4a1.942,1.942,0,0,1-.245.791h-.476c-.026.034-.054.067-.084.1a1.519,1.519,0,0,1-.516.356v.419a1.964,1.964,0,0,1-.622.1h-.169v-.4h-.193a2.59,2.59,0,0,0-.479.047v.405a2.383,2.383,0,0,0-.79.346v-.458a2.778,2.778,0,0,0-1.428,2.031l-.045.346a1.531,1.531,0,0,1-.938,1.236v.1h.6a1.931,1.931,0,0,1-1.555.371l-.344-.064a2.356,2.356,0,0,0-1.861.483h-.581a2.61,2.61,0,0,0-.577.977l-.106.332a1.534,1.534,0,0,1-1.458,1.081,1.593,1.593,0,0,1-.568-.107l-.325-.125a2.59,2.59,0,0,0-.925-.168,2.785,2.785,0,0,0-2.449,1.434l-.163.309a1.538,1.538,0,0,1-1.355.828,1.567,1.567,0,0,1-.811-.23l-.3-.181a2.655,2.655,0,0,0-1.378-.374,2.763,2.763,0,0,0-2.167,1.017l-.216.274a1.536,1.536,0,0,1-1.21.6,1.552,1.552,0,0,1-1.028-.4l-.262-.231a2.786,2.786,0,0,0-3.6,0l-.261.231a1.555,1.555,0,0,1-1.029.4,1.536,1.536,0,0,1-1.21-.6l-.216-.274a2.763,2.763,0,0,0-2.167-1.017,2.658,2.658,0,0,0-1.378.374l-.3.181a1.564,1.564,0,0,1-.811.23,1.539,1.539,0,0,1-1.356-.828l-.163-.309a2.785,2.785,0,0,0-2.448-1.434,2.582,2.582,0,0,0-.925.168l-.326.125a1.591,1.591,0,0,1-.568.107,1.533,1.533,0,0,1-1.457-1.081l-.106-.332a2.616,2.616,0,0,0-.577-.977h-.581a2.357,2.357,0,0,0-1.862-.483l-.342.064a1.934,1.934,0,0,1-1.557-.371h.6v-.1a1.532,1.532,0,0,1-.938-1.236l-.045-.346a2.771,2.771,0,0,0-1.428-2.03v.457a2.375,2.375,0,0,0-.79-.346v-.4a2.557,2.557,0,0,0-.494-.049H7.223v.4H7.054a1.973,1.973,0,0,1-.622-.1v-.419a1.511,1.511,0,0,1-.516-.356c-.03-.031-.057-.064-.084-.1H5.357a1.935,1.935,0,0,1-.246-.791h.4a1.63,1.63,0,0,1-.01-.26l.018-.349a2.792,2.792,0,0,0-2.247-2.817l-.343-.06a1.528,1.528,0,0,1-1.238-1.877l.079-.339a2.79,2.79,0,0,0-1.707-3.173l-.151-.056v.421l-.313-.115a2,2,0,0,1-.477-.256v-.054H-.956a1.909,1.909,0,0,1-.587-.79h.434c-.019-.036-.037-.073-.053-.11a1.533,1.533,0,0,1,.011-1.227l.139-.322a2.515,2.515,0,0,0,.13-.391v-1.308a2.736,2.736,0,0,0-1.244-1.726l-.219-.13v.46l-.282-.167a1.95,1.95,0,0,1-.509-.43v-.821c-.007-.025-.015-.05-.021-.076a1.506,1.506,0,0,1,.021-.756v-.849l.074-.11a2.4,2.4,0,0,0-.1-2.712h.025v-.562c-.027-.026-.053-.053-.081-.077l-.264-.228a1.585,1.585,0,0,1-.343-.418h-.44a1.915,1.915,0,0,1-.154-.791h.395a1.543,1.543,0,0,1,.441-1.038l.243-.25a2.792,2.792,0,0,0,.162-3.6l-.219-.272a1.537,1.537,0,0,1-.338-1.18,1.537,1.537,0,0,1,.639-1.048l.284-.2a2.794,2.794,0,0,0,.8-3.513l-.168-.307a1.538,1.538,0,0,1-.121-1.22,1.537,1.537,0,0,1,.817-.917l.315-.149A2.793,2.793,0,0,0,.25,970.067l-.11-.331a1.529,1.529,0,0,1,1.065-1.98l.338-.091a2.791,2.791,0,0,0,1.985-3.007l-.049-.345a1.529,1.529,0,0,1,1.4-1.758l.348-.028a2.793,2.793,0,0,0,2.49-2.6l.013-.35a1.524,1.524,0,0,1,1.693-1.479l.348.033a2.125,2.125,0,0,0,.24.013,2.783,2.783,0,0,0,2.675-2.13l.076-.341a1.53,1.53,0,0,1,1.494-1.214,1.594,1.594,0,0,1,.436.062l.336.1a2.556,2.556,0,0,0,.7.1,2.816,2.816,0,0,0,2.551-1.658l.135-.322a1.535,1.535,0,0,1,1.412-.953,1.564,1.564,0,0,1,.692.162l.313.154a2.646,2.646,0,0,0,1.153.26,2.778,2.778,0,0,0,2.32-1.219l.19-.293a1.529,1.529,0,0,1,2.212-.4l.281.206a2.668,2.668,0,0,0,1.337.5,3.922,3.922,0,0,1,.448-.787c-.063.006-.127.009-.191.009a1.907,1.907,0,0,1-1.127-.355l-.281-.206a2.319,2.319,0,0,0-3.343.606l-.19.293a1.984,1.984,0,0,1-1.658.86,1.834,1.834,0,0,1-.806-.181l-.314-.153a2.321,2.321,0,0,0-3.181,1.193l-.135.322a2.007,2.007,0,0,1-1.821,1.174,1.767,1.767,0,0,1-.481-.066l-.335-.095a2.382,2.382,0,0,0-.652-.091A2.315,2.315,0,0,0,11.99,955.5l-.076.339a2,2,0,0,1-2.067,1.5l-.347-.033c-.078-.008-.156-.011-.234-.011a2.325,2.325,0,0,0-2.325,2.248l-.013.348a2.006,2.006,0,0,1-1.766,1.847l-.348.029a2.321,2.321,0,0,0-2.119,2.657l.049.345A2.005,2.005,0,0,1,1.338,966.9L1,966.993a2.318,2.318,0,0,0-1.61,2.992l.11.331a2.007,2.007,0,0,1-1.005,2.35l-.314.149A2.314,2.314,0,0,0-3.048,974.2a2.316,2.316,0,0,0,.179,1.844l.167.307a2,2,0,0,1-.568,2.49l-.284.2a2.317,2.317,0,0,0-.961,1.584,2.319,2.319,0,0,0,.505,1.783l.219.272a2.006,2.006,0,0,1-.114,2.553l-.243.25a2.323,2.323,0,0,0-.664,1.731A2.321,2.321,0,0,0-4,988.883l.264.228a2.006,2.006,0,0,1,.343,2.532l-.194.289a2.32,2.32,0,0,0-.343,1.822,2.317,2.317,0,0,0,1.1,1.491l.3.177a2.008,2.008,0,0,1,.79,2.43l-.14.32A2.318,2.318,0,0,0-.54,1001.3l.327.121A2.006,2.006,0,0,1,1,1003.666l-.079.34a2.317,2.317,0,0,0,1.871,2.835l.344.061a2.005,2.005,0,0,1,1.593,2l-.018.349a2.319,2.319,0,0,0,2.348,2.456l.36,0a2.009,2.009,0,0,1,1.914,1.681l.045.346a2.305,2.305,0,0,0,2.3,2.04,2.486,2.486,0,0,0,.446-.042l.342-.064a1.73,1.73,0,0,1,.321-.03,2.022,2.022,0,0,1,1.873,1.341l.105.332a2.321,2.321,0,0,0,2.211,1.632,2.379,2.379,0,0,0,.85-.158l.326-.125a1.8,1.8,0,0,1,.643-.116,2.011,2.011,0,0,1,1.749,1.014l.164.308a2.325,2.325,0,0,0,2.054,1.249,2.356,2.356,0,0,0,1.221-.345l.3-.18a1.856,1.856,0,0,1,.969-.261,1.967,1.967,0,0,1,1.546.716l.215.274a2.321,2.321,0,0,0,3.384.3l.261-.231a2,2,0,0,1,2.556,0l.261.231a2.32,2.32,0,0,0,3.384-.3l.216-.274a1.968,1.968,0,0,1,1.546-.716,1.863,1.863,0,0,1,.968.26l.3.181a2.356,2.356,0,0,0,1.222.345,2.326,2.326,0,0,0,2.054-1.249l.164-.308a2.009,2.009,0,0,1,1.749-1.014,1.8,1.8,0,0,1,.643.116l.326.125a2.381,2.381,0,0,0,.85.158,2.322,2.322,0,0,0,2.211-1.632l.106-.332a2.02,2.02,0,0,1,1.872-1.341,1.726,1.726,0,0,1,.321.03l.343.064a2.478,2.478,0,0,0,.446.042,2.306,2.306,0,0,0,2.3-2.04l.045-.346a1.986,1.986,0,0,1,1.924-1.681l.364,0a2.319,2.319,0,0,0,2.333-2.456l-.018-.349a2.006,2.006,0,0,1,1.593-2l.343-.061a2.318,2.318,0,0,0,1.872-2.835l-.08-.34a2.007,2.007,0,0,1,1.211-2.25l.327-.121a2.318,2.318,0,0,0,1.335-3.124l-.138-.32a2.005,2.005,0,0,1,.789-2.43l.3-.177a2.319,2.319,0,0,0,.756-3.312l-.194-.291a2.006,2.006,0,0,1,.344-2.532l.263-.228a2.32,2.32,0,0,0,.153-3.395Z" transform="translate(4.815 -949.339)"/></g></g></svg>