<svg xmlns="http://www.w3.org/2000/svg" width="101.639" height="101.639" viewBox="0 0 101.639 101.639">
  <g id="Group_9700" data-name="Group 9700" transform="translate(-876.387 -1719.719)">
    <g id="Group_9674" data-name="Group 9674" transform="translate(771 274)">
      <g id="Group_9699" data-name="Group 9699">
        <circle id="Ellipse_16" data-name="Ellipse 16" cx="50.819" cy="50.819" r="50.819" transform="translate(105.387 1445.719)" fill="#ffcb57"/>
        <rect id="Rectangle_3473" data-name="Rectangle 3473" width="64" height="64" transform="translate(125 1465)" fill="none"/>
      </g>
      <g id="Warranty" transform="translate(-1126.903 1349.094)">
        <g id="Group_582" data-name="Group 582" transform="translate(1262.007 120)">
          <ellipse id="Ellipse_81" data-name="Ellipse 81" cx="14.5" cy="15" rx="14.5" ry="15" transform="translate(6.896 6.906)" fill="#151515"/>
          <path id="Path_1633" data-name="Path 1633" d="M1304.627,174.3l-8.136-18.956a1.911,1.911,0,0,1,.337-.523,5.186,5.186,0,0,1,1.939-.846c1.179-.357,2.517-.761,3.165-1.879.638-1.1.325-2.452.046-3.645a5.274,5.274,0,0,1-.233-2.139,5.134,5.134,0,0,1,1.228-1.658c.854-.908,1.823-1.94,1.823-3.259s-.967-2.35-1.822-3.258a5.09,5.09,0,0,1-1.228-1.659,5.275,5.275,0,0,1,.232-2.141c.277-1.191.59-2.541-.048-3.641-.646-1.118-1.985-1.522-3.163-1.879a5.227,5.227,0,0,1-1.94-.846,5.181,5.181,0,0,1-.846-1.94c-.357-1.181-.763-2.517-1.879-3.165-.941-.547-2.35-.348-3.642-.048a5.468,5.468,0,0,1-2.143.234,5.164,5.164,0,0,1-1.658-1.23c-.908-.854-1.939-1.821-3.258-1.821s-2.349.967-3.257,1.821a5.171,5.171,0,0,1-1.66,1.23,5.439,5.439,0,0,1-2.139-.234c-1.289-.3-2.7-.5-3.643.048-1.12.646-1.523,1.983-1.881,3.165a2.9,2.9,0,0,1-2.785,2.785c-1.181.357-2.519.761-3.165,1.879-.638,1.1-.326,2.45-.048,3.643a5.277,5.277,0,0,1,.232,2.141,5.141,5.141,0,0,1-1.23,1.658c-.854.908-1.82,1.94-1.82,3.259s.966,2.35,1.82,3.258a5.141,5.141,0,0,1,1.23,1.658,5.274,5.274,0,0,1-.232,2.141c-.277,1.193-.59,2.541.048,3.643.646,1.118,1.983,1.522,3.163,1.879a5.229,5.229,0,0,1,1.941.847,1.974,1.974,0,0,1,.323.495l-8.217,19.2a.93.93,0,0,0,.856,1.3.913.913,0,0,0,.415-.1l8.824-4.417,7,4.374a.932.932,0,0,0,1.358-.445l3-7.581,2.7,7.549a.931.931,0,0,0,1.369.476l7-4.374,8.848,4.417a.922.922,0,0,0,.417.1.222.222,0,0,0,.036,0,.93.93,0,0,0,.725-1.513Zm-36.053-22.107c-.891-.27-1.814-.549-2.093-1.031a3.934,3.934,0,0,1,.155-2.29,6.415,6.415,0,0,0,.218-3.042,6.176,6.176,0,0,0-1.671-2.45c-.647-.69-1.315-1.4-1.315-1.985s.668-1.3,1.317-1.987a6.153,6.153,0,0,0,1.667-2.448,6.366,6.366,0,0,0-.216-3.044,3.934,3.934,0,0,1-.155-2.29c.279-.482,1.2-.761,2.093-1.031a4.58,4.58,0,0,0,4.028-4.028c.272-.891.549-1.814,1.031-2.093a4.1,4.1,0,0,1,2.29.154,6.757,6.757,0,0,0,3.042.218,6.188,6.188,0,0,0,2.452-1.669c.69-.647,1.4-1.317,1.985-1.317s1.3.67,1.983,1.317a6.207,6.207,0,0,0,2.454,1.669,6.769,6.769,0,0,0,3.04-.218,4.109,4.109,0,0,1,2.292-.154c.482.279.761,1.2,1.031,2.093a4.579,4.579,0,0,0,4.028,4.03c.891.27,1.814.549,2.093,1.031a3.926,3.926,0,0,1-.154,2.288,6.41,6.41,0,0,0-.22,3.042,6.189,6.189,0,0,0,1.672,2.454c.646.688,1.315,1.4,1.315,1.983s-.672,1.3-1.317,1.985a6.232,6.232,0,0,0-1.672,2.452,6.41,6.41,0,0,0,.221,3.042,3.932,3.932,0,0,1,.154,2.29c-.281.482-1.2.761-2.095,1.031a6.277,6.277,0,0,0-2.714,1.312,4.21,4.21,0,0,0-.895,1.483c-.006.011-.015.02-.02.032-.021.052-.034.112-.054.166-.123.335-.235.677-.339,1.02l0,.017a8.53,8.53,0,0,1-.6,1.576,1.36,1.36,0,0,1-.432.517.906.906,0,0,1-.309.084.7.7,0,0,1-.089.024,6.924,6.924,0,0,1-1.894-.262,9.72,9.72,0,0,0-2.232-.313l-.049-.006-.009,0a3.119,3.119,0,0,0-.75.1,6.207,6.207,0,0,0-2.454,1.669c-.688.647-1.4,1.317-1.983,1.317s-1.295-.67-1.985-1.317a6.188,6.188,0,0,0-2.452-1.669,3.277,3.277,0,0,0-.78-.1c-.047,0-.084-.017-.132-.017-.121,0-.245.028-.368.037s-.257.02-.389.037c-.192.026-.381.048-.573.086-.268.052-.538.11-.8.171a4.1,4.1,0,0,1-2.29.154,1.7,1.7,0,0,1-.6-.817,12.223,12.223,0,0,1-.435-1.276c-.108-.355-.223-.711-.35-1.059-.019-.047-.032-.1-.05-.147l-.013-.017a4.226,4.226,0,0,0-.9-1.5A6.323,6.323,0,0,0,1268.574,152.192Z" transform="translate(-1262.007 -120)" fill="#151515"/>
        </g>
      </g>
    </g>
  </g>
</svg>
