<svg xmlns="http://www.w3.org/2000/svg" width="225.848" height="40.994" viewBox="0 0 345.848 53.994"><defs><style>.a{fill:#ffcb57;}</style></defs><path class="a" d="M3.006,40.751A25.2,25.2,0,0,1,7.045,11.357c.052-.055.11-.1.166-.151a.252.252,0,0,1,.156-.151A24.489,24.489,0,0,1,18.845,4.436c1.035-.259,2.09-.412,3.136-.606s1.3-.487,1.355-1.555c.018-.389.016-.778.025-1.168.01-.425.048-.835.517-1.035s.79.04,1.113.325c1.459,1.286,2.914,2.578,4.386,3.849.74.639,1.513,1.242,2.279,1.852,1.023.816,1.062,1.386.087,2.25q-3.38,3-6.785,5.968a2,2,0,0,1-.3.223.8.8,0,0,1-1.275-.644c-.034-.576-.015-1.154-.022-1.732,0-.2-.006-.4-.02-.6-.052-.752-.331-.986-1.078-.851A18.985,18.985,0,0,0,13.5,14.62,17.491,17.491,0,0,0,7.059,25.986,17.993,17.993,0,0,0,8.09,35.735a19.008,19.008,0,0,0,5.9,7.573c.451.361.906.714,1.36,1.072a.185.185,0,0,1,.047.174c.012-.032.045-.053.126-.052a22.448,22.448,0,0,0,3.746,1.724,17.238,17.238,0,0,0,3.9.761c7.527.676,13.309-2.3,17.5-8.5a14.769,14.769,0,0,0,2.093-4.719,29.442,29.442,0,0,0,.462-3.123c.118-.87.179-1.75.342-2.611a3.17,3.17,0,0,1,3.695-2.585,3.245,3.245,0,0,1,2.954,3.242,23.922,23.922,0,0,1-6.786,17.4,24.721,24.721,0,0,1-15.07,7.675,24.108,24.108,0,0,1-3.312.229A25.172,25.172,0,0,1,3.006,40.751ZM15.4,44.713c0,.048.042.039.052.028s0-.008-.014-.008-.022,0-.022-.008c0-.043-.022-.093-.023-.135A.2.2,0,0,0,15.4,44.713ZM131.865,48.02a5.207,5.207,0,0,1-2.808-2.073,6.571,6.571,0,0,1-.829-3.469h4.334a3,3,0,0,0,.4,1.659,2.45,2.45,0,0,0,1.433.905,11.334,11.334,0,0,0,3,.3,8.032,8.032,0,0,0,3.883-.679,2.158,2.158,0,0,0,1.131-1.96,2.031,2.031,0,0,0-.867-1.753,4.3,4.3,0,0,0-2.525-.622h-3.015a6.961,6.961,0,0,1-4.26-1.093,3.333,3.333,0,0,1-1.433-2.752,3.748,3.748,0,0,1,.623-2.036,5.29,5.29,0,0,1,1.715-1.659,6.573,6.573,0,0,1-2.658-2.318,6.163,6.163,0,0,1-.849-3.3,6.749,6.749,0,0,1,1.056-3.769,6.96,6.96,0,0,1,2.921-2.507,9.862,9.862,0,0,1,4.279-.885,17.863,17.863,0,0,0,5.108-.471,21.426,21.426,0,0,0,4.2-1.753l1.206,3.844a18.416,18.416,0,0,1-5.768.679,6.6,6.6,0,0,1,2.733,2.054,5.107,5.107,0,0,1,.886,3.073,6.311,6.311,0,0,1-.962,3.468A6.513,6.513,0,0,1,142,33.281a9.876,9.876,0,0,1-4.278.867,8.387,8.387,0,0,1-2.376-.3,1.714,1.714,0,0,0-.829,1.471q0,1.394,2.412,1.394h3.054a9.482,9.482,0,0,1,3.825.717,5.872,5.872,0,0,1,2.545,2.016,5,5,0,0,1,.905,2.921A5.309,5.309,0,0,1,144.7,47.06q-2.563,1.677-7.388,1.678A16.53,16.53,0,0,1,131.865,48.02Zm3.054-23.692a4.009,4.009,0,0,0-.924,2.771,4.144,4.144,0,0,0,.943,2.865,3.8,3.8,0,0,0,5.24.019,4.3,4.3,0,0,0,.905-2.921q0-3.769-3.619-3.77A3.234,3.234,0,0,0,134.919,24.328ZM237.547,20.8h1.884l.188,2.865a7.971,7.971,0,0,1,2.658-2.412,6.916,6.916,0,0,1,3.411-.867,6.046,6.046,0,0,1,5.372,2.658q1.791,2.657,1.79,7.52a13.079,13.079,0,0,1-1.942,7.559,6.35,6.35,0,0,1-5.559,2.808,6.913,6.913,0,0,1-3.2-.736,7.23,7.23,0,0,1-2.412-1.979v9.725l-2.186.3Zm4.655,2.3a10.774,10.774,0,0,0-2.469,2.489V36.071a5.96,5.96,0,0,0,5.2,3.015,4.678,4.678,0,0,0,4.146-2.148q1.432-2.149,1.433-6.371,0-8.369-5.24-8.368A5.245,5.245,0,0,0,242.2,23.1Zm-26.557-2.3h1.884l.189,2.865a7.959,7.959,0,0,1,2.657-2.412,6.919,6.919,0,0,1,3.411-.867,6.046,6.046,0,0,1,5.372,2.658q1.791,2.657,1.79,7.52a13.086,13.086,0,0,1-1.941,7.559,6.353,6.353,0,0,1-5.56,2.808,6.913,6.913,0,0,1-3.2-.736,7.23,7.23,0,0,1-2.412-1.979v9.725l-2.186.3Zm4.655,2.3a10.794,10.794,0,0,0-2.469,2.489V36.071a5.96,5.96,0,0,0,5.2,3.015,4.678,4.678,0,0,0,4.146-2.148q1.432-2.149,1.433-6.371,0-8.369-5.239-8.368A5.246,5.246,0,0,0,220.3,23.1Zm37.075,23.41a10.441,10.441,0,0,0,3.072-1.206,5.611,5.611,0,0,0,1.773-1.791,16.235,16.235,0,0,0,1.338-3H262.8L255.942,20.8h2.376L264.273,38.9,270.117,20.8h2.3l-6.748,19.79a17.775,17.775,0,0,1-1.734,3.77,7.933,7.933,0,0,1-2.451,2.431,11.057,11.057,0,0,1-3.883,1.414Zm-84.647-7.106a6.871,6.871,0,0,1-1.527-4.844V24.046h-3.129V20.578H171.2V16.167l4.826-.565v4.976h4.636l-.49,3.468h-4.146v10.4a3.431,3.431,0,0,0,.508,2.111,1.924,1.924,0,0,0,1.6.641,4.932,4.932,0,0,0,2.376-.716l1.7,3.091a7.7,7.7,0,0,1-2.357,1.131,9.5,9.5,0,0,1-2.657.377A5.918,5.918,0,0,1,172.728,39.407Zm-21.449-1.112a11.08,11.08,0,0,1-2.47-7.614,13.642,13.642,0,0,1,1.056-5.485,8.7,8.7,0,0,1,3.054-3.808,9.094,9.094,0,0,1,11.234,1.281q2.3,2.657,2.3,7.407,0,.378-.114,1.961H153.823a6.328,6.328,0,0,0,1.508,4.146,4.662,4.662,0,0,0,3.393,1.245,7.1,7.1,0,0,0,2.488-.434,11.618,11.618,0,0,0,2.488-1.339l2,2.752a11.475,11.475,0,0,1-7.388,2.677A8.891,8.891,0,0,1,151.279,38.295Zm3.731-13.552a7.754,7.754,0,0,0-1.187,4.165h7.841v-.226q0-5.24-3.883-5.24A3.3,3.3,0,0,0,155.01,24.743ZM108.851,38.257a13.3,13.3,0,0,1-1.96-7.69,14.261,14.261,0,0,1,.98-5.446,8.593,8.593,0,0,1,2.808-3.751,7.088,7.088,0,0,1,9.254.791v-10.1l4.826.527V40.519H120.5l-.34-2.525a6.972,6.972,0,0,1-2.393,2.262,6.534,6.534,0,0,1-3.3.829A6.423,6.423,0,0,1,108.851,38.257Zm4.241-12.911a9.657,9.657,0,0,0-1.112,5.183,10.638,10.638,0,0,0,.98,5.3,3.158,3.158,0,0,0,2.865,1.6,4.13,4.13,0,0,0,2.262-.623,6.4,6.4,0,0,0,1.847-1.941V25.742a6.905,6.905,0,0,0-1.753-1.583,3.939,3.939,0,0,0-2.055-.528A3.447,3.447,0,0,0,113.092,25.346ZM87.553,39.388a5.944,5.944,0,0,1-1.735-4.448,5.755,5.755,0,0,1,2.357-4.957A11.3,11.3,0,0,1,94.9,28.267h2.488V27.136a3.44,3.44,0,0,0-.886-2.7,4.284,4.284,0,0,0-2.846-.772,16.819,16.819,0,0,0-5.277,1.056l-1.131-3.28a20.141,20.141,0,0,1,7.238-1.432q7.652,0,7.652,6.861v8.369a3.2,3.2,0,0,0,.358,1.715,2.289,2.289,0,0,0,1.15.848l-1.018,3.2a6.168,6.168,0,0,1-2.771-.83,4.239,4.239,0,0,1-1.64-2.073,6.391,6.391,0,0,1-2.544,2.243,7.763,7.763,0,0,1-3.411.735A6.446,6.446,0,0,1,87.553,39.388Zm3.166-4.826a3.2,3.2,0,0,0,.716,2.224,2.7,2.7,0,0,0,2.111.792,4.268,4.268,0,0,0,3.845-2.451V31.095h-2Q90.719,31.095,90.719,34.562ZM65.03,37.616q-2.959-3.469-2.96-10.14a15.669,15.669,0,0,1,1.6-7.332,11.241,11.241,0,0,1,4.317-4.655,11.749,11.749,0,0,1,6.032-1.583,12.44,12.44,0,0,1,4.542.772,13.193,13.193,0,0,1,3.75,2.281l-2.676,2.79a10.988,10.988,0,0,0-2.62-1.583,7.634,7.634,0,0,0-2.846-.49,6.035,6.035,0,0,0-4.938,2.413Q67.31,22.5,67.31,27.476q0,5.2,1.526,7.5a5.2,5.2,0,0,0,4.656,2.3,8.172,8.172,0,0,0,4.146-1.018V29.473h-3.92L73.19,25.78h9.349V38.521a17,17,0,0,1-8.972,2.564Q67.988,41.084,65.03,37.616Zm235.564.584a11.654,11.654,0,0,1-2.205-7.52,13.587,13.587,0,0,1,1.018-5.466,7.6,7.6,0,0,1,7.351-4.826,7.475,7.475,0,0,1,6.125,2.7q2.206,2.7,2.205,7.52a11.673,11.673,0,0,1-2.243,7.559,8.193,8.193,0,0,1-12.251.038Zm1.715-13.816q-1.583,2.149-1.583,6.3a10.546,10.546,0,0,0,1.565,6.257,5.156,5.156,0,0,0,4.429,2.148,5.254,5.254,0,0,0,4.466-2.148q1.6-2.149,1.6-6.334a10.464,10.464,0,0,0-1.564-6.239,5.715,5.715,0,0,0-8.915.019Zm-17,15.343a7.887,7.887,0,0,1-2.922-3.488,13.089,13.089,0,0,1-1.036-5.446,13.526,13.526,0,0,1,1.036-5.485,8.319,8.319,0,0,1,2.922-3.637,7.58,7.58,0,0,1,4.372-1.282,8.94,8.94,0,0,1,3.016.471,8.283,8.283,0,0,1,2.563,1.527l-1.093,1.432a7.052,7.052,0,0,0-2.016-1.169,6.873,6.873,0,0,0-2.356-.376,5.315,5.315,0,0,0-4.448,2.167q-1.66,2.168-1.659,6.315,0,4.108,1.64,6.182a5.348,5.348,0,0,0,4.428,2.073,6.623,6.623,0,0,0,2.394-.414,8.953,8.953,0,0,0,2.168-1.245l1.055,1.471a8.5,8.5,0,0,1-5.654,2.111A8.006,8.006,0,0,1,285.308,39.728Zm-11.2.678a1.745,1.745,0,0,1-.528-1.281,1.685,1.685,0,0,1,.528-1.264,1.781,1.781,0,0,1,1.281-.509,1.762,1.762,0,0,1,1.3.509,1.714,1.714,0,0,1,.509,1.264,1.812,1.812,0,0,1-3.091,1.281Zm69.549.113v-13.8a5.509,5.509,0,0,0-.885-3.45,2.981,2.981,0,0,0-2.47-1.112,4.642,4.642,0,0,0-2.978,1.056,12.19,12.19,0,0,0-2.564,3.016V40.519h-2.187v-13.8a5.5,5.5,0,0,0-.885-3.45,2.981,2.981,0,0,0-2.47-1.112,4.693,4.693,0,0,0-3.015,1.056,11.59,11.59,0,0,0-2.525,3.016V40.519H321.5V20.8h1.885l.188,3.355a8.995,8.995,0,0,1,2.677-2.771,6.122,6.122,0,0,1,3.393-1,4.876,4.876,0,0,1,3.167,1.037,5.155,5.155,0,0,1,1.734,2.884,9.431,9.431,0,0,1,2.733-2.884,6.115,6.115,0,0,1,3.449-1.037,4.664,4.664,0,0,1,3.751,1.621,6.6,6.6,0,0,1,1.375,4.411v14.1Zm-138.194,0V20.8h2.186V40.519Zm-22.127,0V38.634l13.834-21.977h-12.4V14.7h14.891v1.847L185.94,38.521h13.5l-.3,2ZM20.886,34.395a2.591,2.591,0,0,1-.57-3.717,3.865,3.865,0,0,1,.328-.362Q31.681,19.275,42.721,8.238a2.585,2.585,0,0,1,4.009.176,2.386,2.386,0,0,1,.508,1.39,2.747,2.747,0,0,1-.857,2.091q-3.829,3.815-7.645,7.641Q31.505,26.765,24.275,34a2.768,2.768,0,0,1-1.95.86A2.519,2.519,0,0,1,20.886,34.395ZM205.354,14.847a1.639,1.639,0,0,1,0-2.262,1.581,1.581,0,0,1,1.168-.452,1.633,1.633,0,0,1,1.206.452,1.639,1.639,0,0,1,0,2.262,1.629,1.629,0,0,1-1.206.453A1.578,1.578,0,0,1,205.354,14.847Z"/></svg>