<svg xmlns="http://www.w3.org/2000/svg" width="101.639" height="101.639" viewBox="0 0 101.639 101.639">
  <g id="Group_9701" data-name="Group 9701" transform="translate(-247 -1861)">
    <g id="Group_9700" data-name="Group 9700">
      <g id="Group_9699" data-name="Group 9699">
        <path id="Path_26800" data-name="Path 26800" d="M50.819,0A50.819,50.819,0,1,1,0,50.819,50.819,50.819,0,0,1,50.819,0Z" transform="translate(247 1861)" fill="#ffcb57"/>
        <rect id="Rectangle_3455" data-name="Rectangle 3455" width="62" height="62" transform="translate(267 1881)" fill="none"/>
      </g>
    </g>
    <g id="Price" transform="translate(65 415.26)">
      <g id="_10_Phone" data-name="10 Phone" transform="translate(216.193 1470.749)">
        <path id="Path_69" data-name="Path 69" d="M1150.627,2674.671h-21.374a6.411,6.411,0,0,0-6.412,6.412v38.473a6.412,6.412,0,0,0,6.412,6.412h21.374a6.412,6.412,0,0,0,6.412-6.412v-38.473A6.412,6.412,0,0,0,1150.627,2674.671Zm1.069,44.885a1.072,1.072,0,0,1-1.069,1.068h-21.374a1.072,1.072,0,0,1-1.069-1.068v-38.473a1.072,1.072,0,0,1,1.069-1.069h3.206a1.069,1.069,0,0,1,1.069,1.069v1.069a2.137,2.137,0,0,0,2.138,2.137h8.549a2.138,2.138,0,0,0,2.138-2.137v-1.069a1.069,1.069,0,0,1,1.069-1.069h3.206a1.072,1.072,0,0,1,1.069,1.069Z" transform="translate(-1122.841 -2674.671)" fill="#151515"/>
      </g>
      <path id="Path_26840" data-name="Path 26840" d="M11.278-11.963H7.713A3.048,3.048,0,0,1,9.382-9.906h1.9v1.417H9.519A4.237,4.237,0,0,1,8.6-5.861,5.1,5.1,0,0,1,6.113-4.353l4.251,6.262H7.782L4.034-3.964H1.2V-5.633H3.76a4.033,4.033,0,0,0,2.5-.663A2.832,2.832,0,0,0,7.21-8.489H1.2V-9.906H7.073a2.231,2.231,0,0,0-1.143-1.44A5.272,5.272,0,0,0,3.508-11.8H1.2V-13.38H11.278Z" transform="translate(227.371 1504.786)" fill="#151515"/>
    </g>
  </g>
</svg>
