<svg xmlns="http://www.w3.org/2000/svg" width="66.979" height="78.02" viewBox="0 0 66.979 78.02"><defs><style>.a{fill:#151515;}</style></defs><g transform="translate(742.366 -690.52)"><path class="a" d="M-696.125,842.488c-6,0-11.039,1.812-14.726,5.263a1.746,1.746,0,0,0,.561.462c3.547-3.282,8.392-5,14.165-5,7.263,0,12.975,2.687,16.594,7.785a2.122,2.122,0,0,1,.865-.02C-682.408,845.419-688.429,842.488-696.125,842.488Z" transform="translate(-17.856 -86.106)"/><path class="a" d="M-691.532,848.99a19.953,19.953,0,0,0-11.463,3.25,2.257,2.257,0,0,1,.6.469,19.345,19.345,0,0,1,10.864-3c6.312,0,11.352,2.266,14.7,6.574a1.846,1.846,0,0,0,.174-.268l.149-.281c.022-.041.046-.08.071-.118C-679.923,851.273-685.092,848.99-691.532,848.99Z" transform="translate(-22.308 -89.79)"/><path class="a" d="M-689.285,855.5a17.971,17.971,0,0,0-10,2.71,1.723,1.723,0,0,0,.717.4,17.447,17.447,0,0,1,9.279-2.388,16.73,16.73,0,0,1,11.115,3.728,2.04,2.04,0,0,1,.867.279l.272.166a1.8,1.8,0,0,0,.618.232C-679.569,857.257-683.952,855.5-689.285,855.5Z" transform="translate(-24.412 -93.477)"/><path class="a" d="M-672.128,757.917l-.655-1.765v-8.31a.358.358,0,0,0,.26-.345.358.358,0,0,0-.26-.345v-5.724a.358.358,0,0,0,.26-.345.358.358,0,0,0-.26-.344V728.317a1.134,1.134,0,0,0,.087-.434,1.154,1.154,0,0,0-.792-1.095v-1.179a.36.36,0,0,0-.361-.36.36.36,0,0,0-.361.36v1.18a1.106,1.106,0,0,0-.244.115,3.828,3.828,0,0,0-3.362-2.944v-1.068h.176a.361.361,0,0,0,.361-.361.36.36,0,0,0-.361-.361h-.176v-1.329a.36.36,0,0,0-.36-.361.361.361,0,0,0-.36.361v1.329h-.175a.36.36,0,0,0-.361.361.361.361,0,0,0,.361.361h.175v1.068A3.828,3.828,0,0,0-681.9,726.9a1.1,1.1,0,0,0-.245-.116v-1.179a.359.359,0,0,0-.36-.36.36.36,0,0,0-.36.36v1.179a1.154,1.154,0,0,0-.794,1.095,1.14,1.14,0,0,0,.086.434v5.444h-1.283v-3.984a.365.365,0,0,0-.105-.255l-1.157-1.156a.338.338,0,0,0-.034-.076V710.627a1.7,1.7,0,0,0-1.342-1.663v-2.237a.36.36,0,0,0-.36-.361.36.36,0,0,0-.36.361v2.237a1.69,1.69,0,0,0-.615.27v-3.579a.361.361,0,0,0-.1-.324l-1-1a4.886,4.886,0,0,0,.417-1.968,6.52,6.52,0,0,0-6.152-6.5v-2.838h.141a.362.362,0,0,0,.361-.361.361.361,0,0,0-.361-.361h-.141v-1.425a.36.36,0,0,0-.36-.359h-.008a.36.36,0,0,0-.361.359V692.3h-.142a.36.36,0,0,0-.36.361.361.361,0,0,0,.36.361h.142v2.838a6.517,6.517,0,0,0-6.153,6.49,4.918,4.918,0,0,0,.418,1.98l-.99.99,0,0,0,0,0,0h0a.372.372,0,0,0-.1.307v3.6a1.691,1.691,0,0,0-.614-.27v-2.237a.36.36,0,0,0-.361-.361.359.359,0,0,0-.359.361v2.237a1.7,1.7,0,0,0-1.342,1.663V728.29a.341.341,0,0,0-.034.076l-1.158,1.156a.366.366,0,0,0-.1.255v3.984h-1.284v-5.444a1.149,1.149,0,0,0,.086-.434,1.154,1.154,0,0,0-.793-1.095v-1.179a.359.359,0,0,0-.359-.36.36.36,0,0,0-.361.36v1.18a1.083,1.083,0,0,0-.245.115,3.828,3.828,0,0,0-3.361-2.944v-1.068h.175a.361.361,0,0,0,.36-.361.36.36,0,0,0-.36-.361h-.175v-1.329a.361.361,0,0,0-.36-.361.361.361,0,0,0-.361.361v1.329h-.175a.36.36,0,0,0-.36.361.361.361,0,0,0,.36.361h.175v1.068a3.828,3.828,0,0,0-3.362,2.944,1.09,1.09,0,0,0-.245-.115v-1.18a.36.36,0,0,0-.36-.36.361.361,0,0,0-.361.36v1.179a1.153,1.153,0,0,0-.792,1.095,1.151,1.151,0,0,0,.086.434V740.74a.359.359,0,0,0-.26.344.359.359,0,0,0,.26.345v5.724a.36.36,0,0,0-.26.345.36.36,0,0,0,.26.345v8.31l-.762,2.055a1.742,1.742,0,0,0,.646.331l.477-1.286.5,1.356a2.088,2.088,0,0,1,.869.28.026.026,0,0,1,0-.008s0-.01,0-.016l-1.007-2.713v-8.295h2.144v10.449c-.3.243-.59.5-.875.758a2.233,2.233,0,0,1,.49.53,19,19,0,0,1,5.155-3.341.364.364,0,0,0,.13-.055,25.122,25.122,0,0,1,10.032-1.914c8.233,0,14.619,3.125,18.48,9.035a.36.36,0,0,0,.349.276h.027a.362.362,0,0,0,.195-.057.36.36,0,0,0,.138-.44v-4.6a2.478,2.478,0,0,0-1.565-2.181h0a.452.452,0,0,0-.05-.022l-.016-.007-.028-.006a.378.378,0,0,0-.1-.008h-.007a.383.383,0,0,0-.069.013l-.007,0a.327.327,0,0,0-.059.025h0a2.478,2.478,0,0,0-1.565,2.181v.476q-.24-.216-.486-.423v-2.537h4.445v6.464a.36.36,0,0,0,.361.361.36.36,0,0,0,.361-.361v-6.464h.366v6.464a.36.36,0,0,0,.36.361.25.25,0,0,0,.033,0,2.322,2.322,0,0,1,.313-.258.373.373,0,0,0,.016-.1v-6.464h.519V762.3a2.113,2.113,0,0,1,.721-.12v-6.171h1.138V762.3a1.748,1.748,0,0,0,.721-.222v-6.062h.519v5.606a1.788,1.788,0,0,0,.35-.857l.04-.316a2.034,2.034,0,0,1,.33-.864v-3.57h2.144v.138l-.94,2.534a2,2,0,0,1,.579-.086l.22,0,.5-1.35.428,1.153A1.752,1.752,0,0,0-672.128,757.917Zm-12.9.581a1.634,1.634,0,0,1,1.016-1.451A1.633,1.633,0,0,1-683,758.5v3.537a19.993,19.993,0,0,0-2.033-2.375Zm6.855-33.834a3.1,3.1,0,0,1,3.1,3.1,3.067,3.067,0,0,1-.236,1.187h-5.73a3.073,3.073,0,0,1-.234-1.187A3.1,3.1,0,0,1-678.176,724.664Zm-3.259,4.965a.352.352,0,0,0,.163.042h6.192a.355.355,0,0,0,.163-.042v.926h-6.519Zm5.786,1.646v.934h-.722v-.934Zm-1.444,0v.934h-.723v-.934Zm-1.444,0v.934h-.724v-.934Zm-1.444,0v.934h-.723v-.934Zm-1.445,0v.934h-1.425v-.934Zm-1.079-3.826a.434.434,0,0,1,.433.433.418.418,0,0,1-.047.193v0a.377.377,0,0,0-.023.063l0,0a.613.613,0,0,0-.01.062v.01c0,.007,0,.012,0,.019v2.318h-.694v-2.318a.358.358,0,0,0-.043-.168.419.419,0,0,1-.043-.186A.434.434,0,0,1-682.5,727.45Zm-2.35,7.031h1.283v5.034h-1.283Zm1.283,5.754v.488h-2.668v-.488Zm-.314,1.828h0a.549.549,0,0,0-.054-.023l-.012,0a.361.361,0,0,0-.181-.006l-.025.006-.02.008a.361.361,0,0,0-.046.019h0a2.4,2.4,0,0,0-.675.5,2.4,2.4,0,0,0-.674-.5h0a.548.548,0,0,0-.054-.023l-.012,0a.351.351,0,0,0-.236.012.255.255,0,0,0-.036.015h0c-.082.046-.2.107-.316.19v-.81h2.668v.808C-683.69,742.171-683.8,742.11-683.884,742.064Zm.314,1.464v3.608h-.974v-3.608a.83.83,0,0,1,.487-.731A.83.83,0,0,1-683.57,743.528Zm-1.693,0v3.608h-.975v-.527c0-.006,0-.01,0-.016v-3.065a.831.831,0,0,1,.486-.731A.831.831,0,0,1-685.263,743.528Zm-.692-13.982h-2.865v-.707h2.157Zm-2.872-19.033a.983.983,0,0,1,.975-.867.982.982,0,0,1,.981.982v.656h-1.956Zm0,1.491h1.956v.377h-1.956Zm0,1.1h1.956v15.016h-1.949v-13.29a.383.383,0,0,0-.007-.063Zm-1.291,32.665v-2.086a1.233,1.233,0,0,1,.749-1.087,1.233,1.233,0,0,1,.749,1.087v2.086Zm1.5.721v.648h-1.5v-.648Zm-.577-4.624h0a.326.326,0,0,0-.057-.023l-.009,0a.355.355,0,0,0-.176-.006.132.132,0,0,0-.031.006.1.1,0,0,0-.016.007.382.382,0,0,0-.05.02h0a2.81,2.81,0,0,0-.938.731,2.819,2.819,0,0,0-.937-.731h0l-.042-.017a.189.189,0,0,0-.024-.01c-.007,0-.014,0-.021,0a.344.344,0,0,0-.084-.009.283.283,0,0,0-.076.009.117.117,0,0,0-.024,0,.176.176,0,0,0-.025.01.374.374,0,0,0-.042.017h0a2.818,2.818,0,0,0-.938.731,2.811,2.811,0,0,0-.937-.731h0a.364.364,0,0,0-.047-.019l-.019-.008a.262.262,0,0,0-.055-.012l-.018,0a.366.366,0,0,0-.12.01l-.013,0a.138.138,0,0,0-.023.009.39.39,0,0,0-.045.018h0a2.818,2.818,0,0,0-.938.731,2.824,2.824,0,0,0-.937-.731h0a.327.327,0,0,0-.048-.019l-.019-.008a.213.213,0,0,0-.04-.008.311.311,0,0,0-.063-.006.309.309,0,0,0-.064.006.213.213,0,0,0-.039.008l-.019.008a.394.394,0,0,0-.047.019h0a2.831,2.831,0,0,0-.937.731,2.809,2.809,0,0,0-.937-.731h0c-.016-.008-.032-.013-.048-.02s-.012-.005-.019-.007a.2.2,0,0,0-.04-.008.38.38,0,0,0-.063-.006.365.365,0,0,0-.068.006.282.282,0,0,0-.035.007.145.145,0,0,0-.022.009.258.258,0,0,0-.045.018h0a2.819,2.819,0,0,0-.938.731,2.814,2.814,0,0,0-.937-.731h0a.374.374,0,0,0-.042-.017.167.167,0,0,0-.026-.01l-.01,0a.35.35,0,0,0-.1-.011.409.409,0,0,0-.065.008.164.164,0,0,0-.028.006.149.149,0,0,0-.025.01.305.305,0,0,0-.041.017h0a2.811,2.811,0,0,0-.937.731,2.818,2.818,0,0,0-.938-.731h0l-.042-.018c-.008,0-.015-.007-.024-.009l-.01,0a.351.351,0,0,0-.1-.011.4.4,0,0,0-.065.008.148.148,0,0,0-.029.006c-.008,0-.017.007-.024.009a.444.444,0,0,0-.042.018h0a3.727,3.727,0,0,0-.577.367v-.787h14.806v.787A3.769,3.769,0,0,0-689.2,741.864Zm-3.138,3.9v-2.086a1.234,1.234,0,0,1,.748-1.087,1.232,1.232,0,0,1,.749,1.087v2.086Zm1.5.721v.648h-1.5v-.648Zm-3.716-.721v-2.086a1.232,1.232,0,0,1,.749-1.087,1.233,1.233,0,0,1,.749,1.087v2.086Zm1.5.721v.648h-1.5v-.648Zm-5.933-.721v-2.086a1.232,1.232,0,0,1,.748-1.087,1.233,1.233,0,0,1,.749,1.087v2.086Zm1.5.721v.648h-1.5v-.648Zm-3.716-.721v-2.086a1.232,1.232,0,0,1,.749-1.087,1.233,1.233,0,0,1,.748,1.087v2.086Zm1.5.721v.648h-1.5v-.648Zm-3.715-.721v-2.088a1.235,1.235,0,0,1,.749-1.085,1.233,1.233,0,0,1,.748,1.087v2.086Zm1.5.721v.648h-1.5v-.648Zm5.905-5.764h-7.4v-1.2h14.806v1.2Zm0-2.674h6.208v.754h-12.416v-.754Zm-2.1-.72v-1.951a.593.593,0,0,1,.331-.519.59.59,0,0,1,.33.519v1.951Zm1.6,0v-2.446a.855.855,0,0,1,.5-.753.856.856,0,0,1,.5.753v2.446h-1.006Zm1.944,0v-1.951a.593.593,0,0,1,.331-.519.592.592,0,0,1,.331.519v1.951Zm5.488,1.474v-.837a.637.637,0,0,0-.636-.637H-693.2v-1.951a1.419,1.419,0,0,0-.881-1.253h0a.353.353,0,0,0-.046-.02l-.02-.008a.262.262,0,0,0-.042-.008.269.269,0,0,0-.056-.006.406.406,0,0,0-.1.012l-.01,0-.024.009a.253.253,0,0,0-.042.018h0a2.252,2.252,0,0,0-.446.3,1.878,1.878,0,0,0-.982-1.027h0a.47.47,0,0,0-.057-.024l-.009,0a.35.35,0,0,0-.173-.007.261.261,0,0,0-.033.007.06.06,0,0,0-.018.007.375.375,0,0,0-.049.02h0a1.878,1.878,0,0,0-.982,1.027,2.29,2.29,0,0,0-.446-.3h0a.344.344,0,0,0-.048-.02.071.071,0,0,0-.018-.007.272.272,0,0,0-.053-.01.255.255,0,0,0-.055,0,.226.226,0,0,0-.029,0,.364.364,0,0,0-.069.014l-.012,0a.4.4,0,0,0-.054.023h0a1.419,1.419,0,0,0-.879,1.253v1.951h-3.47a.637.637,0,0,0-.636.637v.837h-.474v-1.679l3.856-4.545h7.093l3.856,4.545V738.8Zm-9.174-26.816v3.593h-.557V705.054h5.6V715.58h-.556v-3.593c0-.013,0-.025,0-.037s0-.049,0-.073v-1.332a3.272,3.272,0,0,0-2.071-2.866.349.349,0,0,0-.176-.041.351.351,0,0,0-.176.041,3.271,3.271,0,0,0-2.069,2.866v1.332c0,.025,0,.049,0,.073A.277.277,0,0,0-698.268,711.987Zm-.557-7.652v-2.062h5.6v2.062h-5.6Zm2.8,11.967h1.013v1.024h-2.018V716.3Zm-.08-6.335a.08.08,0,0,1,.08-.079h.008a.08.08,0,0,1,.08.079.079.079,0,0,1-.08.079l0,0,0,0A.079.079,0,0,1-696.107,709.967Zm.444,14.875V723.8a.36.36,0,0,0-.36-.361.36.36,0,0,0-.36.361v1.046l-.66-1.545V719.8H-695V723.3Zm.66.288v3.361l-.66-.779v-1.306a.362.362,0,0,0,.2-.188Zm-1,3.295h-.037l.019-.023Zm-.379-2.018v1.306l-.66.778v-3.36l.465,1.089A.358.358,0,0,0-696.383,726.406Zm-.649-7.324v-1.038h2.018v1.038h-2.018Zm.645-3.5h-1.161v-3.668a.582.582,0,0,1,.579-.546.583.583,0,0,1,.582.576Zm.364,13.564a1.358,1.358,0,0,1,1.357,1.357,1.359,1.359,0,0,1-1.357,1.359,1.359,1.359,0,0,1-1.358-1.359A1.359,1.359,0,0,1-696.023,729.144Zm.364-13.564v-3.637a.583.583,0,0,1,.582-.576.583.583,0,0,1,.579.546v3.668Zm.582-4.933a1.284,1.284,0,0,0-.582.139v-.106a.8.8,0,0,0,.44-.713.8.8,0,0,0-.8-.8h-.008a.8.8,0,0,0-.8.8.8.8,0,0,0,.44.713v.106a1.285,1.285,0,0,0-.582-.139,1.29,1.29,0,0,0-.579.137v-.24a2.445,2.445,0,0,1,1.526-2.14,2.446,2.446,0,0,1,1.526,2.14v.24A1.288,1.288,0,0,0-695.077,710.647Zm-3.881,21.213.883-1.041a2.062,2.062,0,0,0,.482,1.041Zm4.5,0a2.065,2.065,0,0,0,.482-1.041l.883,1.041Zm.1-2.609h4.817v.762h-4.17Zm.075-.721V719.8h4.741v8.727Zm-.012-9.447v-1.038h4.753v1.038Zm0-1.757V716.3h4.753v1.024Zm4.747-6.628v.876a.372.372,0,0,0-.007.07.383.383,0,0,0,.007.07v.958a.384.384,0,0,0-.007.07.38.38,0,0,0,.007.07v2.769H-692.5V705.563l2.953,2.954v1.969c0,.046-.007.093-.007.14A.379.379,0,0,0-689.547,710.7Zm0-4.962V707.5l-2.953-2.952v-1.764Zm-12.272-3.369a5.8,5.8,0,0,1,5.793-5.792h.008a5.8,5.8,0,0,1,5.792,5.8,4.288,4.288,0,0,1-.252,1.408l-2.127-2.128a.438.438,0,0,0-.077-.057l-.02-.01a.357.357,0,0,0-.087-.03h-.005a.425.425,0,0,0-.066-.006h-6.325a.424.424,0,0,0-.067.006h0a.357.357,0,0,0-.088.03l-.019.01a.418.418,0,0,0-.077.057l-2.127,2.127A4.3,4.3,0,0,1-701.82,702.366Zm-.679,3.369,2.953-2.953v1.764L-702.5,707.5Zm0,7.077a.374.374,0,0,0,.007-.07.379.379,0,0,0-.007-.07v-.958a.377.377,0,0,0,.007-.07.368.368,0,0,0-.007-.07V710.7a.374.374,0,0,0,.007-.07c0-.047,0-.094-.007-.14v-1.969l2.953-2.954V715.58H-702.5Zm-.007,3.49h4.753v1.024h-4.753Zm0,1.744h4.753v1.038h-4.753Zm0,1.757h4.741v3.569h0v5.157h-4.741Zm0,9.448h4.817l-.647.762h-4.17Zm-2.671-18.624a.982.982,0,0,1,.981-.982.982.982,0,0,1,.975.867v.77h-1.956Zm0,1.377h1.956v.377h-1.956Zm0,1.1h1.956v1.663a.389.389,0,0,0-.006.063v13.29h-1.95Zm-.208,15.737h2.158v.707h-2.866Zm-3.092,5.643h1.284v5.034h-1.284Zm0,12.112v-3.065a.83.83,0,0,1,.487-.731.831.831,0,0,1,.487.731v3.608h-.973Zm-1.066-19.143a.434.434,0,0,1,.432.433.414.414,0,0,1-.043.186.347.347,0,0,0-.043.168v2.318h-.693v-2.318c0-.007,0-.013,0-.021v0a.312.312,0,0,0-.012-.067h0a.372.372,0,0,0-.025-.067h0a.422.422,0,0,1-.045-.193A.433.433,0,0,1-709.542,727.45Zm.346,3.826v.934h-1.425v-.934Zm-7.561,3.671a.361.361,0,0,0,.361-.361V732.93h.723v1.656a.36.36,0,0,0,.359.361.361.361,0,0,0,.361-.361V732.93h.722v1.656a.361.361,0,0,0,.361.361.361.361,0,0,0,.36-.361V732.93h.723v1.656a.36.36,0,0,0,.36.361.36.36,0,0,0,.36-.361V732.93h.724v1.656a.36.36,0,0,0,.36.361.361.361,0,0,0,.361-.361V732.93h1.425v7.793h-9.347V732.93h1.425v1.656A.36.36,0,0,0-716.758,734.947Zm.361-2.737v-.934h.723v.934Zm1.444,0v-.934h.722v.934Zm1.444,0v-.934h.723v.934Zm1.443,0v-.934h.724v.934Zm-1.8-7.546a3.1,3.1,0,0,1,3.1,3.1,3.074,3.074,0,0,1-.235,1.187h-5.73a3.066,3.066,0,0,1-.235-1.187A3.1,3.1,0,0,1-713.87,724.664Zm-3.26,4.965a.352.352,0,0,0,.163.042h6.192a.355.355,0,0,0,.163-.042v.926h-6.519Zm.011,1.646v.934h-1.425v-.934Zm-1.469-3.207a.432.432,0,0,1-.043-.186.434.434,0,0,1,.432-.433.434.434,0,0,1,.432.433.422.422,0,0,1-.045.193h0a.365.365,0,0,0-.026.067h0a.3.3,0,0,0-.011.067v0c0,.009,0,.016,0,.023v2.318h-.693v-2.318A.354.354,0,0,0-718.587,728.069Zm3.427,29.319q-.262.178-.519.367V754.14h.519Zm0-3.969h-.519v-1.361h.519Zm0-2.082h-.519v-3.478h.519Zm0-4.2h-.519v-2.375a.485.485,0,0,1,.259-.421.483.483,0,0,1,.26.421Zm1.859,4.559h0v2.081h0v2.482q-.583.311-1.139.655v-9.06h1.139Zm1.239,3.958c-.174.079-.348.159-.519.241V754.14h.519Zm0-2.235h-.519v-1.361h.519Zm0-2.082h-.519v-3.478h.519Zm0-4.2h-.519v-2.375a.483.483,0,0,1,.26-.421.484.484,0,0,1,.259.421Zm-.088-3.53h0a.381.381,0,0,0-.063-.026h0a.362.362,0,0,0-.228.008.318.318,0,0,0-.045.019h0a1.305,1.305,0,0,0-.808,1.155v2.375h-1.139v-2.375a1.3,1.3,0,0,0-.808-1.155h0a.319.319,0,0,0-.052-.022l-.015-.006a.344.344,0,0,0-.055-.011.375.375,0,0,0-.062,0,.1.1,0,0,0-.02,0,.4.4,0,0,0-.069.013l-.008,0a.279.279,0,0,0-.058.024h0a1.3,1.3,0,0,0-.808,1.155v2.375h-2.144v-5.692h9.347v5.692h-2.144v-2.375A1.3,1.3,0,0,0-712.15,743.606Zm6.342,10.264c-.169.025-.337.052-.5.079a.357.357,0,0,0,.044-.17V751.7a.36.36,0,0,0-.36-.361h-.741a.361.361,0,0,0-.361.361v2.082a.361.361,0,0,0,.361.361h.026a23.689,23.689,0,0,0-2.912.8v-3.693a2.225,2.225,0,0,1,2.221-2.222,2.226,2.226,0,0,1,2.223,2.222c0,.005,0,.011,0,.016Zm0-4.545a2.934,2.934,0,0,0-2.224-1.022,2.946,2.946,0,0,0-2.942,2.942V755.2c-.122.046-.246.093-.366.142v-7.487h5.533Zm0-2.188h-.975v-3.608a.831.831,0,0,1,.487-.731.83.83,0,0,1,.487.731v3.065c0,.006,0,.012,0,.016Zm0-4.883c-.12-.083-.234-.144-.316-.19h0c-.013-.006-.026-.011-.039-.017a.264.264,0,0,0-.027-.01h-.006a.351.351,0,0,0-.2,0l-.015.005a.471.471,0,0,0-.051.022h0a2.4,2.4,0,0,0-.675.5,2.394,2.394,0,0,0-.675-.5h0c-.014-.007-.03-.013-.044-.019l-.023-.009-.02,0a.383.383,0,0,0-.117-.009h0a.291.291,0,0,0-.067.013l-.015.005a.409.409,0,0,0-.05.022h0c-.082.046-.195.107-.314.189v-.808h2.668Zm0-1.53h-2.668v-.488h2.668Zm0-7.549v6.341h-.664v-5.329a.387.387,0,0,0,.006-.065.4.4,0,0,0-.006-.065v-3.79h3.247v.107a.361.361,0,0,0,.36.36h3.919l-4.479,5.278v-2.837a1.191,1.191,0,0,0-.829-1.121v-.761a.36.36,0,0,0-.361-.359.359.359,0,0,0-.36.359v.761A1.19,1.19,0,0,0-705.806,733.174Zm5.4,17.876a.36.36,0,0,0-.361.36v.93h-.873v-.93a.36.36,0,0,0-.36-.36.359.359,0,0,0-.36.36v.93h-1.066v-1.1a2.226,2.226,0,0,1,2.222-2.222,2.225,2.225,0,0,1,2.222,2.222v1.1h-1.065v-.93A.36.36,0,0,0-700.407,751.051Zm-3.74-3.193v4.484h-.94v-4.484Zm-.94-.721v-.648h.94v.648Zm.94-3.455v2.086h-.94v-4.323h.94v2.237Zm-.94-2.958v-.783a.357.357,0,0,0,.006-.065.368.368,0,0,0-.006-.066v-.287h.94v1.2Zm0-1.92v-1.356h.94V738.8Zm0-2.076v-2.246h.94v2.246Zm0-2.966v-.573a.47.47,0,0,1,.47-.471.471.471,0,0,1,.47.471v.573Zm7.053,19.482v.509a30.637,30.637,0,0,0-3.433-.189,30.233,30.233,0,0,0-3.62.211v-.714h7.1A.358.358,0,0,0-698.034,753.244Zm.478-.9h-.706v-1.1A2.946,2.946,0,0,0-701.2,748.3a2.936,2.936,0,0,0-2.222,1.019v-1.465h6.855l-1.133.88a.363.363,0,0,0-.138.316Zm1.172-5.545v.34h-.389v-.648h.566A.357.357,0,0,0-696.383,746.8Zm-.389-1.029v-2.086a1.234,1.234,0,0,1,.749-1.087,1.234,1.234,0,0,1,.749,1.087v2.086h-1.5Zm.931.721h.567v.648h-.389v-.34A.357.357,0,0,0-695.841,746.488Zm7.221,1.37v1.465a2.937,2.937,0,0,0-2.222-1.019,2.946,2.946,0,0,0-2.942,2.942v1.1h-.706l.286-3.288a.361.361,0,0,0-.138-.316l-1.134-.88Zm-1.426,3.193a.359.359,0,0,0-.36.36v.93h-.873v-.93a.359.359,0,0,0-.36-.36.36.36,0,0,0-.361.36v.93h-1.065v-1.1a2.225,2.225,0,0,1,2.222-2.222,2.226,2.226,0,0,1,2.222,2.222v1.1h-1.066v-.93A.36.36,0,0,0-690.046,751.051Zm3.088,6.924a19.752,19.752,0,0,0-3.151-1.961h3.151Zm0-2.681h-4.764a22.78,22.78,0,0,0-3.223-1.011h.573a.36.36,0,0,0,.361-.36v-.679a.355.355,0,0,0-.051-.183h7.105Zm0-2.953h-.942v-4.484h.942Zm0-5.205h-.942v-.648h.942Zm0-1.37h-.942v-4.323h.942Zm0-5.957a.3.3,0,0,0-.007.066.289.289,0,0,0,.007.065v.783h-.942v-1.2h.942Zm0-1.007h-.942v-1.356h.942Zm0-2.076h-.942v-2.246h.942Zm0-2.966h-.942v-.573a.471.471,0,0,1,.471-.471.471.471,0,0,1,.471.471Zm.719-.587a1.191,1.191,0,0,0-.83-1.121v-.761a.359.359,0,0,0-.36-.359.36.36,0,0,0-.361.359v.761a1.192,1.192,0,0,0-.83,1.121v2.837l-4.48-5.278h3.92a.361.361,0,0,0,.36-.36v-.107h3.247v3.79a.4.4,0,0,0-.007.065.386.386,0,0,0,.007.065v5.329h-.664v-6.334A.014.014,0,0,0-686.239,733.174Zm4.447,22.12h-4.445v-4.033c0-.006,0-.01,0-.016a2.225,2.225,0,0,1,2.222-2.222,2.225,2.225,0,0,1,2.222,2.222Zm1.087,0h-.366v-4.049a2.946,2.946,0,0,0-2.943-2.942,2.933,2.933,0,0,0-2.223,1.022v-1.467h5.533Zm1.24,0h-.519V754.14h.519Zm0-1.876h-.519v-1.361h.519Zm0-2.082h-.519v-3.478h.519Zm0-4.2h-.519v-2.375a.485.485,0,0,1,.259-.421.484.484,0,0,1,.26.421Zm1.859,8.158h-1.138v-7.437h1.138Zm1.24,0h-.519V754.14h.519Zm0-1.876h-.519v-1.361h.519Zm0-2.082h-.519v-3.478h.519Zm0-4.2h-.519v-2.375a.483.483,0,0,1,.259-.421.484.484,0,0,1,.26.421Zm2.864,8.158h-2.144v-7.437h2.144Zm0-8.158h-2.144v-2.375a1.305,1.305,0,0,0-.809-1.155h0a.385.385,0,0,0-.046-.019l-.021-.008-.012,0a.305.305,0,0,0-.108-.011.074.074,0,0,0-.017,0,.375.375,0,0,0-.068.013.12.12,0,0,0-.017.007.3.3,0,0,0-.049.021h0a1.3,1.3,0,0,0-.809,1.155v2.375h-1.138v-2.375a1.3,1.3,0,0,0-.809-1.155h0a.358.358,0,0,0-.046-.019l-.019-.008-.019,0a.3.3,0,0,0-.1-.01.086.086,0,0,0-.019,0,.371.371,0,0,0-.068.013c-.006,0-.01,0-.015.006a.293.293,0,0,0-.052.022h0a1.3,1.3,0,0,0-.809,1.155v2.375h-2.144v-5.692h9.347Zm0-6.413h-9.347V732.93h1.425v1.656a.36.36,0,0,0,.361.361.361.361,0,0,0,.361-.361V732.93h.723v1.656a.36.36,0,0,0,.36.361.36.36,0,0,0,.36-.361V732.93h.724v1.656a.361.361,0,0,0,.36.361.36.36,0,0,0,.36-.361V732.93h.723v1.656a.36.36,0,0,0,.36.361.361.361,0,0,0,.361-.361V732.93h.722v1.656a.36.36,0,0,0,.361.361.36.36,0,0,0,.36-.361V732.93h1.425Zm0-8.514h-1.425v-.934h1.425Zm.043-4.141a.347.347,0,0,0-.043.168v2.318h-.693v-2.318c0-.007,0-.014,0-.023v0a.362.362,0,0,0-.038-.137.422.422,0,0,1-.045-.193.434.434,0,0,1,.432-.433.434.434,0,0,1,.432.433A.432.432,0,0,1-673.459,728.069Z" transform="translate(-12.658)"/><path class="a" d="M-676.133,753.368a2.118,2.118,0,0,0,.743-1.517,2.109,2.109,0,0,0-.605-1.576l-.221-.229a1.828,1.828,0,0,1-.1-2.326l.2-.247a2.113,2.113,0,0,0,.461-1.624,2.111,2.111,0,0,0-.876-1.444l-.259-.185a1.828,1.828,0,0,1-.518-2.27l.152-.279a2.112,2.112,0,0,0,.163-1.681,2.111,2.111,0,0,0-1.12-1.264l-.286-.136a1.826,1.826,0,0,1-.915-2.141l.1-.3a2.112,2.112,0,0,0-.14-1.683,2.11,2.11,0,0,0-1.328-1.043l-.307-.083a1.827,1.827,0,0,1-1.283-1.943l.045-.315a2.112,2.112,0,0,0-.437-1.631,2.113,2.113,0,0,0-1.493-.789l-.317-.026a1.827,1.827,0,0,1-1.609-1.683l-.012-.317a2.118,2.118,0,0,0-2.119-2.047c-.071,0-.143,0-.213.01l-.316.03a1.82,1.82,0,0,1-1.884-1.369l-.068-.31a2.109,2.109,0,0,0-2.064-1.671,2.223,2.223,0,0,0-.594.083l-.306.086a1.61,1.61,0,0,1-.437.06,1.827,1.827,0,0,1-1.66-1.07l-.123-.294a2.12,2.12,0,0,0-1.951-1.309,2.142,2.142,0,0,0-.948.222l-.286.14a1.682,1.682,0,0,1-.734.165,1.806,1.806,0,0,1-1.511-.784l-.173-.266a2.14,2.14,0,0,0-1.02-.831,5.033,5.033,0,0,1-.084.755,1.437,1.437,0,0,1,.5.469l.174.267a2.533,2.533,0,0,0,2.114,1.111,2.392,2.392,0,0,0,1.051-.238l.286-.14a1.427,1.427,0,0,1,.631-.148,1.4,1.4,0,0,1,1.287.868l.123.293a2.566,2.566,0,0,0,2.324,1.512,2.343,2.343,0,0,0,.635-.087l.305-.086a1.442,1.442,0,0,1,.4-.057A1.394,1.394,0,0,1-691.4,723.1l.068.311a2.538,2.538,0,0,0,2.438,1.941,1.955,1.955,0,0,0,.219-.011l.316-.03a1.386,1.386,0,0,1,1.542,1.348l.013.319a2.544,2.544,0,0,0,2.269,2.373l.317.026a1.4,1.4,0,0,1,.989.521,1.4,1.4,0,0,1,.288,1.08l-.046.314a2.547,2.547,0,0,0,1.809,2.742l.307.081a1.406,1.406,0,0,1,.88.69,1.4,1.4,0,0,1,.09,1.116l-.1.3a2.544,2.544,0,0,0,1.29,3.019l.287.136a1.393,1.393,0,0,1,.744.836,1.4,1.4,0,0,1-.111,1.112l-.153.279a2.543,2.543,0,0,0,.731,3.2l.258.185a1.4,1.4,0,0,1,.582.954,1.4,1.4,0,0,1-.307,1.076l-.2.247a2.542,2.542,0,0,0,.148,3.279l.221.23a1.4,1.4,0,0,1,.4,1.043,1.405,1.405,0,0,1-.495,1l-.241.208a2.544,2.544,0,0,0-.44,3.254l.176.264a1.394,1.394,0,0,1,.21,1.1,1.4,1.4,0,0,1-.666.9l-.273.161a2.544,2.544,0,0,0-1.015,3.123l.127.291a1.4,1.4,0,0,1,.01,1.119,1.4,1.4,0,0,1-.815.765l-.3.11a2.543,2.543,0,0,0-1.556,2.892l.073.309a1.4,1.4,0,0,1-.189,1.1,1.4,1.4,0,0,1-.938.608l-.314.055a2.545,2.545,0,0,0-2.047,2.567l.016.317a1.4,1.4,0,0,1-.38,1.048,1.4,1.4,0,0,1-1.035.433h0l-.332,0a2.549,2.549,0,0,0-2.458,2.161l-.041.315a1.387,1.387,0,0,1-1.383,1.23,1.51,1.51,0,0,1-.274-.026l-.312-.059a2.323,2.323,0,0,0-.425-.038,2.552,2.552,0,0,0-2.393,1.723l-.1.3a1.4,1.4,0,0,1-1.328.986,1.446,1.446,0,0,1-.517-.1l-.3-.114a2.341,2.341,0,0,0-.843-.153,2.537,2.537,0,0,0-2.232,1.308l-.148.28a1.4,1.4,0,0,1-1.236.755,1.428,1.428,0,0,1-.739-.21l-.272-.165a2.418,2.418,0,0,0-1.256-.342,2.518,2.518,0,0,0-1.975.929l-.2.25a1.4,1.4,0,0,1-1.1.544,1.419,1.419,0,0,1-.936-.361l-.238-.211a2.47,2.47,0,0,0-1.642-.6,2.472,2.472,0,0,0-1.642.6l-.237.211a1.42,1.42,0,0,1-.937.361,1.4,1.4,0,0,1-1.1-.544l-.2-.25a2.519,2.519,0,0,0-1.976-.929,2.423,2.423,0,0,0-1.255.342l-.272.165a1.428,1.428,0,0,1-.739.21,1.4,1.4,0,0,1-1.235-.755l-.149-.28a2.533,2.533,0,0,0-2.23-1.308,2.34,2.34,0,0,0-.844.153l-.3.114a1.448,1.448,0,0,1-.517.1,1.4,1.4,0,0,1-1.329-.986l-.1-.3a2.554,2.554,0,0,0-2.393-1.723,2.321,2.321,0,0,0-.425.038l-.313.059a1.5,1.5,0,0,1-.274.026,1.389,1.389,0,0,1-1.384-1.23l-.04-.315a2.553,2.553,0,0,0-2.473-2.161l-.328,0a1.4,1.4,0,0,1-1.025-.433,1.4,1.4,0,0,1-.381-1.048l.016-.317A2.546,2.546,0,0,0-735,769.08l-.312-.055a1.4,1.4,0,0,1-.94-.608,1.4,1.4,0,0,1-.19-1.1l.073-.309a2.544,2.544,0,0,0-1.556-2.892l-.3-.11a1.4,1.4,0,0,1-.815-.767,1.4,1.4,0,0,1,.01-1.118l.127-.291a2.545,2.545,0,0,0-1.015-3.123l-.274-.161a1.4,1.4,0,0,1-.666-.9,1.4,1.4,0,0,1,.21-1.1l.177-.264a2.543,2.543,0,0,0-.441-3.254l-.24-.208a1.4,1.4,0,0,1-.495-1,1.4,1.4,0,0,1,.4-1.044l.221-.228a2.543,2.543,0,0,0,.147-3.279l-.2-.247a1.4,1.4,0,0,1-.307-1.076,1.4,1.4,0,0,1,.582-.954l.258-.185a2.544,2.544,0,0,0,.731-3.2l-.153-.279a1.394,1.394,0,0,1-.11-1.112,1.394,1.394,0,0,1,.744-.836l.287-.136a2.545,2.545,0,0,0,1.29-3.019l-.1-.3a1.4,1.4,0,0,1,.09-1.114,1.406,1.406,0,0,1,.881-.69l.307-.081a2.546,2.546,0,0,0,1.808-2.742l-.045-.314a1.4,1.4,0,0,1,.287-1.08,1.4,1.4,0,0,1,.99-.521l.317-.026a2.542,2.542,0,0,0,2.268-2.373l.013-.319a1.389,1.389,0,0,1,1.542-1.348l.317.03a1.939,1.939,0,0,0,.219.011,2.538,2.538,0,0,0,2.438-1.941l.068-.311a1.394,1.394,0,0,1,1.361-1.106,1.439,1.439,0,0,1,.4.057l.306.086a2.332,2.332,0,0,0,.634.087,2.567,2.567,0,0,0,2.324-1.512l.124-.293a1.4,1.4,0,0,1,1.286-.868,1.428,1.428,0,0,1,.631.148l.286.14a2.393,2.393,0,0,0,1.051.238,2.533,2.533,0,0,0,2.115-1.112l.173-.266a1.4,1.4,0,0,1,.931-.616c-.017-.231-.026-.481-.025-.733a2.126,2.126,0,0,0-1.51.956l-.173.266a1.806,1.806,0,0,1-1.511.784,1.686,1.686,0,0,1-.734-.165l-.286-.14a2.139,2.139,0,0,0-.948-.222,2.12,2.12,0,0,0-1.951,1.309l-.123.294a1.828,1.828,0,0,1-1.66,1.07,1.616,1.616,0,0,1-.438-.06l-.306-.086a2.218,2.218,0,0,0-.593-.083,2.109,2.109,0,0,0-2.065,1.671l-.068.31A1.82,1.82,0,0,1-729,724.625l-.317-.03c-.071-.007-.143-.01-.213-.01a2.118,2.118,0,0,0-2.119,2.047l-.012.317a1.827,1.827,0,0,1-1.609,1.683l-.317.026a2.114,2.114,0,0,0-1.493.789,2.113,2.113,0,0,0-.437,1.631l.045.315a1.827,1.827,0,0,1-1.283,1.943l-.306.083a2.113,2.113,0,0,0-1.328,1.043,2.114,2.114,0,0,0-.139,1.683l.1.3a1.828,1.828,0,0,1-.915,2.141l-.287.136a2.115,2.115,0,0,0-1.121,1.264,2.112,2.112,0,0,0,.164,1.681l.153.279a1.828,1.828,0,0,1-.518,2.27l-.259.185a2.108,2.108,0,0,0-.876,1.444,2.111,2.111,0,0,0,.46,1.624l.2.247a1.827,1.827,0,0,1-.1,2.326l-.221.229a2.112,2.112,0,0,0-.6,1.576,2.114,2.114,0,0,0,.744,1.517l.24.208a1.827,1.827,0,0,1,.313,2.307l-.177.264a2.113,2.113,0,0,0-.313,1.659,2.113,2.113,0,0,0,1,1.36l.273.16a1.828,1.828,0,0,1,.72,2.214l-.127.293a2.117,2.117,0,0,0-.013,1.688,2.114,2.114,0,0,0,1.229,1.159l.3.11a1.828,1.828,0,0,1,1.1,2.051l-.072.309a2.111,2.111,0,0,0,.289,1.664,2.112,2.112,0,0,0,1.415.921l.313.055a1.828,1.828,0,0,1,1.452,1.821l-.016.317a2.116,2.116,0,0,0,.577,1.581,2.122,2.122,0,0,0,1.562.657l.328,0a1.831,1.831,0,0,1,1.744,1.533l.041.315a2.1,2.1,0,0,0,2.1,1.857,2.225,2.225,0,0,0,.407-.037l.312-.058a1.564,1.564,0,0,1,.293-.028,1.845,1.845,0,0,1,1.707,1.222l.1.3a2.114,2.114,0,0,0,2.015,1.488,2.177,2.177,0,0,0,.774-.144l.3-.113a1.627,1.627,0,0,1,.587-.107,1.832,1.832,0,0,1,1.593.924l.149.281a2.121,2.121,0,0,0,1.872,1.139,2.152,2.152,0,0,0,1.113-.314l.271-.166a1.7,1.7,0,0,1,.882-.237,1.793,1.793,0,0,1,1.409.653l.2.249a2.116,2.116,0,0,0,1.669.82,2.137,2.137,0,0,0,1.414-.541l.238-.211a1.753,1.753,0,0,1,1.164-.422,1.754,1.754,0,0,1,1.164.422l.238.211a2.136,2.136,0,0,0,1.413.541,2.118,2.118,0,0,0,1.67-.82l.2-.249a1.794,1.794,0,0,1,1.409-.653,1.7,1.7,0,0,1,.882.237l.273.166a2.147,2.147,0,0,0,1.112.314,2.118,2.118,0,0,0,1.871-1.139l.15-.281a1.832,1.832,0,0,1,1.594-.924,1.626,1.626,0,0,1,.586.107l.3.113a2.181,2.181,0,0,0,.774.144,2.115,2.115,0,0,0,2.014-1.487l.1-.3a1.844,1.844,0,0,1,1.707-1.222,1.566,1.566,0,0,1,.293.028l.312.058a2.228,2.228,0,0,0,.407.037,2.1,2.1,0,0,0,2.1-1.857l.041-.315a1.833,1.833,0,0,1,1.753-1.533l.332,0a2.112,2.112,0,0,0,1.548-.657,2.112,2.112,0,0,0,.578-1.581l-.016-.317a1.827,1.827,0,0,1,1.451-1.821l.314-.055a2.113,2.113,0,0,0,1.415-.921,2.113,2.113,0,0,0,.29-1.664l-.072-.309a1.826,1.826,0,0,1,1.1-2.051l.3-.11a2.107,2.107,0,0,0,1.229-1.159,2.112,2.112,0,0,0-.011-1.688l-.127-.292a1.828,1.828,0,0,1,.719-2.216l.274-.16a2.112,2.112,0,0,0,1-1.36,2.113,2.113,0,0,0-.313-1.659l-.177-.264a1.827,1.827,0,0,1,.313-2.307Z" transform="translate(0 -15.202)"/></g></svg>