<svg xmlns="http://www.w3.org/2000/svg" width="79" height="49" viewBox="0 0 79 49">
  <g id="Ratings" transform="translate(6.855 -8.171)">
    <rect id="Rectangle_190" data-name="Rectangle 190" width="79" height="49" transform="translate(-6.855 8.171)" fill="none"/>
    <g id="Group_9676" data-name="Group 9676" transform="translate(-4.173 11.007)">
      <g id="Star" transform="translate(18.756 0)">
        <path id="Path_949" data-name="Path 949" d="M818.322,2560.049a.661.661,0,0,0-.63-.458H803.872l-4.063-13.137a.689.689,0,0,0-1.264,0l-4.063,13.137h-13.82a.661.661,0,0,0-.386,1.2L791.649,2569l-4.875,13.131a.661.661,0,0,0,1.006.766l11.4-8.223,11.4,8.223a.648.648,0,0,0,.386.125.66.66,0,0,0,.62-.891L806.7,2569l11.374-8.208A.663.663,0,0,0,818.322,2560.049Z" transform="translate(-780 -2546.038)" fill="#151515"/>
      </g>
      <g id="Star-2" data-name="Star" transform="translate(0 18.756)">
        <path id="Path_949-2" data-name="Path 949" d="M803.752,2554.722a.409.409,0,0,0-.39-.284H794.8l-2.518-8.143a.427.427,0,0,0-.784,0l-2.518,8.143H780.41a.409.409,0,0,0-.239.742l7.049,5.087-3.021,8.139a.41.41,0,0,0,.624.475l7.063-5.1,7.063,5.1a.407.407,0,0,0,.488-.006.409.409,0,0,0,.136-.469l-3.021-8.139,7.049-5.087A.411.411,0,0,0,803.752,2554.722Z" transform="translate(-780 -2546.038)" fill="#151515"/>
      </g>
      <g id="Star-3" data-name="Star" transform="translate(50.017 18.756)">
        <path id="Path_949-3" data-name="Path 949" d="M803.752,2554.722a.409.409,0,0,0-.39-.284H794.8l-2.518-8.143a.427.427,0,0,0-.784,0l-2.518,8.143H780.41a.409.409,0,0,0-.239.742l7.049,5.087-3.021,8.139a.41.41,0,0,0,.624.475l7.063-5.1,7.063,5.1a.407.407,0,0,0,.488-.006.409.409,0,0,0,.136-.469l-3.021-8.139,7.049-5.087A.411.411,0,0,0,803.752,2554.722Z" transform="translate(-780 -2546.038)" fill="#151515"/>
      </g>
    </g>
  </g>
</svg>
