<svg xmlns="http://www.w3.org/2000/svg" width="51" height="79" viewBox="0 0 51 79">
  <g id="Door" transform="translate(-266 -185.917)">
    <path id="Door-2" data-name="Door" d="M36.255,68.014H0V0H36.255ZM32.091,32.451a1.41,1.41,0,1,0,1.4,1.407A1.4,1.4,0,0,0,32.091,32.451ZM14.174,9.816a.342.342,0,0,0-.25.115.323.323,0,0,0-.083.261L14.86,21.176a.335.335,0,0,0,.335.309h1.727l.654,8.608a.336.336,0,0,0,.285.314.2.2,0,0,0,.052.005.333.333,0,0,0,.315-.22l4.759-12.358a.357.357,0,0,0-.037-.314.332.332,0,0,0-.281-.152H19.8L22.977,10.3a.361.361,0,0,0-.021-.329.34.34,0,0,0-.287-.157Z" transform="translate(273.465 191.332)" fill="#151515"/>
    <rect id="Rectangle_3466" data-name="Rectangle 3466" width="51" height="79" transform="translate(266 185.917)" fill="none"/>
  </g>
</svg>
