<svg xmlns="http://www.w3.org/2000/svg" width="72" height="72" viewBox="0 0 72 72">
  <g id="Price" transform="translate(-85 -502)">
    <g id="Group_9684" data-name="Group 9684" transform="translate(26.427 -1354.409)" style="isolation: isolate">
      <g id="_10_Phone" data-name="10 Phone" transform="translate(73.573 1861.409)">
        <path id="Path_69" data-name="Path 69" d="M1156.613,2674.671h-25.979a7.793,7.793,0,0,0-7.793,7.793v46.762a7.793,7.793,0,0,0,7.793,7.793h25.979a7.793,7.793,0,0,0,7.794-7.793v-46.762A7.793,7.793,0,0,0,1156.613,2674.671Zm1.3,54.555a1.3,1.3,0,0,1-1.3,1.3h-25.979a1.3,1.3,0,0,1-1.3-1.3v-46.762a1.3,1.3,0,0,1,1.3-1.3h3.9a1.3,1.3,0,0,1,1.3,1.3v1.3a2.6,2.6,0,0,0,2.6,2.6h10.391a2.6,2.6,0,0,0,2.6-2.6v-1.3a1.3,1.3,0,0,1,1.3-1.3h3.9a1.3,1.3,0,0,1,1.3,1.3Z" transform="translate(-1122.841 -2674.671)" fill="#151515"/>
      </g>
      <path id="Path_26840" data-name="Path 26840" d="M13.45-11.658H9.116a3.7,3.7,0,0,1,2.028,2.5H13.45v1.722H11.311A5.15,5.15,0,0,1,10.2-4.241,6.2,6.2,0,0,1,7.172-2.408L12.339,5.2H9.2L4.644-1.936H1.2V-3.964H4.311a4.9,4.9,0,0,0,3.042-.806A3.442,3.442,0,0,0,8.505-7.436H1.2V-9.158H8.339a2.712,2.712,0,0,0-1.389-1.75,6.408,6.408,0,0,0-2.944-.556H1.2V-13.38H13.45Z" transform="translate(87.417 1899.896)" fill="#151515"/>
    </g>
    <rect id="Rectangle_3469" data-name="Rectangle 3469" width="72" height="72" transform="translate(85 502)" fill="none"/>
  </g>
</svg>
