<svg xmlns="http://www.w3.org/2000/svg" width="101.639" height="101.639" viewBox="0 0 101.639 101.639">
  <g id="Group_9700" data-name="Group 9700" transform="translate(-247 -1587)">
    <g id="Group_9699" data-name="Group 9699">
      <path id="Path_26799" data-name="Path 26799" d="M50.819,0A50.819,50.819,0,1,1,0,50.819,50.819,50.819,0,0,1,50.819,0Z" transform="translate(247 1587)" fill="#ffcb57"/>
      <rect id="Rectangle_3471" data-name="Rectangle 3471" width="72" height="56" transform="translate(262 1614)" fill="none"/>
    </g>
    <g id="Trust" transform="translate(26.68 478.335)">
      <g id="Group_345" data-name="Group 345" transform="translate(240 1144)">
        <path id="Path_524" data-name="Path 524" d="M254.305,1146.392c-2.277-2.277-11.445-2.392-13.262-2.392a1.044,1.044,0,0,0-1.044,1.044v23.008a1.044,1.044,0,0,0,1.044,1.044c3.294,0,8.358-.046,8.358-.046a1.042,1.042,0,0,0,1-.787c.148-.578,3.613-14.263,4.2-21.042A1.041,1.041,0,0,0,254.305,1146.392Z" transform="translate(-240 -1144)" fill="#151515"/>
        <path id="Path_525" data-name="Path 525" d="M250.363,1155.98c.054.226.169.457.655.616,2.286.755,3.722.334,5.066-1.676a1.056,1.056,0,0,1,.764-.459,2.574,2.574,0,0,0,1.463-.672,8.715,8.715,0,0,1,2.463-1.357,1.038,1.038,0,0,1,1.09.242c1.472,1.472,4.237,3.678,7.168,6.012,3.165,2.521,6.394,5.1,8.715,7.294l-.726-2.762c-1.7-4.544-4.022-10.349-5.358-13.136-1.7-.749-4.081-1.81-6.786-3.021a10.873,10.873,0,0,0-4.375-1.159c-2.123,0-4.016,1.1-6.987,4.075C251.766,1151.726,250.04,1154.623,250.363,1155.98Z" transform="translate(-228.773 -1141.932)" fill="#151515"/>
        <path id="Path_526" data-name="Path 526" d="M278.743,1145a60.837,60.837,0,0,0-17.017,2.135,1.046,1.046,0,0,0-.662.635,1.036,1.036,0,0,0,.094.912c1.685,2.711,7.268,17.123,8.229,20.6a1.043,1.043,0,0,0,1.006.766h8.35a1.044,1.044,0,0,0,1.044-1.044v-22.962A1.044,1.044,0,0,0,278.743,1145Z" transform="translate(-217.164 -1142.913)" fill="#151515"/>
        <path id="Path_527" data-name="Path 527" d="M272.588,1160.211c-2.68-2.135-5.225-4.165-6.841-5.682a7.073,7.073,0,0,0-1.338.831,4.768,4.768,0,0,1-2,1c-1.8,2.432-4.146,3.116-7.185,2.114a2.868,2.868,0,0,1-2.033-2.119c-.6-2.519,1.889-6.141,3.707-7.961a30.451,30.451,0,0,1,2.664-2.392h-9.325c-.772,7.129-4.033,20.035-4.177,20.6a3.025,3.025,0,0,1-.2.445c1.025,1.071,2.044,2.119,2.753,2.716,5.227,4.377,11.861,8.968,12.621,9.466a6.663,6.663,0,0,0,3.755,1.215h.05a5.964,5.964,0,0,0,3.052-.59l-4.935-4.933a1.044,1.044,0,1,1,1.476-1.478l5.248,5.248a1.9,1.9,0,0,0,2.588.083l.044-.039a1.888,1.888,0,0,0,.069-2.741l-6.294-6.292a1.047,1.047,0,0,1,0-1.478,1.029,1.029,0,0,1,.962-.261l8.738,8.738a2.087,2.087,0,0,0,2.952-2.952l-9.782-9.782a1.029,1.029,0,0,1,.261-.962,1.045,1.045,0,0,1,1.476,0s.708.96.919,1.171l9.393,9.393a2.087,2.087,0,0,0,2.952-2.952S272.763,1160.351,272.588,1160.211Z" transform="translate(-233.628 -1141.825)" fill="#151515"/>
      </g>
    </g>
  </g>
</svg>
