<svg xmlns="http://www.w3.org/2000/svg" width="60" height="60" viewBox="0 0 60 60">
  <g id="Click" transform="translate(11.994 5.17)">
    <g id="Group_922" data-name="Group 922">
      <path id="Path_2610" data-name="Path 2610" d="M1094.312,1747.616a.812.812,0,0,0,.812-.812v-6.493a.812.812,0,0,0-1.623,0v6.493A.812.812,0,0,0,1094.312,1747.616Z" transform="translate(-1078.891 -1739.5)" fill="#151515"/>
      <path id="Path_2611" data-name="Path 2611" d="M1092.616,1749.312a.812.812,0,0,0-.812-.812h-6.493a.812.812,0,1,0,0,1.623h6.493A.812.812,0,0,0,1092.616,1749.312Z" transform="translate(-1084.5 -1733.891)" fill="#151515"/>
      <path id="Path_2612" data-name="Path 2612" d="M1098.5,1749.312a.812.812,0,0,0,.812.812h6.493a.812.812,0,1,0,0-1.623h-6.493A.812.812,0,0,0,1098.5,1749.312Z" transform="translate(-1075.775 -1733.891)" fill="#151515"/>
      <path id="Path_2613" data-name="Path 2613" d="M1114.364,1768.216l-19.479-19.479a.811.811,0,0,0-1.385.575v27.595a.811.811,0,0,0,1.339.615l4.943-4.235,5.191,8.9a.812.812,0,0,0,.7.4.8.8,0,0,0,.4-.107l5.681-3.247a.811.811,0,0,0,.3-1.113l-4.97-8.519h6.7a.812.812,0,0,0,.573-1.386Z" transform="translate(-1078.891 -1733.891)" fill="#151515"/>
      <path id="Path_2614" data-name="Path 2614" d="M1088.521,1742.375a.812.812,0,0,0-1.148,1.148l4.592,4.59a.812.812,0,0,0,1.148-1.148Z" transform="translate(-1082.857 -1737.857)" fill="#151515"/>
      <path id="Path_2615" data-name="Path 2615" d="M1097.847,1748.35a.807.807,0,0,0,.575-.237l4.592-4.59a.812.812,0,0,0-1.148-1.148l-4.592,4.59a.809.809,0,0,0,0,1.148A.8.8,0,0,0,1097.847,1748.35Z" transform="translate(-1076.688 -1737.857)" fill="#151515"/>
      <path id="Path_2616" data-name="Path 2616" d="M1091.965,1752.273l-4.592,4.591a.812.812,0,1,0,1.148,1.148l4.592-4.591a.812.812,0,0,0-1.148-1.148Z" transform="translate(-1082.857 -1731.687)" fill="#151515"/>
    </g>
    <rect id="Rectangle_187" data-name="Rectangle 187" width="60" height="60" transform="translate(-11.994 -5.17)" fill="none"/>
  </g>
</svg>
