<svg xmlns="http://www.w3.org/2000/svg" width="62" height="62" viewBox="0 0 62 62">
  <g id="Technician" transform="translate(4.511 3.942)">
    <g id="Group_1039" data-name="Group 1039" transform="translate(0 0)">
      <path id="Path_2183" data-name="Path 2183" d="M799.2,915h-5.313a.885.885,0,1,0,0,1.771H799.2a.885.885,0,1,0,0-1.771Z" transform="translate(-769.976 -884.891)" fill="#151515"/>
      <path id="Path_2184" data-name="Path 2184" d="M832.736,940.654,822.459,933.8l-3.5-35a.885.885,0,0,0-1.573-.464l-3.02,3.776a14.18,14.18,0,0,0-15.6,0l-3.021-3.776a.885.885,0,0,0-1.573.464l-3.5,34.989L780.416,940.2a.886.886,0,0,0-.416.751v9.3a.885.885,0,0,0,.885.886h51.36a.886.886,0,0,0,.885-.886v-8.855A.887.887,0,0,0,832.736,940.654Zm-23.4-24.88,2.214-.886,2.706-.9a.885.885,0,1,1,.56,1.679l-1.316.439a.884.884,0,0,1-.735,1.378h-3.1a.885.885,0,0,1-.329-1.707ZM797.772,914.5a.884.884,0,0,1,1.151-.494l4.428,1.771a.885.885,0,0,1-.328,1.707h-2.656a.885.885,0,0,1-.886-.885v-.464l-1.215-.485A.885.885,0,0,1,797.772,914.5Zm18.95,17.048-6.641,3.542a.873.873,0,0,1-.416.1h-6.641a.885.885,0,0,1-.439-.117l-6.2-3.542a.883.883,0,0,1-.434-.914l1.771-10.626a.885.885,0,0,1,1.153-.694l7.69,2.563,7.69-2.563a.885.885,0,0,1,1.153.694l1.771,10.626A.885.885,0,0,1,816.723,931.546Z" transform="translate(-780 -897.999)" fill="#151515"/>
    </g>
    <rect id="Rectangle_189" data-name="Rectangle 189" width="62" height="62" transform="translate(-4.511 -3.942)" fill="none"/>
  </g>
</svg>
