<svg xmlns="http://www.w3.org/2000/svg" width="33.508" height="33.508" viewBox="0 0 33.508 33.508"><defs><style>.a{fill:#55acee;}.b{fill:#fff;}</style></defs><path class="a" d="M0,16.754A16.754,16.754,0,1,1,16.754,33.508,16.754,16.754,0,0,1,0,16.754Z"/><path class="b" d="M7.875,3.565l.035.58-.586-.071A9.531,9.531,0,0,1,1.746,1.329L.973.56l-.2.568A3.414,3.414,0,0,0,1.5,4.63c.469.5.363.568-.445.272A1.382,1.382,0,0,0,.5,4.772,4.239,4.239,0,0,0,.926,6.358,3.784,3.784,0,0,0,2.531,7.872l.574.272-.68.012c-.656,0-.68.012-.609.26a3.543,3.543,0,0,0,2.191,1.94l.727.248-.633.379a6.6,6.6,0,0,1-3.141.875A3.47,3.47,0,0,0,0,11.954a8.915,8.915,0,0,0,2.262,1.041,9.9,9.9,0,0,0,7.688-.875,10.288,10.288,0,0,0,3.9-4.59,12.2,12.2,0,0,0,.8-3.549c0-.544.035-.615.691-1.266a7.726,7.726,0,0,0,.82-.911c.117-.225.105-.225-.492-.024-1,.355-1.137.308-.645-.225a3.442,3.442,0,0,0,.8-1.266c0-.035-.176.024-.375.13a6.538,6.538,0,0,1-1.031.4l-.633.2-.574-.39a4.77,4.77,0,0,0-1-.521A4,4,0,0,0,10.16.158,3.387,3.387,0,0,0,7.875,3.565Z" transform="translate(8.377 10.052)"/></svg>