<svg xmlns="http://www.w3.org/2000/svg" width="33.508" height="33.508" viewBox="0 0 33.508 33.508"><defs><style>.a{fill:#25d366;}.b{fill:#fdfdfd;}</style></defs><ellipse class="a" cx="16.754" cy="16.754" rx="16.754" ry="16.754"/><path class="b" d="M0,20.1H0l1.413-5.161a9.963,9.963,0,1,1,8.633,4.989h0A9.979,9.979,0,0,1,5.28,18.719Zm5.525-3.189h0l.3.179a8.264,8.264,0,0,0,4.214,1.155h0a8.282,8.282,0,1,0-7.015-3.881l.2.314-.836,3.055,3.134-.822Zm7.109-2.162a3.134,3.134,0,0,1-.963-.146,14.225,14.225,0,0,1-1.419-.525,10.772,10.772,0,0,1-4.209-3.7L6,10.324l0,0A4.747,4.747,0,0,1,4.983,7.749a2.744,2.744,0,0,1,.822-2.024l.049-.052a.907.907,0,0,1,.664-.312c.15,0,.324,0,.477.009h.077c.155,0,.319.033.483.427.064.154.156.378.254.617l0,.005c.22.534.468,1.14.511,1.226a.462.462,0,0,1,.021.436l-.034.069a1.424,1.424,0,0,1-.215.346c-.043.05-.087.1-.13.156-.083.1-.17.207-.244.28-.12.12-.256.255-.109.508A7.426,7.426,0,0,0,9,11.166a6.467,6.467,0,0,0,1.838,1.161c.069.03.124.054.164.074a.617.617,0,0,0,.271.08.344.344,0,0,0,.268-.142c.124-.142.62-.722.789-.976a.344.344,0,0,1,.293-.189.825.825,0,0,1,.267.064c.228.083,1.455.687,1.7.81l.137.067a.8.8,0,0,1,.34.224,2.079,2.079,0,0,1-.145,1.184,2.552,2.552,0,0,1-1.68,1.184A4.083,4.083,0,0,1,12.634,14.754Z" transform="translate(7.261 6.143)"/></svg>